<svg width="1681" height="247" viewBox="0 0 1681 247" fill="none" xmlns="http://www.w3.org/2000/svg">
<path d="M0 243.867V4.98242H98.3509C116.195 4.98242 130.927 7.46649 142.962 12.6416C154.996 17.8168 163.918 24.855 170.143 33.9632C176.16 43.0715 179.273 53.6287 179.273 65.6351C179.273 74.7433 177.405 83.0235 173.463 90.0617C169.728 97.0999 164.333 102.896 157.901 107.45C151.261 112.004 143.584 115.316 135.077 117.179V119.457C144.622 119.871 153.336 122.562 161.636 127.323C169.728 132.084 176.368 138.708 181.348 146.988C186.327 155.475 188.817 165.412 188.817 177.211C188.817 190.045 185.497 201.431 179.065 211.367C172.633 221.303 163.296 229.376 150.846 234.966C138.604 240.762 123.457 243.66 105.821 243.66H0V243.867ZM55.1927 103.931H89.2213C95.6535 103.931 101.463 102.896 106.651 100.619C111.838 98.3419 115.78 95.2369 118.685 91.0967C121.59 86.9566 123.042 81.9885 123.042 76.1924C123.042 67.9121 120.138 61.4949 114.328 56.5268C108.518 51.7657 100.426 49.2816 90.2588 49.2816H55.1927V103.931ZM55.1927 199.154H92.9561C106.028 199.154 115.573 196.67 121.797 191.701C128.022 186.733 130.927 179.902 130.927 171.208C130.927 164.998 129.475 159.616 126.362 154.854C123.457 150.093 119.1 146.574 113.498 143.883C107.896 141.192 101.463 139.95 93.7861 139.95H55.1927V199.154Z" fill="black"/>
<path d="M199.004 242.497V63.4372H251.914V95.523H253.782C257.101 83.9307 262.496 75.2365 269.966 69.4403C277.436 63.6442 286.15 60.7461 296.11 60.7461C298.6 60.7461 301.297 60.9531 304.202 61.1601C307.107 61.5741 309.597 61.9881 311.879 62.6091V110.22C309.389 109.392 305.862 108.771 301.505 108.15C297.147 107.736 293.205 107.322 289.885 107.322C283.038 107.322 276.813 108.771 271.211 111.876C265.609 114.982 261.251 119.122 258.139 124.504C255.027 129.886 253.367 136.303 253.367 143.341V242.083H199.004V242.497Z" fill="black"/>
<path d="M368.088 245.6C356.676 245.6 346.509 243.737 337.587 239.804C328.665 235.871 321.61 230.075 316.63 222.209C311.651 214.342 308.953 204.613 308.953 192.814C308.953 182.878 310.821 174.39 314.348 167.766C317.875 160.935 322.855 155.346 328.872 151.206C335.097 147.066 342.152 143.753 350.244 141.683C358.336 139.406 366.843 137.957 375.765 137.336C386.14 136.301 394.44 135.266 400.664 134.231C406.889 133.196 411.454 131.747 414.359 129.677C417.264 127.607 418.716 124.916 418.716 121.19V120.569C418.716 113.945 416.641 108.977 412.284 105.457C407.927 101.938 402.117 100.075 394.647 100.075C386.555 100.075 380.123 101.938 375.143 105.457C370.371 108.977 367.258 113.738 365.806 119.327L315.385 116.843C317.253 105.871 321.403 96.3492 328.042 88.069C334.682 79.7887 343.604 73.1646 354.809 68.4034C366.013 63.6423 379.293 61.3652 394.855 61.3652C405.852 61.3652 416.019 62.6073 425.563 65.2983C435.108 67.7824 443.408 71.7155 450.462 76.6836C457.517 81.6518 463.119 87.8619 467.269 95.3141C471.211 102.766 473.286 111.461 473.286 121.397V242.702H421.828V217.654H420.376C417.264 223.658 413.321 228.626 408.342 232.973C403.569 237.113 397.759 240.425 390.912 242.495C384.273 244.565 376.595 245.6 368.088 245.6ZM384.688 209.374C391.327 209.374 397.137 208.132 402.324 205.441C407.512 202.75 411.661 199.231 414.566 194.677C417.679 190.123 419.131 184.741 419.131 178.737V160.935C417.471 161.763 415.604 162.591 413.114 163.419C410.624 164.247 407.927 164.868 405.022 165.489C402.117 166.11 399.004 166.731 396.1 167.145C392.987 167.559 390.29 168.18 387.592 168.387C381.99 169.215 377.218 170.457 373.275 172.32C369.333 174.183 366.221 176.46 364.146 179.565C362.071 182.463 361.033 186.19 361.033 190.33C361.033 196.54 363.316 201.301 367.881 204.406C371.823 207.718 377.633 209.374 384.688 209.374Z" fill="black"/>
<path d="M477.871 242.496L503.393 63.436H557.963L532.441 242.496H477.871Z" fill="black"/>
<path d="M505.449 47.0824L512.504 0.713135H567.074L560.019 47.0824H505.449Z" fill="black"/>
<path d="M619.574 139.821L610.859 242.495H556.289L571.228 63.4355H623.101L620.611 95.7284H622.686C627.459 84.9641 634.928 76.4768 644.888 70.2667C654.848 64.0565 666.675 60.9514 679.954 60.9514C692.403 60.9514 703.193 63.6425 712.115 69.2316C721.037 74.8208 727.677 82.687 731.827 92.6233C736.184 102.767 737.637 114.566 736.392 128.228L726.847 242.288H672.277L680.991 138.579C681.821 128.435 679.954 120.362 675.182 114.566C670.409 108.77 663.355 105.665 653.81 105.665C647.585 105.665 642.191 106.907 637.211 109.598C632.231 112.289 628.289 116.222 625.176 121.19C622.064 126.572 620.196 132.575 619.574 139.821Z" fill="black"/>
<path d="M912.13 116.843L862.747 118.706C862.747 114.773 861.917 111.461 860.05 108.356C858.183 105.458 855.693 102.974 852.165 101.318C848.638 99.6615 844.696 98.8334 839.716 98.8334C832.039 98.8334 825.191 100.489 819.174 104.009C813.157 107.528 809.837 111.875 809.007 117.257C808.385 120.362 809.215 123.053 811.497 125.33C813.779 127.607 818.759 129.47 826.436 131.126L859.22 137.75C876.442 141.27 888.891 147.066 896.568 155.553C904.246 164.04 906.943 175.011 904.661 188.674C902.793 200.266 897.606 210.409 889.306 219.104C881.007 227.798 870.424 234.422 857.768 238.976C845.111 243.737 831.001 246.014 815.439 246.014C789.71 246.014 770.414 240.839 757.342 230.489C744.27 220.139 738.045 206.269 738.667 188.881L791.785 187.225C791.993 194.056 794.275 199.024 798.84 202.543C803.197 206.062 809.422 207.925 816.892 207.925C825.399 208.132 832.869 206.269 838.886 202.543C844.903 198.817 848.43 194.263 849.053 189.088C849.675 185.362 848.43 182.464 845.733 180.394C842.828 178.324 837.848 176.461 830.379 175.011L800.292 169.008C783.071 165.696 770.621 159.486 762.944 150.171C755.267 140.856 752.777 129.263 755.059 114.98C756.927 103.595 761.699 93.8653 769.169 85.7921C776.638 77.7189 786.391 71.7157 798.425 67.3686C810.46 63.2285 824.154 60.9514 839.716 60.9514C863.992 60.9514 882.459 65.9196 894.909 75.8558C907.566 85.7921 913.168 99.4545 912.13 116.843Z" fill="black"/>
<path d="M1033.94 63.4375L1027.71 103.804H916.291L922.516 63.4375H1033.94ZM952.81 20.3804H1007.38L982.688 186.606C982.066 190.539 982.273 193.644 983.103 195.714C983.933 197.991 985.593 199.647 987.668 200.475C989.95 201.51 992.44 201.924 995.553 201.924C997.835 201.924 1000.12 201.717 1002.61 201.096C1005.1 200.682 1006.96 200.268 1008.42 200.061L1010.91 239.806C1008 240.634 1004.27 241.669 999.288 242.704C994.308 243.739 988.498 244.36 981.651 244.774C968.579 245.395 957.789 243.739 948.867 240.013C940.153 236.287 933.72 230.491 929.985 222.625C926.251 214.759 925.213 204.822 927.288 193.023L952.81 20.3804Z" fill="black"/>
<path d="M1114.86 245.807C1096.39 245.807 1080.42 241.874 1066.93 234.215C1053.44 226.556 1043.07 215.792 1035.81 201.922C1028.54 188.053 1025.02 171.906 1025.02 153.483C1025.02 135.059 1028.54 118.913 1035.81 105.044C1043.07 91.1742 1053.44 80.4099 1066.93 72.5437C1080.42 64.8845 1096.39 60.9514 1114.86 60.9514C1133.54 60.9514 1149.51 64.8845 1163 72.5437C1176.49 80.2029 1186.65 91.1742 1193.92 105.044C1201.18 118.913 1204.71 135.059 1204.71 153.483C1204.71 171.906 1201.18 188.053 1193.92 201.922C1186.65 215.792 1176.28 226.556 1163 234.215C1149.51 241.874 1133.54 245.807 1114.86 245.807ZM1115.07 204.406C1122.33 204.406 1128.56 202.129 1133.74 197.782C1138.72 193.435 1142.67 187.432 1145.16 179.566C1147.85 171.906 1149.1 163.005 1149.1 152.862C1149.1 142.719 1147.85 133.817 1145.16 126.158C1142.46 118.499 1138.72 112.496 1133.74 107.942C1128.76 103.595 1122.54 101.318 1115.07 101.318C1107.6 101.318 1101.17 103.595 1095.98 107.942C1090.79 112.289 1086.85 118.292 1084.36 126.158C1081.66 133.817 1080.42 142.719 1080.42 152.862C1080.42 162.798 1081.66 171.699 1084.36 179.566C1087.06 187.225 1091 193.435 1095.98 197.782C1101.17 202.336 1107.6 204.406 1115.07 204.406Z" fill="black"/>
<path d="M1216.52 242.497V63.4372H1269.43V95.523H1271.3C1274.62 83.9307 1280.01 75.2365 1287.48 69.4403C1294.95 63.6442 1303.67 60.7461 1313.63 60.7461C1316.12 60.7461 1318.81 60.9531 1321.72 61.1601C1324.62 61.5741 1327.11 61.9881 1329.39 62.6091V110.22C1326.9 109.392 1323.38 108.771 1319.02 108.15C1314.66 107.736 1310.72 107.322 1307.4 107.322C1300.55 107.322 1294.33 108.771 1288.73 111.876C1283.12 114.982 1278.77 119.122 1275.65 124.504C1272.54 129.886 1270.88 136.303 1270.88 143.341V242.083H1216.52V242.497Z" fill="black"/>
<path d="M1334.79 242.497V63.4372H1386.67V95.9371H1388.74C1392.48 85.1728 1398.7 76.6856 1407.62 70.4754C1416.55 64.2652 1427.13 61.1602 1439.37 61.1602C1451.82 61.1602 1462.4 64.2652 1471.12 70.6824C1479.83 76.8926 1485.64 85.3798 1488.13 95.9371H1490C1493.53 85.3798 1500.17 77.0996 1509.71 70.6824C1519.46 64.2652 1530.87 61.1602 1543.95 61.1602C1560.75 61.1602 1574.66 66.5423 1585.24 77.3066C1595.82 88.0709 1601.21 102.975 1601.21 122.02V242.497H1546.64V133.819C1546.64 124.504 1544.15 117.466 1539.38 112.705C1534.61 107.943 1528.38 105.459 1520.71 105.459C1512.41 105.459 1505.98 108.15 1501.2 113.533C1496.43 118.915 1494.15 125.953 1494.15 134.854V242.704H1441.65V132.991C1441.65 124.504 1439.37 117.673 1434.6 112.705C1429.83 107.736 1423.6 105.252 1415.92 105.252C1410.74 105.252 1406.17 106.494 1402.23 108.978C1398.29 111.463 1394.97 114.982 1392.68 119.536C1390.4 124.09 1389.16 129.472 1389.16 135.682V242.083H1334.79V242.497Z" fill="black"/>
<path d="M1680.95 185.7H1623.06V243.454H1680.95V185.7Z" fill="black"/>
</svg>
