<svg width="62" height="34" viewBox="0 0 62 34" fill="none" xmlns="http://www.w3.org/2000/svg">
<rect x="-14.5" y="32.5" width="31" height="31" transform="rotate(-90 -14.5 32.5)" stroke="white" stroke-width="3"/>
<rect x="-6.5" y="24.5" width="15" height="15" transform="rotate(-90 -6.5 24.5)" stroke="white" stroke-width="3"/>
<path d="M62 17.4871C61.9897 26.6213 54.5634 34.0155 45.4277 34C36.3695 33.9845 28.9845 26.5336 29 17.4303C29.0155 8.41999 36.4934 0.979386 45.5052 1.00004C54.5737 1.02069 62.0103 8.45097 62 17.4871ZM54.3775 29.4096C54.3723 29.3735 54.3671 29.3373 54.362 29.3064C54.2638 29.3064 54.1502 29.2754 54.0624 29.3115C52.9779 29.7349 51.8573 29.9776 50.7005 30.1015C49.3061 30.2513 47.9221 30.1945 46.5484 29.9673C44.3535 29.6058 42.3136 28.8107 40.4338 27.6127C37.0512 25.4544 35.0268 22.4492 34.7634 18.3752C34.7427 18.0706 34.7221 17.7659 34.7014 17.451C33.2606 17.451 31.8456 17.451 30.415 17.451C30.4305 17.3942 30.4357 17.3528 30.4512 17.3115C31.3446 15.0086 32.5221 12.8709 34.1902 11.0276C35.0939 10.0258 36.1164 9.1687 37.3559 8.60071C38.0995 8.25476 38.8742 8.0792 39.7005 8.20312C40.754 8.35803 41.6732 8.83307 42.5202 9.44236C44.5498 10.9036 45.9958 12.8399 46.9977 15.1067C47.3282 15.8554 47.5606 16.6454 47.8601 17.4716C46.3986 17.4716 45.0249 17.4716 43.6254 17.4716C43.6667 17.58 43.6925 17.6523 43.7286 17.7195C44.5911 19.5783 45.8099 21.1842 47.2714 22.6093C48.1441 23.4561 49.0944 24.1945 50.184 24.747C51.1394 25.2272 52.1052 25.2788 53.0812 24.8399C53.453 24.6747 53.83 24.494 54.1709 24.2719C56.3606 22.883 58.0493 21.0086 59.3972 18.8141C59.6606 18.3855 59.8775 17.9363 60.146 17.4406C58.6742 17.4406 57.2695 17.4406 55.8596 17.4406C55.8286 16.093 55.6582 14.7969 55.2089 13.5525C53.9901 10.1704 51.7953 7.59899 48.6761 5.82791C46.0732 4.35115 43.2897 3.73153 40.315 4.24788C36.6174 4.88815 33.8132 6.86061 31.892 10.0775C30.823 11.864 30.2343 13.8055 30.0742 15.8813C29.9554 17.3942 29.9916 18.8967 30.3221 20.3838C30.8437 22.7177 31.9334 24.7728 33.4672 26.58C36.3282 29.9621 39.938 31.9656 44.3897 32.3631C45.7324 32.4819 47.0596 32.3683 48.3714 32.0585C49.9413 31.6867 51.3925 31.0258 52.8178 30.2874C53.3394 30.0034 53.8559 29.6988 54.3775 29.4096Z" fill="white"/>
</svg>
