<svg width="19" height="20" viewBox="0 0 19 20" fill="none" xmlns="http://www.w3.org/2000/svg">
<path d="M14.3087 15.5781C9.18219 15.5781 5.02291 11.4188 5.02291 6.29228C5.02291 3.88101 5.94182 1.69082 7.4411 0.0395508C3.15746 1.18646 0 5.09701 0 9.74683C0 15.2948 4.49782 19.7927 10.0458 19.7927C13.9495 19.7927 17.3349 17.5679 19 14.3137C17.6251 15.1152 16.0222 15.5781 14.3087 15.5781Z" fill="white"/>
<path d="M11.6209 3.03125L12.3532 5.22834L14.5434 5.96071L12.3532 6.69307L11.6209 8.88325L10.8885 6.69307L8.69141 5.96071L10.8885 5.22834L11.6209 3.03125Z" fill="white"/>
<path d="M15.8635 7.97119L16.2228 9.02137L17.2729 9.37374L16.2228 9.7261L15.8635 10.7832L15.5111 9.7261L14.4609 9.37374L15.5111 9.02137L15.8635 7.97119Z" fill="white"/>
</svg>
