<svg width="314" height="547" viewBox="0 0 314 547" fill="none" xmlns="http://www.w3.org/2000/svg">
<line x1="34.8125" y1="2.12476e-08" x2="34.8125" y2="66.0112" stroke="#EAEAEA"/>
<line x1="68.623" y1="33.5054" x2="0.00275417" y2="33.5054" stroke="#EAEAEA"/>
<line x1="34.8125" y1="360.741" x2="34.8125" y2="426.753" stroke="#EAEAEA"/>
<line x1="68.623" y1="394.247" x2="0.00275417" y2="394.247" stroke="#EAEAEA"/>
<line x1="34.8125" y1="120.247" x2="34.8125" y2="186.258" stroke="#EAEAEA"/>
<line x1="68.623" y1="153.753" x2="0.00275417" y2="153.753" stroke="#EAEAEA"/>
<line x1="34.8125" y1="240.494" x2="34.8125" y2="306.506" stroke="#EAEAEA"/>
<line x1="68.623" y1="274" x2="0.00275417" y2="274" stroke="#EAEAEA"/>
<line x1="157.434" y1="2.12476e-08" x2="157.434" y2="66.0112" stroke="#EAEAEA"/>
<line x1="191.244" y1="33.5054" x2="122.624" y2="33.5054" stroke="#EAEAEA"/>
<line x1="157.434" y1="360.741" x2="157.434" y2="426.753" stroke="#EAEAEA"/>
<line x1="191.244" y1="394.247" x2="122.624" y2="394.247" stroke="#EAEAEA"/>
<line x1="157.434" y1="120.247" x2="157.434" y2="186.258" stroke="#EAEAEA"/>
<line x1="191.244" y1="153.753" x2="122.624" y2="153.753" stroke="#EAEAEA"/>
<line x1="157.434" y1="240.494" x2="157.434" y2="306.506" stroke="#EAEAEA"/>
<line x1="191.244" y1="274" x2="122.624" y2="274" stroke="#EAEAEA"/>
<line x1="280.055" y1="2.12476e-08" x2="280.055" y2="66.0112" stroke="#EAEAEA"/>
<line x1="313.865" y1="33.5054" x2="245.245" y2="33.5054" stroke="#EAEAEA"/>
<line x1="280.055" y1="360.741" x2="280.055" y2="426.753" stroke="#EAEAEA"/>
<line x1="313.865" y1="394.247" x2="245.245" y2="394.247" stroke="#EAEAEA"/>
<line x1="34.8125" y1="480.989" x2="34.8125" y2="547" stroke="#EAEAEA"/>
<line x1="68.623" y1="514.494" x2="0.00275417" y2="514.494" stroke="#EAEAEA"/>
<line x1="157.434" y1="480.989" x2="157.434" y2="547" stroke="#EAEAEA"/>
<line x1="191.244" y1="514.494" x2="122.624" y2="514.494" stroke="#EAEAEA"/>
<line x1="280.055" y1="480.989" x2="280.055" y2="547" stroke="#EAEAEA"/>
<line x1="313.865" y1="514.494" x2="245.245" y2="514.494" stroke="#EAEAEA"/>
<line x1="280.055" y1="120.247" x2="280.055" y2="186.258" stroke="#EAEAEA"/>
<line x1="313.865" y1="153.753" x2="245.245" y2="153.753" stroke="#EAEAEA"/>
<line x1="280.055" y1="240.494" x2="280.055" y2="306.506" stroke="#EAEAEA"/>
<line x1="313.865" y1="274" x2="245.245" y2="274" stroke="#EAEAEA"/>
</svg>
