<svg width="1920" height="1080" viewBox="0 0 1920 1080" fill="none" xmlns="http://www.w3.org/2000/svg">
<line x1="287.346" y1="157" x2="287.346" y2="296.608" stroke="black" stroke-width="1.08223"/>
<line x1="356.607" y1="227.345" x2="216.999" y2="227.345" stroke="black" stroke-width="1.08223"/>
<line x1="287.346" y1="455.696" x2="287.346" y2="595.304" stroke="black" stroke-width="1.08223"/>
<line x1="356.607" y1="526.041" x2="216.999" y2="526.041" stroke="black" stroke-width="1.08223"/>
<line x1="287.346" y1="783.392" x2="287.346" y2="923" stroke="black" stroke-width="1.08223"/>
<line x1="356.607" y1="853.737" x2="216.999" y2="853.737" stroke="black" stroke-width="1.08223"/>
<line x1="623.953" y1="157" x2="623.953" y2="296.608" stroke="black" stroke-width="1.08223"/>
<line x1="693.215" y1="227.345" x2="553.607" y2="227.345" stroke="black" stroke-width="1.08223"/>
<line x1="623.953" y1="455.696" x2="623.953" y2="595.304" stroke="black" stroke-width="1.08223"/>
<line x1="693.215" y1="526.041" x2="553.607" y2="526.041" stroke="black" stroke-width="1.08223"/>
<line x1="623.953" y1="783.392" x2="623.953" y2="923" stroke="black" stroke-width="1.08223"/>
<line x1="693.215" y1="853.737" x2="553.607" y2="853.737" stroke="black" stroke-width="1.08223"/>
<line x1="960.563" y1="157" x2="960.563" y2="296.608" stroke="black" stroke-width="1.08223"/>
<line x1="1029.82" y1="227.345" x2="890.216" y2="227.345" stroke="black" stroke-width="1.08223"/>
<line x1="960.563" y1="455.696" x2="960.563" y2="595.304" stroke="black" stroke-width="1.08223"/>
<line x1="1029.82" y1="526.041" x2="890.216" y2="526.041" stroke="black" stroke-width="1.08223"/>
<line x1="960.563" y1="783.392" x2="960.563" y2="923" stroke="black" stroke-width="1.08223"/>
<line x1="1029.82" y1="853.737" x2="890.216" y2="853.737" stroke="black" stroke-width="1.08223"/>
<line x1="1297.17" y1="157" x2="1297.17" y2="296.608" stroke="black" stroke-width="1.08223"/>
<line x1="1366.43" y1="227.345" x2="1226.82" y2="227.345" stroke="black" stroke-width="1.08223"/>
<line x1="1297.17" y1="455.696" x2="1297.17" y2="595.304" stroke="black" stroke-width="1.08223"/>
<line x1="1366.43" y1="526.041" x2="1226.82" y2="526.041" stroke="black" stroke-width="1.08223"/>
<line x1="1297.17" y1="783.392" x2="1297.17" y2="923" stroke="black" stroke-width="1.08223"/>
<line x1="1366.43" y1="853.737" x2="1226.82" y2="853.737" stroke="black" stroke-width="1.08223"/>
<line x1="1633.78" y1="157" x2="1633.78" y2="296.608" stroke="black" stroke-width="1.08223"/>
<line x1="1703.04" y1="227.345" x2="1563.43" y2="227.345" stroke="black" stroke-width="1.08223"/>
<line x1="1633.78" y1="455.696" x2="1633.78" y2="595.304" stroke="black" stroke-width="1.08223"/>
<line x1="1703.04" y1="526.041" x2="1563.43" y2="526.041" stroke="black" stroke-width="1.08223"/>
<line x1="1633.78" y1="783.392" x2="1633.78" y2="923" stroke="black" stroke-width="1.08223"/>
<line x1="1703.04" y1="853.737" x2="1563.43" y2="853.737" stroke="black" stroke-width="1.08223"/>
</svg>
