<svg width="67" height="129" viewBox="0 0 67 129" fill="none" xmlns="http://www.w3.org/2000/svg">
<path d="M66.9844 43.317C45.239 43.317 23.5059 43.317 1.76048 43.317C0.998344 43.317 1.01064 43.2846 1.01064 44.3368C1.02293 45.7938 1.01064 47.2507 1.01064 48.7076C1.01064 48.9018 1.03522 49.0152 1.20732 48.9828C1.35483 48.9666 1.49004 48.9828 1.63756 48.9828C23.4198 48.9828 45.2021 48.9828 66.9844 48.9828C66.9844 47.0888 66.9844 45.211 66.9844 43.317Z" fill="black"/>
<path d="M66.9844 5.34027C45.2021 5.34027 23.4198 5.34027 1.63756 5.34027C1.44088 5.34027 1.15815 5.27552 1.05981 5.42121C0.961472 5.5669 1.02293 5.92303 1.02293 6.19823C1.02293 7.25045 1.02293 8.30266 1.02293 9.35488C1.02293 9.5977 1.02293 9.79195 1.28107 9.7272C1.404 9.69483 1.52692 9.7272 1.64985 9.7272C23.4198 9.71101 45.2021 9.71101 66.9844 9.71101C66.9844 8.2541 66.9844 6.79718 66.9844 5.34027Z" fill="black"/>
<path d="M66.9877 67.7287C45.2054 67.7287 23.4232 67.7287 1.64088 67.7287C1.44421 67.7287 1.16148 67.6639 1.06313 67.8096C0.964798 67.9553 1.02626 68.3115 1.02626 68.5867C1.02626 69.6389 1.02626 70.6911 1.02626 71.7433C1.02626 71.9861 1.02625 72.1804 1.2844 72.1156C1.40733 72.0833 1.53025 72.1156 1.65318 72.1156C23.4354 72.1156 45.2177 72.1156 67 72.1156C66.9877 70.6263 66.9877 69.1856 66.9877 67.7287Z" fill="black"/>
<path d="M66.9877 56.8989C45.2054 56.8989 23.4232 56.8989 1.64088 56.8989C1.44421 56.8989 1.16148 56.8341 1.06313 56.9798C0.964798 57.1255 1.02626 57.4816 1.02626 57.7568C1.02626 58.809 1.02626 59.8613 1.02626 60.9135C1.02626 61.1563 1.02625 61.3505 1.2844 61.2858C1.40733 61.2534 1.53025 61.2858 1.65318 61.2858C23.4354 61.2858 45.2177 61.2858 67 61.2858C66.9877 59.8127 66.9877 58.3558 66.9877 56.8989Z" fill="black"/>
<path d="M66.9844 105.705C45.239 105.705 23.5059 105.705 1.76048 105.705C0.998344 105.705 0.998337 105.673 1.01063 106.725C1.02293 107.745 1.01063 108.765 1.01063 109.801C1.01063 109.995 1.03522 110.109 1.20731 110.076C1.35483 110.06 1.49004 110.076 1.63755 110.076C23.4198 110.076 45.2021 110.076 66.9844 110.076C66.9844 108.619 66.9844 107.162 66.9844 105.705Z" fill="black"/>
<path d="M66.9877 100.363C45.2054 100.363 23.4355 100.363 1.65318 100.363C1.4565 100.363 1.18606 100.283 1.07543 100.428C0.964798 100.558 1.02626 100.93 1.02626 101.189C1.02626 102.241 1.02626 103.293 1.02626 104.346C1.02626 104.508 1.06313 104.572 1.19836 104.589C1.37045 104.605 1.54254 104.508 1.71464 104.718C1.80069 104.815 1.98508 104.767 2.08341 104.572C2.4399 104.864 2.79637 104.556 3.14056 104.556C11.5363 104.572 19.9321 104.572 28.3279 104.572C41.2227 104.572 54.1052 104.572 67 104.572C66.9877 103.164 66.9877 101.772 66.9877 100.363Z" fill="black"/>
<path d="M66.9844 52.6901C45.239 52.6901 23.5059 52.6901 1.76048 52.6901C0.998344 52.6901 0.998337 52.6577 1.01063 53.7099C1.02293 54.325 1.01064 54.9564 1.02293 55.5715C1.02293 55.6363 1.09668 55.7496 1.14585 55.7658C1.30566 55.7819 1.47775 55.782 1.63755 55.782C23.4198 55.782 45.2021 55.782 66.9844 55.782C66.9844 54.7459 66.9844 53.7261 66.9844 52.6901Z" fill="black"/>
<path d="M66.9844 39.2862C45.2513 39.2862 23.5059 39.2862 1.77277 39.2862C1.01064 39.2862 1.01064 39.2539 1.02293 40.3061C1.03522 40.8403 1.02293 41.3907 1.02293 41.9249C1.02293 42.2163 1.13356 42.3458 1.34253 42.362C1.49004 42.3781 1.62526 42.362 1.77277 42.362C23.5059 42.362 45.2513 42.362 66.9844 42.362C66.9844 41.3259 66.9844 40.3061 66.9844 39.2862Z" fill="black"/>
<path d="M66.9844 10.8441C45.6938 10.8441 24.4032 10.8441 3.11266 10.8441C2.8914 10.8441 2.63325 10.9898 2.42427 10.6984C2.3874 10.6498 2.23989 10.7146 2.14155 10.7308C2.03091 10.7632 1.92028 10.8279 1.80965 10.8279C1.55151 10.8603 1.29337 10.8765 1.03522 10.8927C1.03522 11.2326 1.02293 11.5887 1.02293 11.9287C1.02293 12.4629 1.02293 13.0133 1.02293 13.5475C1.02293 13.6122 1.10898 13.7256 1.15815 13.7256C1.31796 13.7417 1.49004 13.7417 1.64985 13.7417C23.4321 13.7417 45.2144 13.7417 66.9844 13.7417C66.9844 12.7705 66.9844 11.8154 66.9844 10.8441Z" fill="black"/>
<path d="M66.9844 20.3788C45.239 20.3788 23.5059 20.3788 1.76048 20.3788C0.998344 20.3788 0.998337 20.3464 1.01063 21.3986C1.02293 21.9652 1.01064 22.5318 1.02293 23.0983C1.02293 23.1631 1.09668 23.2764 1.14585 23.2926C1.30566 23.3088 1.47775 23.3088 1.63755 23.3088C23.4198 23.3088 45.2021 23.3088 66.9844 23.3088C66.9844 22.3051 66.9844 21.35 66.9844 20.3788Z" fill="black"/>
<path d="M66.9844 29.9134C45.2021 29.9134 23.4198 29.9134 1.63756 29.9134C1.44088 29.9134 1.15815 29.8487 1.05981 29.9782C0.961472 30.1238 1.01064 30.48 1.01064 30.739C1.01064 31.2246 1.01064 31.7103 1.01064 32.1959C1.01064 32.7301 1.05981 32.7949 1.45317 32.811C1.55151 32.811 1.66214 32.811 1.76048 32.811C23.5059 32.811 45.239 32.811 66.9844 32.811C66.9844 31.8398 66.9844 30.8847 66.9844 29.9134Z" fill="black"/>
<path d="M66.9877 62.3864C45.5005 62.3864 24.0009 62.3864 2.51366 62.3864C2.2801 62.3864 2.02197 62.5483 1.82528 62.2407C1.59173 62.3864 1.34588 62.4188 1.08773 62.4026C1.07544 62.4026 1.02627 62.4835 1.02627 62.5321C1.02627 62.9368 1.00169 63.3415 1.03856 63.7462C1.05085 63.8433 1.19836 63.989 1.2967 64.0052C1.4565 64.0538 1.6163 64.0214 1.7884 64.0214C23.5215 64.0214 45.2669 64.0214 67 64.0214C66.9877 63.471 66.9877 62.9368 66.9877 62.3864Z" fill="black"/>
<path d="M66.9844 64.9766C45.6323 64.9766 24.268 64.9766 2.91597 64.9766C2.63324 64.9766 2.32593 64.8633 2.03091 65.1061C1.93257 65.187 1.7113 64.9766 1.53921 64.9766C1.05981 64.9442 1.01064 65.009 1.01064 65.6241C1.01064 65.8669 0.998344 66.1098 1.01064 66.3526C1.02293 66.644 1.25648 66.8868 1.41628 66.7249C1.64984 66.4983 1.8834 66.5954 2.11696 66.5954C23.7394 66.5954 45.3619 66.5954 66.9844 66.5954C66.9844 66.0612 66.9844 65.5108 66.9844 64.9766Z" fill="black"/>
<path d="M66.9844 0.0143395C45.2021 0.0143395 23.4198 0.0143395 1.63756 0.0143395C1.44088 0.0143395 1.15815 -0.0504123 1.05981 0.0952793C0.961472 0.240971 1.02293 0.597106 1.02293 0.872301C1.02293 1.11512 0.973763 1.47126 1.05981 1.5522C1.19503 1.6817 1.44088 1.63314 1.63756 1.63314C23.4198 1.63314 45.2021 1.63314 66.9844 1.63314C66.9844 1.08274 66.9844 0.548542 66.9844 0.0143395Z" fill="black"/>
<path d="M66.9844 115.24C45.2021 115.24 23.4198 115.24 1.63756 115.24C1.44088 115.24 1.15815 115.175 1.05981 115.321C0.961472 115.467 1.02293 115.823 1.02293 116.098C1.02293 116.341 0.973763 116.697 1.05981 116.778C1.19503 116.908 1.44088 116.859 1.63756 116.859C23.4198 116.859 45.2021 116.859 66.9844 116.859C66.9844 116.309 66.9844 115.774 66.9844 115.24Z" fill="black"/>
<path d="M66.9844 36.5344C45.239 36.5344 23.5059 36.5344 1.76048 36.5344C0.986053 36.5344 0.998344 36.5183 1.01064 37.5543C1.01064 37.6838 0.998344 37.8295 1.01064 37.959C1.02293 38.0399 1.08439 38.137 1.13356 38.1532C1.29337 38.1694 1.46545 38.1694 1.62526 38.1694C23.4075 38.1694 45.1898 38.1694 66.9721 38.1694C66.9844 37.619 66.9844 37.0686 66.9844 36.5344Z" fill="black"/>
<path d="M66.9844 50.116C45.239 50.116 23.5059 50.116 1.76048 50.116C0.986053 50.116 0.998344 50.0998 1.01064 51.1358C1.01064 51.2653 0.998344 51.411 1.01064 51.5405C1.02293 51.6215 1.08439 51.7186 1.13356 51.7348C1.29337 51.751 1.46545 51.751 1.62526 51.751C23.4075 51.751 45.1898 51.751 66.9721 51.751C66.9844 51.1844 66.9844 50.6502 66.9844 50.116Z" fill="black"/>
<path d="M66.9844 74.5112C45.239 74.5112 23.5059 74.5112 1.76048 74.5112C0.986053 74.5112 0.998344 74.4951 1.01064 75.5311C1.01064 75.6606 0.998344 75.8063 1.01064 75.9358C1.02293 76.0167 1.08439 76.1139 1.13356 76.13C1.29337 76.1462 1.46545 76.1462 1.62526 76.1462C23.4075 76.1462 45.1898 76.1462 66.9721 76.1462C66.9844 75.5958 66.9844 75.0454 66.9844 74.5112Z" fill="black"/>
<path d="M66.9844 77.2633C45.2021 77.2633 23.4198 77.2633 1.63756 77.2633C1.44088 77.2633 1.15815 77.1985 1.05981 77.328C0.961472 77.4737 1.02293 77.8298 1.01064 78.0888C1.01064 78.2022 1.01064 78.2993 1.01064 78.4126C1.02293 78.7364 1.12127 78.8497 1.39171 78.8659C1.51463 78.8659 1.63756 78.8659 1.76048 78.8659C23.5059 78.8659 45.239 78.8659 66.9844 78.8659C66.9844 78.3317 66.9844 77.7975 66.9844 77.2633Z" fill="black"/>
<path d="M66.9844 84.0462C45.2021 84.0462 23.4198 84.0462 1.63756 84.0462C1.44088 84.0462 1.15815 83.9815 1.05981 84.111C0.961472 84.2567 1.02293 84.6128 1.01064 84.8718C1.01064 84.9851 1.01064 85.0822 1.01064 85.1956C1.02293 85.5193 1.12127 85.6326 1.39171 85.6488C1.51463 85.6488 1.63756 85.6488 1.76048 85.6488C23.5059 85.6488 45.239 85.6488 66.9844 85.6488C66.9844 85.1308 66.9844 84.5804 66.9844 84.0462Z" fill="black"/>
<path d="M66.9844 111.193C45.2021 111.193 23.4198 111.193 1.63756 111.193C1.44088 111.193 1.15815 111.128 1.05981 111.258C0.961472 111.404 1.02293 111.76 1.01064 112.019C1.01064 112.132 1.01064 112.229 1.01064 112.343C1.02293 112.666 1.12127 112.78 1.39171 112.796C1.51463 112.796 1.63756 112.796 1.76048 112.796C23.5059 112.796 45.239 112.796 66.9844 112.796C66.9844 112.278 66.9844 111.744 66.9844 111.193Z" fill="black"/>
<path d="M66.9844 117.992C45.2021 117.992 23.4198 117.992 1.63756 117.992C1.44088 117.992 1.15815 117.927 1.05981 118.057C0.961472 118.202 1.02293 118.559 1.01064 118.818C1.01064 118.931 1.01064 119.028 1.01064 119.141C1.02293 119.465 1.12127 119.578 1.39171 119.595C1.51463 119.595 1.63756 119.595 1.76048 119.595C23.5059 119.595 45.239 119.595 66.9844 119.595C66.9844 119.06 66.9844 118.526 66.9844 117.992Z" fill="black"/>
<path d="M66.9844 124.775C45.2021 124.775 23.4198 124.775 1.63756 124.775C1.44088 124.775 1.15815 124.71 1.05981 124.84C0.961472 124.985 1.02293 125.342 1.01064 125.601C1.01064 125.714 1.01064 125.811 1.01064 125.924C1.02293 126.248 1.12127 126.361 1.39171 126.378C1.51463 126.378 1.63756 126.378 1.76048 126.378C23.5059 126.378 45.239 126.378 66.9844 126.378C66.9844 125.843 66.9844 125.309 66.9844 124.775Z" fill="black"/>
<path d="M66.9844 127.365C45.239 127.365 23.5059 127.365 1.76048 127.365C0.986053 127.365 0.998344 127.349 1.01064 128.385C1.01064 128.514 0.998344 128.66 1.01064 128.79C1.02293 128.87 1.08439 128.968 1.13356 128.984C1.29337 129 1.46545 129 1.62526 129C23.4075 129 45.1898 129 66.9721 129C66.9844 128.433 66.9844 127.899 66.9844 127.365Z" fill="black"/>
<path d="M66.9844 16.3318C45.2513 16.3318 23.5059 16.3318 1.77276 16.3318C0.949165 16.3318 1.01063 16.3642 1.02293 17.3516C1.02293 17.8858 1.07209 17.9506 1.46545 17.9506C1.56379 17.9506 1.67442 17.9506 1.77276 17.9506C23.5059 17.9506 45.2513 17.9506 66.9844 17.9506C66.9844 17.4164 66.9844 16.866 66.9844 16.3318Z" fill="black"/>
<path d="M66.9844 2.7502C45.2021 2.7502 23.4321 2.7502 1.64984 2.7502C1.45316 2.7502 1.17043 2.66926 1.07209 2.81496C0.961464 2.94446 1.02293 3.31678 1.02293 3.57579C1.02293 3.70529 1.01064 3.85099 1.02293 3.98049C1.04752 4.27187 1.15814 4.32044 1.41628 4.25568C1.67442 4.20712 1.98174 4.0938 2.17841 4.2395C2.42426 4.41756 2.64553 4.35281 2.87909 4.35281C24.2434 4.369 45.62 4.369 66.9844 4.369C66.9844 3.8348 66.9844 3.30059 66.9844 2.7502Z" fill="black"/>
<path d="M66.9877 25.8666C45.2054 25.8666 23.4232 25.8666 1.64088 25.8666C1.44421 25.8666 1.16148 25.8019 1.06313 25.9476C0.964798 26.0933 1.02626 26.4494 1.02626 26.7246C1.02626 26.8055 1.02626 26.8865 1.02626 26.9674C1.00167 27.2264 1.02625 27.4045 1.2844 27.3397C1.40733 27.3074 1.53025 27.3397 1.65318 27.3397C23.4354 27.3397 45.2177 27.3397 67 27.3397C66.9877 26.8379 66.9877 26.3523 66.9877 25.8666Z" fill="black"/>
<path d="M66.9877 86.798C45.2054 86.798 23.4232 86.798 1.64088 86.798C1.44421 86.798 1.16148 86.7333 1.06313 86.879C0.964798 87.0247 1.02626 87.3808 1.02626 87.656C1.02626 87.7369 1.02626 87.8179 1.02626 87.8988C1.00167 88.1578 1.02625 88.3359 1.2844 88.2711C1.40733 88.2388 1.53025 88.2711 1.65318 88.2711C23.4354 88.2711 45.2177 88.2711 67 88.2711C66.9877 87.7693 66.9877 87.2837 66.9877 86.798Z" fill="black"/>
<path d="M66.9877 90.8288C45.2054 90.8288 23.4232 90.8288 1.64088 90.8288C1.44421 90.8288 1.16148 90.764 1.06313 90.9097C0.964798 91.0554 1.02626 91.4116 1.02626 91.6868C1.02626 91.7677 1.02626 91.8486 1.02626 91.9296C1.00167 92.1886 1.02625 92.3667 1.2844 92.3019C1.40733 92.2695 1.53025 92.3019 1.65318 92.3019C23.4354 92.3019 45.2177 92.3019 67 92.3019C66.9877 91.8001 66.9877 91.3144 66.9877 90.8288Z" fill="black"/>
<path d="M66.9877 96.3327C45.2054 96.3327 23.4232 96.3327 1.64088 96.3327C1.44421 96.3327 1.16148 96.2679 1.06313 96.4136C0.964798 96.5593 1.02626 96.9155 1.02626 97.1907C1.02626 97.2716 1.02626 97.3525 1.02626 97.4335C1.00167 97.6925 1.02625 97.8706 1.2844 97.8058C1.40733 97.7734 1.53025 97.8058 1.65318 97.8058C23.4354 97.8058 45.2177 97.8058 67 97.8058C66.9877 97.304 66.9877 96.8183 66.9877 96.3327Z" fill="black"/>
</svg>
