<svg width="266" height="295" viewBox="0 0 266 295" fill="none" xmlns="http://www.w3.org/2000/svg">
<path d="M217.539 35.7195L123.478 61.9181L148.085 80.7643L25.817 241.192L67.9999 273.5L190.268 113.072L218.39 134.611L217.539 35.7195Z" fill="#FEFFFF"/>
<path d="M57.9754 226.194C57.0165 225.61 56.0206 225.48 54.9877 225.806C53.96 226.124 53.0186 226.842 52.1635 227.958C51.5624 228.743 51.1652 229.507 50.9719 230.25C50.7786 230.993 50.7709 231.669 50.9488 232.277C51.1268 232.886 51.4737 233.393 51.9895 233.799C52.4225 234.131 52.8732 234.32 53.3415 234.368C53.815 234.408 54.2955 234.341 54.7831 234.167C55.2639 233.988 55.7394 233.746 56.2095 233.44C56.6797 233.135 57.1287 232.808 57.5567 232.459L59.5364 230.884C60.3202 230.239 61.145 229.673 62.0107 229.188C62.8816 228.696 63.7742 228.343 64.6883 228.131C65.6076 227.912 66.5317 227.889 67.4607 228.064C68.3897 228.239 69.3041 228.671 70.204 229.36C71.4219 230.293 72.256 231.426 72.7062 232.758C73.1496 234.085 73.181 235.537 72.8003 237.113C72.418 238.678 71.5894 240.292 70.3146 241.957C69.076 243.574 67.7504 244.786 66.3376 245.593C64.93 246.394 63.4893 246.761 62.0155 246.695C60.5468 246.623 59.1016 246.085 57.6798 245.082L60.5171 241.377C61.2826 241.877 62.0558 242.115 62.8367 242.091C63.6177 242.066 64.3676 241.83 65.0863 241.382C65.8103 240.928 66.4728 240.308 67.0739 239.523C67.701 238.704 68.1285 237.894 68.3565 237.092C68.5829 236.277 68.611 235.526 68.4406 234.837C68.2636 234.143 67.8799 233.565 67.2896 233.102C66.7432 232.694 66.1748 232.511 65.5846 232.553C64.9876 232.59 64.3556 232.798 63.6887 233.178C63.0202 233.547 62.3062 234.03 61.5467 234.629L59.1265 236.528C57.3756 237.903 55.6727 238.746 54.0178 239.056C52.3613 239.355 50.7887 238.934 49.3002 237.794C48.0755 236.856 47.257 235.703 46.8446 234.335C46.4375 232.961 46.4206 231.504 46.7941 229.965C47.1609 228.421 47.9013 226.921 49.0155 225.467C50.1452 223.992 51.3922 222.896 52.7563 222.18C54.1188 221.453 55.497 221.118 56.8908 221.176C58.2778 221.23 59.5644 221.694 60.7505 222.571L57.9754 226.194ZM83.4201 224.824C82.2231 226.387 80.8644 227.488 79.3443 228.128C77.8225 228.755 76.2296 228.914 74.5656 228.606C72.8948 228.293 71.2441 227.511 69.6134 226.263C68.0099 225.034 66.8357 223.652 66.0909 222.115C65.3446 220.567 65.0555 218.982 65.2236 217.361C65.3849 215.735 66.0356 214.177 67.1757 212.689C67.9115 211.728 68.7616 210.94 69.7258 210.326C70.6884 209.7 71.7424 209.305 72.8879 209.141C74.0386 208.97 75.2563 209.076 76.5411 209.459C77.8192 209.837 79.1416 210.549 80.5084 211.596L81.635 212.459L71.8484 225.237L69.3719 223.34L76.4612 214.084C75.7523 213.552 75.0099 213.225 74.2338 213.103C73.4509 212.975 72.6958 213.057 71.9684 213.348C71.2462 213.632 70.6156 214.126 70.0766 214.83C69.5014 215.581 69.1788 216.381 69.1089 217.229C69.0322 218.072 69.1664 218.878 69.5115 219.647C69.855 220.404 70.3726 221.052 71.0644 221.593L73.2262 223.249C74.1328 223.943 75.0379 224.373 75.9414 224.539C76.8381 224.7 77.687 224.615 78.4881 224.284C79.2825 223.947 79.9854 223.38 80.5969 222.582C81.0063 222.047 81.3024 221.506 81.4852 220.959C81.6613 220.407 81.7222 219.858 81.668 219.312C81.6139 218.766 81.4291 218.243 81.1137 217.744L84.1267 214.609C84.8676 215.52 85.3431 216.539 85.5533 217.666C85.762 218.781 85.6922 219.952 85.344 221.177C84.9891 222.397 84.3478 223.613 83.4201 224.824ZM95.6614 208.842C94.4694 210.398 93.1043 211.472 91.5658 212.065C90.0325 212.652 88.4331 212.785 86.7675 212.464C85.1003 212.132 83.4785 211.362 81.9019 210.155C80.3186 208.942 79.1546 207.568 78.4099 206.031C77.6584 204.489 77.3692 202.905 77.5425 201.277C77.7142 199.637 78.383 198.056 79.549 196.533C80.5181 195.268 81.6092 194.327 82.8223 193.71C84.0338 193.082 85.2853 192.8 86.5767 192.866C87.8614 192.927 89.0964 193.347 90.2818 194.126L87.5922 197.637C86.7324 197.204 85.8474 197.063 84.9373 197.214C84.0256 197.353 83.2303 197.866 82.5515 198.752C81.9762 199.503 81.674 200.319 81.6446 201.198C81.6085 202.072 81.8442 202.956 82.3517 203.849C82.8644 204.735 83.6451 205.58 84.6938 206.384C85.7561 207.197 86.7888 207.741 87.7917 208.015C88.7879 208.285 89.7075 208.296 90.5503 208.051C91.3916 207.794 92.105 207.283 92.6906 206.518C93.1052 205.977 93.3742 205.415 93.4977 204.833C93.6196 204.24 93.5958 203.647 93.4262 203.056C93.2566 202.464 92.9324 201.899 92.4538 201.361L95.1433 197.849C96.1789 198.782 96.9078 199.855 97.3302 201.07C97.7459 202.279 97.8234 203.552 97.5627 204.887C97.2953 206.218 96.6615 207.536 95.6614 208.842ZM102.126 199.771L86.5363 187.831L89.2648 184.268L91.863 186.258L91.9874 186.096C91.3051 185.123 90.9847 184.104 91.0261 183.041C91.0659 181.966 91.4279 180.982 92.1119 180.088C92.2674 179.885 92.4512 179.667 92.6632 179.432C92.8737 179.185 93.0606 178.99 93.224 178.847L96.6037 181.435C96.4304 181.549 96.1938 181.76 95.8941 182.067C95.5928 182.363 95.323 182.666 95.0846 182.977C94.5716 183.647 94.2558 184.361 94.1374 185.118C94.0174 185.863 94.0945 186.583 94.3687 187.276C94.643 187.969 95.1117 188.569 95.7748 189.077L104.94 196.097L102.126 199.771ZM115.375 183.102C114.178 184.665 112.819 185.767 111.299 186.406C109.777 187.033 108.184 187.193 106.52 186.884C104.849 186.571 103.199 185.79 101.568 184.541C99.9645 183.313 98.7904 181.93 98.0456 180.394C97.2993 178.845 97.0101 177.26 97.1782 175.639C97.3395 174.013 97.9902 172.455 99.1303 170.967C99.8662 170.006 100.716 169.219 101.68 168.604C102.643 167.978 103.697 167.583 104.843 167.419C105.993 167.248 107.211 167.354 108.496 167.737C109.774 168.115 111.096 168.827 112.463 169.874L113.59 170.737L103.803 183.515L101.327 181.618L108.416 172.362C107.707 171.83 106.965 171.503 106.188 171.381C105.406 171.254 104.65 171.335 103.923 171.626C103.201 171.911 102.57 172.404 102.031 173.108C101.456 173.859 101.133 174.659 101.064 175.507C100.987 176.35 101.121 177.156 101.466 177.925C101.81 178.682 102.327 179.331 103.019 179.871L105.181 181.527C106.088 182.221 106.993 182.651 107.896 182.817C108.793 182.978 109.642 182.893 110.443 182.562C111.237 182.225 111.94 181.658 112.552 180.86C112.961 180.325 113.257 179.784 113.44 179.237C113.616 178.685 113.677 178.136 113.623 177.59C113.569 177.044 113.384 176.521 113.068 176.022L116.081 172.887C116.822 173.798 117.298 174.817 117.508 175.944C117.717 177.059 117.647 178.23 117.299 179.455C116.944 180.676 116.302 181.891 115.375 183.102ZM112.476 153.962L115.318 156.139L108.454 165.101L105.612 162.924L112.476 153.962ZM103.572 157.851L106.386 154.177L121.021 165.386C121.515 165.764 121.951 165.98 122.329 166.033C122.705 166.075 123.037 166.006 123.323 165.829C123.61 165.651 123.869 165.41 124.103 165.105C124.279 164.875 124.423 164.652 124.534 164.437C124.65 164.215 124.734 164.043 124.785 163.92L128.131 165.501C128.048 165.749 127.908 166.087 127.709 166.515C127.516 166.935 127.226 167.411 126.841 167.943C126.163 168.884 125.389 169.606 124.52 170.111C123.644 170.61 122.715 170.827 121.734 170.763C120.758 170.692 119.785 170.279 118.816 169.526L103.572 157.851ZM134.66 157.292L113.874 141.373L119.968 133.416C121.119 131.914 122.311 130.847 123.547 130.215C124.781 129.571 125.993 129.313 127.183 129.441C128.378 129.562 129.49 130.016 130.519 130.804C131.365 131.452 131.964 132.169 132.318 132.955C132.664 133.736 132.814 134.543 132.766 135.376C132.719 136.209 132.517 137.026 132.161 137.827L132.364 137.982C132.97 137.276 133.738 136.742 134.669 136.382C135.598 136.009 136.601 135.892 137.677 136.029C138.753 136.166 139.818 136.638 140.874 137.447C141.95 138.271 142.718 139.272 143.178 140.451C143.632 141.625 143.704 142.926 143.394 144.353C143.085 145.78 142.322 147.289 141.104 148.879L134.66 157.292ZM134.397 151.117L137.499 147.068C138.546 145.701 139.039 144.517 138.979 143.516C138.918 142.503 138.475 141.68 137.649 141.048C137.033 140.576 136.362 140.303 135.635 140.23C134.901 140.151 134.177 140.283 133.462 140.627C132.741 140.966 132.083 141.524 131.487 142.302L128.308 146.453L134.397 151.117ZM125.598 144.378L128.451 140.653C128.948 140.003 129.278 139.328 129.44 138.625C129.596 137.918 129.567 137.247 129.356 136.612C129.142 135.965 128.731 135.409 128.122 134.943C127.317 134.326 126.436 134.102 125.48 134.272C124.529 134.434 123.628 135.07 122.778 136.18L119.863 139.986L125.598 144.378ZM149.319 124.571L140.286 117.652L143.1 113.978L158.689 125.918L155.961 129.481L153.19 127.358L153.065 127.521C153.669 128.541 153.94 129.666 153.878 130.897C153.821 132.12 153.344 133.317 152.448 134.487C151.665 135.509 150.747 136.239 149.692 136.676C148.636 137.102 147.504 137.201 146.294 136.972C145.077 136.738 143.847 136.144 142.602 135.191L132.676 127.589L135.49 123.915L144.847 131.082C145.835 131.838 146.827 132.169 147.824 132.073C148.82 131.977 149.655 131.49 150.329 130.61C150.744 130.069 151.013 129.443 151.138 128.734C151.263 128.024 151.189 127.308 150.917 126.584C150.643 125.848 150.11 125.177 149.319 124.571ZM151.299 103.273L154.141 105.45L147.277 114.412L144.435 112.235L151.299 103.273ZM142.395 107.162L145.209 103.488L159.844 114.697C160.338 115.075 160.774 115.291 161.152 115.344C161.528 115.386 161.859 115.317 162.146 115.14C162.432 114.962 162.692 114.721 162.925 114.416C163.101 114.186 163.245 113.963 163.356 113.748C163.473 113.526 163.556 113.354 163.607 113.232L166.954 114.812C166.871 115.06 166.73 115.398 166.532 115.826C166.338 116.246 166.049 116.723 165.663 117.254C164.985 118.195 164.212 118.917 163.343 119.422C162.466 119.921 161.538 120.138 160.557 120.074C159.581 120.003 158.608 119.59 157.639 118.837L142.395 107.162ZM158.958 93.2734L161.799 95.4499L154.936 104.412L152.094 102.235L158.958 93.2734ZM150.053 97.1621L152.867 93.488L167.503 104.697C167.997 105.075 168.432 105.291 168.81 105.345C169.187 105.386 169.518 105.318 169.805 105.14C170.091 104.962 170.351 104.721 170.584 104.416C170.76 104.186 170.904 103.964 171.015 103.748C171.132 103.526 171.215 103.354 171.266 103.232L174.612 104.812C174.53 105.06 174.389 105.398 174.19 105.826C173.997 106.247 173.708 106.723 173.322 107.254C172.644 108.195 171.871 108.918 171.001 109.422C170.125 109.921 169.197 110.138 168.215 110.074C167.239 110.003 166.267 109.591 165.298 108.838L150.053 97.1621ZM181.628 96.5986C180.462 98.121 179.117 99.1839 177.592 99.7872C176.067 100.391 174.466 100.539 172.79 100.232C171.119 99.9188 169.479 99.1453 167.869 97.912C166.258 96.6786 165.081 95.2936 164.336 93.7571C163.596 92.2137 163.319 90.6273 163.504 88.9979C163.69 87.3684 164.365 85.7925 165.531 84.2701C166.697 82.7477 168.043 81.6848 169.568 81.0814C171.092 80.478 172.694 80.3357 174.371 80.6543C176.054 80.9662 177.701 81.7388 179.311 82.9722C180.921 84.2056 182.093 85.5913 182.826 87.1295C183.564 88.6609 183.84 90.2413 183.655 91.8708C183.47 93.5002 182.794 95.0762 181.628 96.5986ZM178.7 94.324C179.332 93.4985 179.634 92.6348 179.606 91.7327C179.571 90.8255 179.271 89.9412 178.707 89.0798C178.148 88.2116 177.395 87.4147 176.448 86.6892C175.494 85.9585 174.525 85.4365 173.541 85.1232C172.556 84.7978 171.621 84.7364 170.735 84.9388C169.85 85.1413 169.092 85.6552 168.46 86.4807C167.812 87.3265 167.503 88.2064 167.533 89.1204C167.568 90.0276 167.868 90.9179 168.434 91.7912C168.998 92.6527 169.757 93.4487 170.711 94.1794C171.658 94.9049 172.621 95.4277 173.6 95.7479C174.584 96.0612 175.518 96.1167 176.403 95.9142C177.287 95.6999 178.052 95.1698 178.7 94.324ZM182.456 75.9645L191.59 82.9605L188.776 86.6345L173.187 74.6947L175.877 71.183L178.526 73.2119L178.665 73.0292C178.067 72.0021 177.812 70.8991 177.899 69.7204C177.991 68.5349 178.482 67.3603 179.374 66.1965C180.198 65.1207 181.145 64.3597 182.217 63.9137C183.294 63.4609 184.437 63.3489 185.647 63.5776C186.862 63.7995 188.089 64.3906 189.329 65.3509L199.255 72.9532L196.441 76.6273L187.083 69.4603C186.041 68.6622 185.019 68.3084 184.015 68.3989C183.017 68.4825 182.155 68.998 181.43 69.9453C180.938 70.5881 180.642 71.2686 180.543 71.987C180.442 72.6934 180.546 73.3908 180.856 74.0792C181.172 74.7608 181.705 75.3892 182.456 75.9645Z" fill="black"/>
<path d="M164.472 174.471C163.767 173.931 163.191 173.342 162.744 172.704C162.295 172.062 161.962 171.364 161.744 170.61L162.48 169.648C162.557 169.934 162.683 170.242 162.859 170.573C163.033 170.903 163.245 171.237 163.496 171.576C163.746 171.911 164.023 172.236 164.327 172.552C164.632 172.866 164.952 173.151 165.286 173.408C165.732 173.749 166.217 174.05 166.741 174.312C167.267 174.571 167.783 174.774 168.288 174.92C168.797 175.065 169.249 175.137 169.644 175.135L168.908 176.096C168.122 176.082 167.363 175.943 166.628 175.679C165.894 175.412 165.175 175.009 164.472 174.471ZM167.087 170.677L169.624 172.62L168.843 173.641L164.512 170.324L165.259 169.349L165.995 169.912L166.034 169.862C165.868 169.576 165.797 169.27 165.821 168.943C165.847 168.613 165.983 168.287 166.231 167.964C166.46 167.665 166.723 167.454 167.021 167.33C167.32 167.204 167.637 167.173 167.973 167.236C168.311 167.298 168.652 167.462 168.996 167.729L171.753 169.841L170.972 170.861L168.372 168.87C168.083 168.649 167.799 168.55 167.52 168.576C167.243 168.599 167.003 168.742 166.802 169.005C166.665 169.184 166.583 169.373 166.555 169.572C166.527 169.768 166.556 169.962 166.643 170.153C166.73 170.343 166.878 170.517 167.087 170.677ZM173.897 167.217C173.573 167.64 173.199 167.935 172.775 168.103C172.352 168.271 171.907 168.312 171.442 168.227C170.978 168.139 170.522 167.925 170.075 167.582C169.627 167.239 169.3 166.855 169.093 166.428C168.888 165.999 168.811 165.559 168.862 165.106C168.914 164.653 169.101 164.216 169.425 163.793C169.749 163.37 170.123 163.075 170.547 162.907C170.97 162.739 171.415 162.7 171.881 162.788C172.348 162.875 172.806 163.09 173.253 163.432C173.7 163.775 174.026 164.16 174.229 164.587C174.434 165.012 174.511 165.451 174.46 165.904C174.408 166.357 174.221 166.794 173.897 167.217ZM173.083 166.585C173.259 166.356 173.343 166.116 173.335 165.866C173.325 165.614 173.242 165.368 173.085 165.129C172.93 164.888 172.721 164.666 172.458 164.465C172.193 164.262 171.924 164.117 171.65 164.03C171.377 163.939 171.117 163.922 170.871 163.978C170.625 164.035 170.414 164.177 170.239 164.407C170.059 164.642 169.973 164.886 169.981 165.14C169.991 165.392 170.075 165.639 170.232 165.882C170.388 166.121 170.599 166.342 170.864 166.545C171.127 166.747 171.395 166.892 171.667 166.981C171.94 167.068 172.2 167.083 172.445 167.027C172.691 166.968 172.904 166.82 173.083 166.585ZM173.208 158.97L173.998 159.575L172.091 162.064L171.302 161.46L173.208 158.97ZM170.735 160.051L171.516 159.03L175.582 162.144C175.719 162.249 175.84 162.309 175.945 162.324C176.05 162.335 176.142 162.316 176.221 162.267C176.301 162.217 176.373 162.15 176.438 162.066C176.487 162.002 176.527 161.94 176.557 161.88C176.59 161.818 176.613 161.771 176.627 161.737L177.557 162.176C177.534 162.245 177.495 162.338 177.439 162.457C177.386 162.574 177.305 162.706 177.198 162.854C177.01 163.115 176.795 163.316 176.554 163.456C176.31 163.595 176.052 163.655 175.78 163.637C175.509 163.617 175.238 163.503 174.969 163.294L170.735 160.051ZM179.336 159.941L175.005 156.624L175.763 155.634L176.485 156.187L176.519 156.142C176.33 155.872 176.241 155.589 176.252 155.293C176.263 154.995 176.364 154.721 176.554 154.473C176.597 154.417 176.648 154.356 176.707 154.291C176.766 154.222 176.818 154.168 176.863 154.128L177.802 154.847C177.754 154.879 177.688 154.938 177.605 155.023C177.521 155.105 177.446 155.189 177.38 155.276C177.237 155.462 177.15 155.66 177.117 155.87C177.083 156.077 177.105 156.277 177.181 156.47C177.257 156.662 177.387 156.829 177.572 156.97L180.117 158.92L179.336 159.941ZM183.016 155.311C182.683 155.745 182.306 156.051 181.884 156.228C181.461 156.402 181.019 156.447 180.556 156.361C180.092 156.274 179.634 156.057 179.181 155.71C178.735 155.369 178.409 154.985 178.202 154.558C177.995 154.128 177.915 153.688 177.961 153.237C178.006 152.786 178.187 152.353 178.504 151.94C178.708 151.673 178.944 151.454 179.212 151.283C179.479 151.109 179.772 151 180.09 150.954C180.41 150.907 180.748 150.936 181.105 151.043C181.46 151.147 181.827 151.345 182.207 151.636L182.52 151.876L179.802 155.425L179.114 154.898L181.083 152.327C180.886 152.179 180.68 152.088 180.464 152.055C180.247 152.019 180.037 152.042 179.835 152.123C179.634 152.202 179.459 152.339 179.309 152.534C179.15 152.743 179.06 152.965 179.041 153.201C179.019 153.435 179.057 153.659 179.152 153.872C179.248 154.083 179.392 154.263 179.584 154.413L180.184 154.873C180.436 155.066 180.688 155.185 180.939 155.231C181.188 155.276 181.423 155.252 181.646 155.16C181.867 155.067 182.062 154.909 182.232 154.688C182.345 154.539 182.428 154.389 182.478 154.237C182.527 154.084 182.544 153.931 182.529 153.779C182.514 153.628 182.463 153.482 182.375 153.344L183.212 152.473C183.418 152.726 183.55 153.009 183.609 153.322C183.666 153.632 183.647 153.957 183.55 154.297C183.452 154.636 183.274 154.974 183.016 155.311ZM185.927 151.516C185.717 151.79 185.478 152 185.212 152.145C184.946 152.287 184.667 152.347 184.375 152.327C184.085 152.305 183.798 152.185 183.514 151.967C183.27 151.78 183.103 151.58 183.012 151.368C182.921 151.155 182.888 150.934 182.911 150.705C182.935 150.475 182.997 150.244 183.098 150.011C183.199 149.775 183.318 149.543 183.457 149.315C183.625 149.042 183.759 148.818 183.859 148.644C183.957 148.469 184.011 148.328 184.021 148.222C184.03 148.113 183.986 148.021 183.888 147.946L183.871 147.933C183.659 147.77 183.446 147.707 183.233 147.744C183.02 147.781 182.823 147.918 182.642 148.154C182.45 148.404 182.353 148.644 182.35 148.874C182.348 149.103 182.402 149.299 182.511 149.464L181.646 150.313C181.441 150.036 181.316 149.744 181.271 149.435C181.225 149.126 181.254 148.812 181.357 148.494C181.458 148.175 181.625 147.865 181.856 147.562C182.016 147.353 182.2 147.164 182.407 146.995C182.614 146.826 182.84 146.699 183.083 146.614C183.325 146.528 183.582 146.507 183.853 146.55C184.125 146.592 184.405 146.723 184.692 146.943L187.591 149.163L186.839 150.144L186.244 149.688L186.218 149.722C186.291 149.876 186.337 150.05 186.356 150.243C186.374 150.433 186.351 150.637 186.285 150.855C186.219 151.07 186.1 151.29 185.927 151.516ZM185.38 150.676C185.537 150.472 185.632 150.263 185.667 150.051C185.699 149.837 185.679 149.638 185.605 149.454C185.533 149.267 185.417 149.113 185.258 148.991L184.747 148.6C184.749 148.652 184.732 148.725 184.695 148.819C184.66 148.912 184.615 149.011 184.56 149.118C184.505 149.225 184.449 149.33 184.392 149.432C184.334 149.534 184.284 149.623 184.242 149.698C184.146 149.866 184.075 150.028 184.03 150.184C183.985 150.34 183.978 150.486 184.01 150.62C184.039 150.753 184.12 150.87 184.251 150.971C184.439 151.114 184.634 151.155 184.834 151.091C185.035 151.027 185.217 150.889 185.38 150.676ZM183.202 142.932L188.976 147.354L188.194 148.374L182.42 143.952L183.202 142.932ZM184.605 141.1L190.379 145.522L189.597 146.543L183.823 142.12L184.605 141.1ZM193.11 145.32C193.003 145.459 192.893 145.579 192.78 145.68C192.67 145.781 192.575 145.855 192.493 145.903L191.88 145.058C192.036 144.942 192.159 144.826 192.246 144.708C192.333 144.59 192.375 144.459 192.371 144.316C192.371 144.173 192.313 144.007 192.197 143.82L192.03 143.553L186.406 141.738L187.236 140.655L191.27 142.162L191.305 142.117L188.801 138.612L189.642 137.525L193.159 142.978C193.327 143.235 193.441 143.492 193.502 143.751C193.565 144.011 193.566 144.271 193.504 144.531C193.446 144.79 193.314 145.053 193.11 145.32ZM193.368 136.743C194.071 137.281 194.646 137.871 195.094 138.512C195.542 139.15 195.875 139.847 196.093 140.601L195.357 141.563C195.282 141.276 195.157 140.968 194.981 140.64C194.808 140.31 194.595 139.977 194.342 139.64C194.091 139.302 193.813 138.976 193.508 138.662C193.205 138.346 192.887 138.06 192.554 137.806C192.108 137.464 191.623 137.164 191.097 136.904C190.573 136.643 190.056 136.44 189.547 136.294C189.039 136.147 188.588 136.074 188.193 136.076L188.93 135.115C189.715 135.129 190.475 135.27 191.209 135.537C191.944 135.801 192.663 136.203 193.368 136.743Z" fill="#FEFFFF"/>
</svg>
