<svg width="1920" height="1080" viewBox="0 0 1920 1080" fill="none" xmlns="http://www.w3.org/2000/svg">
<g clip-path="url(#clip0_2011_3285)">
<line x1="295.345" y1="97" x2="295.345" y2="236.608" stroke="#CDCDCD" stroke-width="1.08223"/>
<line x1="364.608" y1="167.345" x2="225" y2="167.345" stroke="#CDCDCD" stroke-width="1.08223"/>
<line x1="295.345" y1="395.696" x2="295.345" y2="535.304" stroke="#CDCDCD" stroke-width="1.08223"/>
<line x1="364.608" y1="466.041" x2="225" y2="466.041" stroke="#CDCDCD" stroke-width="1.08223"/>
<line x1="295.345" y1="723.392" x2="295.345" y2="863" stroke="#CDCDCD" stroke-width="1.08223"/>
<line x1="364.608" y1="793.737" x2="225" y2="793.737" stroke="#CDCDCD" stroke-width="1.08223"/>
<line x1="631.952" y1="97" x2="631.952" y2="236.608" stroke="#CDCDCD" stroke-width="1.08223"/>
<line x1="701.216" y1="167.345" x2="561.608" y2="167.345" stroke="#CDCDCD" stroke-width="1.08223"/>
<line x1="631.953" y1="395.696" x2="631.953" y2="535.304" stroke="#CDCDCD" stroke-width="1.08223"/>
<line x1="701.217" y1="466.042" x2="561.609" y2="466.042" stroke="#CDCDCD" stroke-width="1.08223"/>
<line x1="631.952" y1="723.392" x2="631.952" y2="863" stroke="#CDCDCD" stroke-width="1.08223"/>
<line x1="701.216" y1="793.737" x2="561.608" y2="793.737" stroke="#CDCDCD" stroke-width="1.08223"/>
<line x1="968.562" y1="97" x2="968.562" y2="236.608" stroke="#CDCDCD" stroke-width="1.08223"/>
<line x1="1037.83" y1="167.345" x2="898.217" y2="167.345" stroke="#CDCDCD" stroke-width="1.08223"/>
<line x1="968.562" y1="395.696" x2="968.562" y2="535.304" stroke="#CDCDCD" stroke-width="1.08223"/>
<line x1="1037.83" y1="466.042" x2="898.217" y2="466.042" stroke="#CDCDCD" stroke-width="1.08223"/>
<line x1="968.562" y1="723.392" x2="968.562" y2="863" stroke="#CDCDCD" stroke-width="1.08223"/>
<line x1="1037.83" y1="793.737" x2="898.217" y2="793.737" stroke="#CDCDCD" stroke-width="1.08223"/>
<line x1="1305.17" y1="97" x2="1305.17" y2="236.608" stroke="#CDCDCD" stroke-width="1.08223"/>
<line x1="1374.43" y1="167.345" x2="1234.82" y2="167.345" stroke="#CDCDCD" stroke-width="1.08223"/>
<line x1="1305.17" y1="395.696" x2="1305.17" y2="535.304" stroke="#CDCDCD" stroke-width="1.08223"/>
<line x1="1374.43" y1="466.042" x2="1234.82" y2="466.042" stroke="#CDCDCD" stroke-width="1.08223"/>
<line x1="1305.17" y1="723.392" x2="1305.17" y2="863" stroke="#CDCDCD" stroke-width="1.08223"/>
<line x1="1374.43" y1="793.737" x2="1234.82" y2="793.737" stroke="#CDCDCD" stroke-width="1.08223"/>
<line x1="1641.78" y1="97" x2="1641.78" y2="236.608" stroke="#CDCDCD" stroke-width="1.08223"/>
<line x1="1711.04" y1="167.345" x2="1571.43" y2="167.345" stroke="#CDCDCD" stroke-width="1.08223"/>
<line x1="1641.78" y1="395.696" x2="1641.78" y2="535.304" stroke="#CDCDCD" stroke-width="1.08223"/>
<line x1="1711.04" y1="466.042" x2="1571.43" y2="466.042" stroke="#CDCDCD" stroke-width="1.08223"/>
<line x1="1641.78" y1="723.392" x2="1641.78" y2="863" stroke="#CDCDCD" stroke-width="1.08223"/>
<line x1="1711.04" y1="793.737" x2="1571.43" y2="793.737" stroke="#CDCDCD" stroke-width="1.08223"/>
</g>
<defs>
<clipPath id="clip0_2011_3285">
<rect width="1920" height="1080" fill="white"/>
</clipPath>
</defs>
</svg>
