<svg width="375" height="778" viewBox="0 0 375 778" fill="none" xmlns="http://www.w3.org/2000/svg">
<line x1="65.8125" y1="133" x2="65.8125" y2="199.011" stroke="#EAEAEA"/>
<line x1="99.623" y1="166.505" x2="31.0028" y2="166.505" stroke="#EAEAEA"/>
<line x1="65.8125" y1="493.741" x2="65.8125" y2="559.753" stroke="#EAEAEA"/>
<line x1="99.623" y1="527.247" x2="31.0028" y2="527.247" stroke="#EAEAEA"/>
<line x1="65.8125" y1="253.247" x2="65.8125" y2="319.259" stroke="#EAEAEA"/>
<line x1="99.623" y1="286.753" x2="31.0028" y2="286.753" stroke="#EAEAEA"/>
<line x1="65.8125" y1="373.494" x2="65.8125" y2="439.505" stroke="#EAEAEA"/>
<line x1="99.623" y1="407" x2="31.0028" y2="407" stroke="#EAEAEA"/>
<line x1="188.434" y1="133" x2="188.434" y2="199.011" stroke="#EAEAEA"/>
<line x1="222.244" y1="166.505" x2="153.624" y2="166.505" stroke="#EAEAEA"/>
<line x1="188.434" y1="493.741" x2="188.434" y2="559.753" stroke="#EAEAEA"/>
<line x1="222.244" y1="527.247" x2="153.624" y2="527.247" stroke="#EAEAEA"/>
<line x1="188.434" y1="253.247" x2="188.434" y2="319.259" stroke="#EAEAEA"/>
<line x1="222.244" y1="286.753" x2="153.624" y2="286.753" stroke="#EAEAEA"/>
<line x1="188.434" y1="373.494" x2="188.434" y2="439.505" stroke="#EAEAEA"/>
<line x1="222.244" y1="407" x2="153.624" y2="407" stroke="#EAEAEA"/>
<line x1="311.055" y1="133" x2="311.055" y2="199.011" stroke="#EAEAEA"/>
<line x1="344.865" y1="166.505" x2="276.245" y2="166.505" stroke="#EAEAEA"/>
<line x1="311.055" y1="493.741" x2="311.055" y2="559.753" stroke="#EAEAEA"/>
<line x1="344.865" y1="527.247" x2="276.245" y2="527.247" stroke="#EAEAEA"/>
<line x1="65.8125" y1="613.989" x2="65.8125" y2="680" stroke="#EAEAEA"/>
<line x1="99.623" y1="647.494" x2="31.0028" y2="647.494" stroke="#EAEAEA"/>
<line x1="188.434" y1="613.989" x2="188.434" y2="680" stroke="#EAEAEA"/>
<line x1="222.244" y1="647.494" x2="153.624" y2="647.494" stroke="#EAEAEA"/>
<line x1="311.055" y1="613.989" x2="311.055" y2="680" stroke="#EAEAEA"/>
<line x1="344.865" y1="647.494" x2="276.245" y2="647.494" stroke="#EAEAEA"/>
<line x1="311.055" y1="253.247" x2="311.055" y2="319.259" stroke="#EAEAEA"/>
<line x1="344.865" y1="286.753" x2="276.245" y2="286.753" stroke="#EAEAEA"/>
<line x1="311.055" y1="373.494" x2="311.055" y2="439.505" stroke="#EAEAEA"/>
<line x1="344.865" y1="407" x2="276.245" y2="407" stroke="#EAEAEA"/>
</svg>
