<svg width="1920" height="1080" viewBox="0 0 1920 1080" fill="none" xmlns="http://www.w3.org/2000/svg">
<g clip-path="url(#clip0_1267_958)">
<line x1="39.6084" y1="256.345" x2="-99.9995" y2="256.345" stroke="#373737" stroke-width="1.08223"/>
<line x1="39.6084" y1="555.041" x2="-99.9995" y2="555.041" stroke="#373737" stroke-width="1.08223"/>
<line x1="39.6084" y1="882.737" x2="-99.9995" y2="882.737" stroke="#373737" stroke-width="1.08223"/>
<line x1="200.949" y1="186" x2="200.949" y2="325.608" stroke="#373737" stroke-width="1.08223"/>
<line x1="270.217" y1="256.345" x2="130.609" y2="256.345" stroke="#373737" stroke-width="1.08223"/>
<line x1="200.949" y1="484.696" x2="200.949" y2="624.304" stroke="#373737" stroke-width="1.08223"/>
<line x1="270.217" y1="555.041" x2="130.609" y2="555.041" stroke="#373737" stroke-width="1.08223"/>
<line x1="200.949" y1="812.393" x2="200.949" y2="952" stroke="#373737" stroke-width="1.08223"/>
<line x1="270.217" y1="882.737" x2="130.609" y2="882.737" stroke="#373737" stroke-width="1.08223"/>
<line x1="1719.34" y1="186" x2="1719.34" y2="325.608" stroke="#373737" stroke-width="1.08223"/>
<line x1="1788.61" y1="256.345" x2="1649" y2="256.345" stroke="#373737" stroke-width="1.08223"/>
<line x1="1719.34" y1="484.696" x2="1719.34" y2="624.304" stroke="#373737" stroke-width="1.08223"/>
<line x1="1788.61" y1="555.041" x2="1649" y2="555.041" stroke="#373737" stroke-width="1.08223"/>
<line x1="1719.34" y1="812.393" x2="1719.34" y2="952" stroke="#373737" stroke-width="1.08223"/>
<line x1="1788.61" y1="882.737" x2="1649" y2="882.737" stroke="#373737" stroke-width="1.08223"/>
<line x1="2019.22" y1="256.345" x2="1879.61" y2="256.345" stroke="#373737" stroke-width="1.08223"/>
<line x1="2019.22" y1="555.041" x2="1879.61" y2="555.041" stroke="#373737" stroke-width="1.08223"/>
<line x1="2019.22" y1="882.737" x2="1879.61" y2="882.737" stroke="#373737" stroke-width="1.08223"/>
</g>
<defs>
<clipPath id="clip0_1267_958">
<rect width="1920" height="1080" fill="white"/>
</clipPath>
</defs>
</svg>
