<svg width="1920" height="1080" viewBox="0 0 1920 1080" fill="none" xmlns="http://www.w3.org/2000/svg">
<g clip-path="url(#clip0_1267_958)">
<line x1="35.6074" y1="256.345" x2="-104.001" y2="256.345" stroke="#EAEAEA" stroke-width="1.08223"/>
<line x1="35.6074" y1="555.041" x2="-104.001" y2="555.041" stroke="#EAEAEA" stroke-width="1.08223"/>
<line x1="35.6074" y1="882.737" x2="-104.001" y2="882.737" stroke="#EAEAEA" stroke-width="1.08223"/>
<line x1="196.949" y1="186" x2="196.949" y2="325.608" stroke="#EAEAEA" stroke-width="1.08223"/>
<line x1="266.217" y1="256.345" x2="126.609" y2="256.345" stroke="#EAEAEA" stroke-width="1.08223"/>
<line x1="196.949" y1="484.696" x2="196.949" y2="624.304" stroke="#EAEAEA" stroke-width="1.08223"/>
<line x1="266.217" y1="555.041" x2="126.609" y2="555.041" stroke="#EAEAEA" stroke-width="1.08223"/>
<line x1="196.949" y1="812.393" x2="196.949" y2="952" stroke="#EAEAEA" stroke-width="1.08223"/>
<line x1="266.217" y1="882.737" x2="126.609" y2="882.737" stroke="#EAEAEA" stroke-width="1.08223"/>
<line x1="1715.34" y1="186" x2="1715.34" y2="325.608" stroke="#EAEAEA" stroke-width="1.08223"/>
<line x1="1784.61" y1="256.345" x2="1645" y2="256.345" stroke="#EAEAEA" stroke-width="1.08223"/>
<line x1="1715.34" y1="484.696" x2="1715.34" y2="624.304" stroke="#EAEAEA" stroke-width="1.08223"/>
<line x1="1784.61" y1="555.041" x2="1645" y2="555.041" stroke="#EAEAEA" stroke-width="1.08223"/>
<line x1="1715.34" y1="812.393" x2="1715.34" y2="952" stroke="#EAEAEA" stroke-width="1.08223"/>
<line x1="1784.61" y1="882.737" x2="1645" y2="882.737" stroke="#EAEAEA" stroke-width="1.08223"/>
<line x1="2015.22" y1="256.345" x2="1875.61" y2="256.345" stroke="#CDCDCD" stroke-width="1.08223"/>
<line x1="2015.22" y1="555.041" x2="1875.61" y2="555.041" stroke="#CDCDCD" stroke-width="1.08223"/>
<line x1="2015.22" y1="882.737" x2="1875.61" y2="882.737" stroke="#CDCDCD" stroke-width="1.08223"/>
</g>
<defs>
<clipPath id="clip0_1267_958">
<rect width="1920" height="1080" fill="white"/>
</clipPath>
</defs>
</svg>
