<svg width="375" height="1112" viewBox="0 0 375 1112" fill="none" xmlns="http://www.w3.org/2000/svg">
<g clip-path="url(#clip0_1774_3066)">
<line x1="16.8086" y1="133" x2="16.8086" y2="199.011" stroke="#EAEAEA"/>
<line x1="50.6211" y1="166.506" x2="-17.9992" y2="166.506" stroke="#EAEAEA"/>
<line x1="16.8086" y1="493.741" x2="16.8086" y2="559.752" stroke="#EAEAEA"/>
<line x1="50.6211" y1="527.247" x2="-17.9992" y2="527.247" stroke="#EAEAEA"/>
<line x1="16.8086" y1="253.247" x2="16.8086" y2="319.258" stroke="#EAEAEA"/>
<line x1="50.6211" y1="286.752" x2="-17.9992" y2="286.752" stroke="#EAEAEA"/>
<line x1="16.8086" y1="373.494" x2="16.8086" y2="439.505" stroke="#EAEAEA"/>
<line x1="50.6211" y1="407" x2="-17.9992" y2="407" stroke="#EAEAEA"/>
<line x1="359.43" y1="133" x2="359.43" y2="199.011" stroke="#EAEAEA"/>
<line x1="393.242" y1="166.506" x2="324.622" y2="166.506" stroke="#EAEAEA"/>
<line x1="359.43" y1="493.741" x2="359.43" y2="559.752" stroke="#EAEAEA"/>
<line x1="393.242" y1="527.247" x2="324.622" y2="527.247" stroke="#EAEAEA"/>
<line x1="16.8086" y1="613.988" x2="16.8086" y2="679.999" stroke="#EAEAEA"/>
<line x1="50.6211" y1="647.494" x2="-17.9992" y2="647.494" stroke="#EAEAEA"/>
<line x1="16.8086" y1="734" x2="16.8086" y2="800.011" stroke="#EAEAEA"/>
<line x1="50.6211" y1="767.506" x2="-17.9992" y2="767.506" stroke="#EAEAEA"/>
<line x1="16.8086" y1="854.012" x2="16.8086" y2="920.023" stroke="#EAEAEA"/>
<line x1="50.6211" y1="887.518" x2="-17.9992" y2="887.518" stroke="#EAEAEA"/>
<line x1="16.8086" y1="974.022" x2="16.8086" y2="1040.03" stroke="#EAEAEA"/>
<line x1="50.6211" y1="1007.53" x2="-17.9992" y2="1007.53" stroke="#EAEAEA"/>
<line x1="359.43" y1="613.988" x2="359.43" y2="679.999" stroke="#EAEAEA"/>
<line x1="393.242" y1="647.494" x2="324.622" y2="647.494" stroke="#EAEAEA"/>
<line x1="359.43" y1="734" x2="359.43" y2="800.011" stroke="#EAEAEA"/>
<line x1="393.242" y1="767.506" x2="324.622" y2="767.506" stroke="#EAEAEA"/>
<line x1="359.43" y1="854.012" x2="359.43" y2="920.023" stroke="#EAEAEA"/>
<line x1="393.242" y1="887.518" x2="324.622" y2="887.518" stroke="#EAEAEA"/>
<line x1="359.43" y1="974.022" x2="359.43" y2="1040.03" stroke="#EAEAEA"/>
<line x1="393.242" y1="1007.53" x2="324.622" y2="1007.53" stroke="#EAEAEA"/>
<line x1="359.43" y1="253.247" x2="359.43" y2="319.258" stroke="#EAEAEA"/>
<line x1="393.242" y1="286.752" x2="324.622" y2="286.752" stroke="#EAEAEA"/>
<line x1="359.43" y1="373.494" x2="359.43" y2="439.505" stroke="#EAEAEA"/>
<line x1="393.242" y1="407" x2="324.622" y2="407" stroke="#EAEAEA"/>
</g>
<defs>
<clipPath id="clip0_1774_3066">
<rect width="375" height="1112" fill="white"/>
</clipPath>
</defs>
</svg>
