<svg width="36" height="34" viewBox="0 0 36 34" fill="none" xmlns="http://www.w3.org/2000/svg">
<path d="M35.1102 0.941589H0V34H35.1102V0.941589Z" fill="black"/>
<path d="M5.56152 28.1219V6.81174H14.3153C15.8997 6.81174 17.2227 7.04147 18.2921 7.50095C19.3616 7.96042 20.1617 8.59418 20.7083 9.40222C21.247 10.2103 21.5164 11.1609 21.5164 12.2304C21.5164 13.0463 21.35 13.7752 21.0094 14.401C20.6687 15.0347 20.2013 15.5497 19.6151 15.9616C19.0289 16.3736 18.3476 16.6588 17.5792 16.8251V17.0311C18.4268 17.0707 19.2111 17.3084 19.9399 17.7282C20.6608 18.1481 21.247 18.7422 21.6907 19.4948C22.1343 20.2474 22.3561 21.1426 22.3561 22.1883C22.3561 23.3291 22.0709 24.3431 21.4926 25.2383C20.9143 26.1334 20.0825 26.8385 18.9814 27.3534C17.8881 27.8684 16.5493 28.1219 14.9649 28.1219H5.56152ZM10.4731 15.6289H13.4993C14.0776 15.6289 14.5926 15.5259 15.0441 15.3279C15.4957 15.1298 15.8522 14.8446 16.1136 14.4723C16.375 14.1 16.5018 13.6563 16.5018 13.1335C16.5018 12.3967 16.2403 11.8105 15.7175 11.3827C15.1946 10.947 14.4817 10.7331 13.5706 10.7331H10.4573V15.6289H10.4731ZM10.4731 24.1371H13.8321C14.9966 24.1371 15.8522 23.9153 16.3988 23.4717C16.9454 23.028 17.2227 22.418 17.2227 21.6417C17.2227 21.0871 17.088 20.596 16.8187 20.1761C16.5493 19.7563 16.1691 19.4314 15.6779 19.2017C15.1867 18.972 14.6005 18.8531 13.9192 18.8531H10.4652V24.1371H10.4731ZM29.3988 12.9354C29.3988 12.9354 27.4896 13.5058 26.6023 13.8227C26.5072 12.4997 26.3726 11.1847 26.2458 9.8617C26.1903 9.23586 25.9923 6.88303 25.9923 6.88303L22.6175 17.6332L25.4219 16.7617L25.9606 22.521L29.3988 12.9354ZM28.6937 23.44H24.0356V28.0981H28.6937V23.44Z" fill="white"/>
</svg>
