<svg width="1920" height="1080" viewBox="0 0 1920 1080" fill="none" xmlns="http://www.w3.org/2000/svg">
<g clip-path="url(#clip0_1956_5280)">
<line x1="287.346" y1="179" x2="287.346" y2="318.608" stroke="#EAEAEA" stroke-width="1.08223"/>
<line x1="356.607" y1="249.345" x2="216.999" y2="249.345" stroke="#EAEAEA" stroke-width="1.08223"/>
<line x1="287.346" y1="477.696" x2="287.346" y2="617.304" stroke="#EAEAEA" stroke-width="1.08223"/>
<line x1="356.607" y1="548.041" x2="216.999" y2="548.041" stroke="#EAEAEA" stroke-width="1.08223"/>
<line x1="287.346" y1="805.392" x2="287.346" y2="945" stroke="#EAEAEA" stroke-width="1.08223"/>
<line x1="356.607" y1="875.737" x2="216.999" y2="875.737" stroke="#EAEAEA" stroke-width="1.08223"/>
<line x1="623.953" y1="179" x2="623.953" y2="318.608" stroke="#EAEAEA" stroke-width="1.08223"/>
<line x1="693.215" y1="249.345" x2="553.607" y2="249.345" stroke="#EAEAEA" stroke-width="1.08223"/>
<line x1="623.953" y1="477.696" x2="623.953" y2="617.304" stroke="#EAEAEA" stroke-width="1.08223"/>
<line x1="693.215" y1="548.042" x2="553.607" y2="548.042" stroke="#EAEAEA" stroke-width="1.08223"/>
<line x1="623.953" y1="805.392" x2="623.953" y2="945" stroke="#EAEAEA" stroke-width="1.08223"/>
<line x1="693.215" y1="875.737" x2="553.607" y2="875.737" stroke="#EAEAEA" stroke-width="1.08223"/>
<line x1="960.563" y1="179" x2="960.563" y2="318.608" stroke="#EAEAEA" stroke-width="1.08223"/>
<line x1="1029.82" y1="249.345" x2="890.216" y2="249.345" stroke="#EAEAEA" stroke-width="1.08223"/>
<line x1="960.563" y1="477.696" x2="960.563" y2="617.304" stroke="#EAEAEA" stroke-width="1.08223"/>
<line x1="1029.82" y1="548.042" x2="890.216" y2="548.042" stroke="#EAEAEA" stroke-width="1.08223"/>
<line x1="960.563" y1="805.392" x2="960.563" y2="945" stroke="#EAEAEA" stroke-width="1.08223"/>
<line x1="1029.82" y1="875.737" x2="890.216" y2="875.737" stroke="#EAEAEA" stroke-width="1.08223"/>
<line x1="1297.17" y1="179" x2="1297.17" y2="318.608" stroke="#EAEAEA" stroke-width="1.08223"/>
<line x1="1366.43" y1="249.345" x2="1226.82" y2="249.345" stroke="#EAEAEA" stroke-width="1.08223"/>
<line x1="1297.17" y1="477.696" x2="1297.17" y2="617.304" stroke="#EAEAEA" stroke-width="1.08223"/>
<line x1="1366.43" y1="548.042" x2="1226.82" y2="548.042" stroke="#EAEAEA" stroke-width="1.08223"/>
<line x1="1297.17" y1="805.392" x2="1297.17" y2="945" stroke="#EAEAEA" stroke-width="1.08223"/>
<line x1="1366.43" y1="875.737" x2="1226.82" y2="875.737" stroke="#EAEAEA" stroke-width="1.08223"/>
<line x1="1633.78" y1="179" x2="1633.78" y2="318.608" stroke="#EAEAEA" stroke-width="1.08223"/>
<line x1="1703.04" y1="249.345" x2="1563.43" y2="249.345" stroke="#EAEAEA" stroke-width="1.08223"/>
<line x1="1633.78" y1="477.696" x2="1633.78" y2="617.304" stroke="#EAEAEA" stroke-width="1.08223"/>
<line x1="1703.04" y1="548.042" x2="1563.43" y2="548.042" stroke="#EAEAEA" stroke-width="1.08223"/>
<line x1="1633.78" y1="805.392" x2="1633.78" y2="945" stroke="#EAEAEA" stroke-width="1.08223"/>
<line x1="1703.04" y1="875.737" x2="1563.43" y2="875.737" stroke="#EAEAEA" stroke-width="1.08223"/>
</g>
<defs>
<clipPath id="clip0_1956_5280">
<rect width="1920" height="1080" fill="white"/>
</clipPath>
</defs>
</svg>
