<svg width="13" height="129" viewBox="0 0 13 129" fill="none" xmlns="http://www.w3.org/2000/svg">
<path d="M65.9844 43.317C44.239 43.317 22.5059 43.317 0.760483 43.317C-0.00165558 43.317 0.0106354 43.2846 0.0106354 44.3368C0.0229263 45.7938 0.0106354 47.2507 0.0106354 48.7076C0.0106354 48.9018 0.0352249 49.0152 0.207321 48.9828C0.354828 48.9666 0.490044 48.9828 0.637558 48.9828C22.4198 48.9828 44.2021 48.9828 65.9844 48.9828C65.9844 47.0888 65.9844 45.211 65.9844 43.317Z" fill="black"/>
<path d="M65.9844 5.34051C44.2021 5.34051 22.4198 5.34051 0.637558 5.34051C0.44088 5.34051 0.15815 5.27576 0.0598145 5.42145C-0.0385284 5.56714 0.022934 5.92328 0.022934 6.19847C0.022934 7.25069 0.022934 8.30291 0.022934 9.35512C0.022934 9.59794 0.022934 9.7922 0.281075 9.72745C0.403999 9.69507 0.526924 9.72745 0.649849 9.72745C22.4198 9.71126 44.2021 9.71126 65.9844 9.71126C65.9844 8.25434 65.9844 6.79743 65.9844 5.34051Z" fill="black"/>
<path d="M65.9877 67.7287C44.2054 67.7287 22.4232 67.7287 0.640884 67.7287C0.444206 67.7287 0.161476 67.6639 0.0631332 67.8096C-0.035202 67.9553 0.0262604 68.3115 0.0262604 68.5867C0.0262604 69.6389 0.0262604 70.6911 0.0262604 71.7433C0.0262604 71.9861 0.0262527 72.1804 0.284401 72.1156C0.407326 72.0833 0.530251 72.1156 0.653175 72.1156C22.4354 72.1156 44.2177 72.1156 66 72.1156C65.9877 70.6263 65.9877 69.1856 65.9877 67.7287Z" fill="black"/>
<path d="M65.9877 56.8991C44.2054 56.8991 22.4232 56.8991 0.640884 56.8991C0.444206 56.8991 0.161476 56.8344 0.0631332 56.98C-0.035202 57.1257 0.0262604 57.4819 0.0262604 57.7571C0.0262604 58.8093 0.0262604 59.8615 0.0262604 60.9137C0.0262604 61.1565 0.0262527 61.3508 0.284401 61.286C0.407326 61.2537 0.530251 61.286 0.653175 61.286C22.4354 61.286 44.2177 61.286 66 61.286C65.9877 59.8129 65.9877 58.356 65.9877 56.8991Z" fill="black"/>
<path d="M65.9844 105.705C44.239 105.705 22.5059 105.705 0.760475 105.705C-0.00165558 105.705 -0.00166321 105.673 0.0106277 106.725C0.0229263 107.745 0.0106277 108.765 0.0106277 109.801C0.0106277 109.995 0.0352173 110.108 0.207314 110.076C0.354828 110.06 0.490044 110.076 0.63755 110.076C22.4198 110.076 44.2021 110.076 65.9844 110.076C65.9844 108.619 65.9844 107.162 65.9844 105.705Z" fill="black"/>
<path d="M65.9877 100.363C44.2054 100.363 22.4355 100.363 0.653175 100.363C0.456497 100.363 0.186058 100.282 0.0754318 100.428C-0.035202 100.557 0.0262604 100.93 0.0262604 101.189C0.0262604 102.241 0.0262604 103.293 0.0262604 104.345C0.0262604 104.507 0.0631332 104.572 0.198357 104.588C0.370445 104.604 0.542542 104.507 0.714638 104.718C0.80069 104.815 0.985077 104.766 1.08341 104.572C1.4399 104.863 1.79637 104.556 2.14056 104.556C10.5363 104.572 18.9321 104.572 27.3279 104.572C40.2227 104.572 53.1052 104.572 66 104.572C65.9877 103.164 65.9877 101.772 65.9877 100.363Z" fill="black"/>
<path d="M65.9844 52.6901C44.239 52.6901 22.5059 52.6901 0.760475 52.6901C-0.00165558 52.6901 -0.00166321 52.6577 0.0106277 53.7099C0.0229263 54.325 0.0106354 54.9564 0.0229263 55.5715C0.0229263 55.6363 0.0966797 55.7496 0.145851 55.7658C0.305656 55.7819 0.477753 55.782 0.63755 55.782C22.4198 55.782 44.2021 55.782 65.9844 55.782C65.9844 54.7459 65.9844 53.7261 65.9844 52.6901Z" fill="black"/>
<path d="M65.9844 39.2862C44.2513 39.2862 22.5059 39.2862 0.772766 39.2862C0.0106354 39.2862 0.0106354 39.2539 0.0229263 40.3061C0.0352173 40.8403 0.0229263 41.3907 0.0229263 41.9249C0.0229263 42.2163 0.13356 42.3458 0.342529 42.362C0.490036 42.3781 0.625259 42.362 0.772766 42.362C22.5059 42.362 44.2513 42.362 65.9844 42.362C65.9844 41.3259 65.9844 40.3061 65.9844 39.2862Z" fill="black"/>
<path d="M65.9844 10.8441C44.6938 10.8441 23.4032 10.8441 2.11266 10.8441C1.8914 10.8441 1.63325 10.9898 1.42427 10.6984C1.3874 10.6498 1.23989 10.7146 1.14155 10.7308C1.03091 10.7632 0.92028 10.8279 0.809647 10.8279C0.551506 10.8603 0.293365 10.8765 0.0352249 10.8927C0.0352249 11.2326 0.022934 11.5887 0.022934 11.9287C0.022934 12.4629 0.022934 13.0133 0.022934 13.5475C0.022934 13.6122 0.108978 13.7256 0.15815 13.7256C0.317955 13.7417 0.490044 13.7417 0.649849 13.7417C22.4321 13.7417 44.2144 13.7417 65.9844 13.7417C65.9844 12.7705 65.9844 11.8154 65.9844 10.8441Z" fill="black"/>
<path d="M65.9844 20.379C44.239 20.379 22.5059 20.379 0.760475 20.379C-0.00165558 20.379 -0.00166321 20.3466 0.0106277 21.3989C0.0229263 21.9654 0.0106354 22.532 0.0229263 23.0986C0.0229263 23.1633 0.0966797 23.2767 0.145851 23.2928C0.305656 23.309 0.477753 23.309 0.63755 23.309C22.4198 23.309 44.2021 23.309 65.9844 23.309C65.9844 22.3054 65.9844 21.3503 65.9844 20.379Z" fill="black"/>
<path d="M65.9844 29.9136C44.2021 29.9136 22.4198 29.9136 0.637558 29.9136C0.44088 29.9136 0.15815 29.8489 0.0598068 29.9784C-0.0385284 30.1241 0.0106354 30.4802 0.0106354 30.7392C0.0106354 31.2249 0.0106354 31.7105 0.0106354 32.1961C0.0106354 32.7304 0.0598068 32.7951 0.453171 32.8113C0.551506 32.8113 0.66214 32.8113 0.760483 32.8113C22.5059 32.8113 44.239 32.8113 65.9844 32.8113C65.9844 31.84 65.9844 30.8849 65.9844 29.9136Z" fill="black"/>
<path d="M65.9877 62.3864C44.5005 62.3864 23.0009 62.3864 1.51366 62.3864C1.2801 62.3864 1.02197 62.5483 0.825279 62.2407C0.591728 62.3864 0.345879 62.4188 0.0877304 62.4026C0.0754395 62.4026 0.026268 62.4835 0.026268 62.5321C0.026268 62.9368 0.0016861 63.3415 0.038559 63.7462C0.0508499 63.8433 0.198357 63.989 0.2967 64.0052C0.456505 64.0538 0.616302 64.0214 0.788399 64.0214C22.5215 64.0214 44.2669 64.0214 66 64.0214C65.9877 63.471 65.9877 62.9368 65.9877 62.3864Z" fill="black"/>
<path d="M65.9844 64.9766C44.6323 64.9766 23.268 64.9766 1.91597 64.9766C1.63324 64.9766 1.32593 64.8633 1.03091 65.1061C0.932571 65.187 0.711304 64.9766 0.539207 64.9766C0.0598068 64.9442 0.0106354 65.009 0.0106354 65.6241C0.0106354 65.8669 -0.00165558 66.1098 0.0106354 66.3526C0.0229263 66.644 0.256485 66.8868 0.416283 66.7249C0.649841 66.4983 0.8834 66.5954 1.11696 66.5954C22.7394 66.5954 44.3619 66.5954 65.9844 66.5954C65.9844 66.0612 65.9844 65.5108 65.9844 64.9766Z" fill="black"/>
<path d="M65.9844 0.0143395C44.2021 0.0143395 22.4198 0.0143395 0.637558 0.0143395C0.44088 0.0143395 0.15815 -0.0504123 0.0598145 0.0952793C-0.0385284 0.240971 0.022934 0.597106 0.022934 0.872301C0.022934 1.11512 -0.0262375 1.47126 0.0598145 1.5522C0.19503 1.6817 0.44088 1.63314 0.637558 1.63314C22.4198 1.63314 44.2021 1.63314 65.9844 1.63314C65.9844 1.08274 65.9844 0.548542 65.9844 0.0143395Z" fill="black"/>
<path d="M65.9844 115.24C44.2021 115.24 22.4198 115.24 0.637558 115.24C0.44088 115.24 0.15815 115.175 0.0598145 115.321C-0.0385284 115.467 0.022934 115.823 0.022934 116.098C0.022934 116.341 -0.0262375 116.697 0.0598145 116.778C0.19503 116.907 0.44088 116.859 0.637558 116.859C22.4198 116.859 44.2021 116.859 65.9844 116.859C65.9844 116.308 65.9844 115.774 65.9844 115.24Z" fill="black"/>
<path d="M65.9844 36.5342C44.239 36.5342 22.5059 36.5342 0.760483 36.5342C-0.0139465 36.5342 -0.00165558 36.518 0.0106354 37.554C0.0106354 37.6835 -0.00165558 37.8292 0.0106354 37.9587C0.0229263 38.0397 0.0843887 38.1368 0.13356 38.153C0.293365 38.1692 0.465454 38.1692 0.625259 38.1692C22.4075 38.1692 44.1898 38.1692 65.9721 38.1692C65.9844 37.6188 65.9844 37.0684 65.9844 36.5342Z" fill="black"/>
<path d="M65.9844 50.1162C44.239 50.1162 22.5059 50.1162 0.760483 50.1162C-0.0139465 50.1162 -0.00165558 50.1 0.0106354 51.1361C0.0106354 51.2656 -0.00165558 51.4113 0.0106354 51.5408C0.0229263 51.6217 0.0843887 51.7188 0.13356 51.735C0.293365 51.7512 0.465454 51.7512 0.625259 51.7512C22.4075 51.7512 44.1898 51.7512 65.9721 51.7512C65.9844 51.1846 65.9844 50.6504 65.9844 50.1162Z" fill="black"/>
<path d="M65.9844 74.5112C44.239 74.5112 22.5059 74.5112 0.760483 74.5112C-0.0139465 74.5112 -0.00165558 74.4951 0.0106354 75.5311C0.0106354 75.6606 -0.00165558 75.8063 0.0106354 75.9358C0.0229263 76.0167 0.0843887 76.1139 0.13356 76.13C0.293365 76.1462 0.465454 76.1462 0.625259 76.1462C22.4075 76.1462 44.1898 76.1462 65.9721 76.1462C65.9844 75.5958 65.9844 75.0454 65.9844 74.5112Z" fill="black"/>
<path d="M65.9844 77.2633C44.2021 77.2633 22.4198 77.2633 0.637558 77.2633C0.44088 77.2633 0.15815 77.1985 0.0598068 77.328C-0.0385284 77.4737 0.0229263 77.8298 0.0106354 78.0888C0.0106354 78.2022 0.0106354 78.2993 0.0106354 78.4126C0.0229263 78.7364 0.121269 78.8497 0.391708 78.8659C0.514633 78.8659 0.637558 78.8659 0.760483 78.8659C22.5059 78.8659 44.239 78.8659 65.9844 78.8659C65.9844 78.3317 65.9844 77.7975 65.9844 77.2633Z" fill="black"/>
<path d="M65.9844 84.0465C44.2021 84.0465 22.4198 84.0465 0.637558 84.0465C0.44088 84.0465 0.15815 83.9817 0.0598068 84.1112C-0.0385284 84.2569 0.0229263 84.613 0.0106354 84.872C0.0106354 84.9854 0.0106354 85.0825 0.0106354 85.1958C0.0229263 85.5196 0.121269 85.6329 0.391708 85.6491C0.514633 85.6491 0.637558 85.6491 0.760483 85.6491C22.5059 85.6491 44.239 85.6491 65.9844 85.6491C65.9844 85.1311 65.9844 84.5807 65.9844 84.0465Z" fill="black"/>
<path d="M65.9844 111.193C44.2021 111.193 22.4198 111.193 0.637558 111.193C0.44088 111.193 0.15815 111.128 0.0598068 111.258C-0.0385284 111.403 0.0229263 111.76 0.0106354 112.019C0.0106354 112.132 0.0106354 112.229 0.0106354 112.342C0.0229263 112.666 0.121269 112.779 0.391708 112.796C0.514633 112.796 0.637558 112.796 0.760483 112.796C22.5059 112.796 44.239 112.796 65.9844 112.796C65.9844 112.278 65.9844 111.743 65.9844 111.193Z" fill="black"/>
<path d="M65.9844 117.992C44.2021 117.992 22.4198 117.992 0.637558 117.992C0.44088 117.992 0.15815 117.927 0.0598068 118.057C-0.0385284 118.202 0.0229263 118.558 0.0106354 118.817C0.0106354 118.931 0.0106354 119.028 0.0106354 119.141C0.0229263 119.465 0.121269 119.578 0.391708 119.594C0.514633 119.594 0.637558 119.594 0.760483 119.594C22.5059 119.594 44.239 119.594 65.9844 119.594C65.9844 119.06 65.9844 118.526 65.9844 117.992Z" fill="black"/>
<path d="M65.9844 124.775C44.2021 124.775 22.4198 124.775 0.637558 124.775C0.44088 124.775 0.15815 124.71 0.0598068 124.84C-0.0385284 124.985 0.0229263 125.342 0.0106354 125.601C0.0106354 125.714 0.0106354 125.811 0.0106354 125.924C0.0229263 126.248 0.121269 126.361 0.391708 126.378C0.514633 126.378 0.637558 126.378 0.760483 126.378C22.5059 126.378 44.239 126.378 65.9844 126.378C65.9844 125.843 65.9844 125.309 65.9844 124.775Z" fill="black"/>
<path d="M65.9844 127.365C44.239 127.365 22.5059 127.365 0.760483 127.365C-0.0139465 127.365 -0.00165558 127.349 0.0106354 128.385C0.0106354 128.515 -0.00165558 128.66 0.0106354 128.79C0.0229263 128.871 0.0843887 128.968 0.13356 128.984C0.293365 129 0.465454 129 0.625259 129C22.4075 129 44.1898 129 65.9721 129C65.9844 128.434 65.9844 127.899 65.9844 127.365Z" fill="black"/>
<path d="M65.9844 16.332C44.2513 16.332 22.5059 16.332 0.772758 16.332C-0.0508347 16.332 0.0106277 16.3644 0.0229263 17.3519C0.0229263 17.8861 0.0720901 17.9508 0.465446 17.9508C0.563789 17.9508 0.674423 17.9508 0.772758 17.9508C22.5059 17.9508 44.2513 17.9508 65.9844 17.9508C65.9844 17.4166 65.9844 16.8662 65.9844 16.332Z" fill="black"/>
<path d="M65.9844 2.74996C44.2021 2.74996 22.4321 2.74996 0.649841 2.74996C0.453163 2.74996 0.170433 2.66902 0.0720901 2.81471C-0.0385361 2.94422 0.0229263 3.31654 0.0229263 3.57555C0.0229263 3.70505 0.0106354 3.85074 0.0229263 3.98024C0.0475159 4.27163 0.158142 4.32019 0.416283 4.25544C0.674423 4.20688 0.981735 4.09356 1.17841 4.23925C1.42426 4.41732 1.64553 4.35257 1.87909 4.35257C23.2434 4.36876 44.62 4.36876 65.9844 4.36876C65.9844 3.83455 65.9844 3.30035 65.9844 2.74996Z" fill="black"/>
<path d="M65.9877 25.8664C44.2054 25.8664 22.4232 25.8664 0.640884 25.8664C0.444206 25.8664 0.161476 25.8016 0.0631332 25.9473C-0.035202 26.093 0.0262604 26.4492 0.0262604 26.7244C0.0262604 26.8053 0.0262604 26.8862 0.0262604 26.9672C0.00167084 27.2262 0.0262527 27.4042 0.284401 27.3395C0.407326 27.3071 0.530251 27.3395 0.653175 27.3395C22.4354 27.3395 44.2177 27.3395 66 27.3395C65.9877 26.8377 65.9877 26.352 65.9877 25.8664Z" fill="black"/>
<path d="M65.9877 86.798C44.2054 86.798 22.4232 86.798 0.640884 86.798C0.444206 86.798 0.161476 86.7333 0.0631332 86.879C-0.035202 87.0247 0.0262604 87.3808 0.0262604 87.656C0.0262604 87.7369 0.0262604 87.8179 0.0262604 87.8988C0.00167084 88.1578 0.0262527 88.3359 0.284401 88.2711C0.407326 88.2388 0.530251 88.2711 0.653175 88.2711C22.4354 88.2711 44.2177 88.2711 66 88.2711C65.9877 87.7693 65.9877 87.2837 65.9877 86.798Z" fill="black"/>
<path d="M65.9877 90.8288C44.2054 90.8288 22.4232 90.8288 0.640884 90.8288C0.444206 90.8288 0.161476 90.764 0.0631332 90.9097C-0.035202 91.0554 0.0262604 91.4116 0.0262604 91.6868C0.0262604 91.7677 0.0262604 91.8486 0.0262604 91.9296C0.00167084 92.1886 0.0262527 92.3667 0.284401 92.3019C0.407326 92.2695 0.530251 92.3019 0.653175 92.3019C22.4354 92.3019 44.2177 92.3019 66 92.3019C65.9877 91.8001 65.9877 91.3144 65.9877 90.8288Z" fill="black"/>
<path d="M65.9877 96.3327C44.2054 96.3327 22.4232 96.3327 0.640884 96.3327C0.444206 96.3327 0.161476 96.2679 0.0631332 96.4136C-0.035202 96.5593 0.0262604 96.9155 0.0262604 97.1907C0.0262604 97.2716 0.0262604 97.3525 0.0262604 97.4335C0.00167084 97.6925 0.0262527 97.8706 0.284401 97.8058C0.407326 97.7734 0.530251 97.8058 0.653175 97.8058C22.4354 97.8058 44.2177 97.8058 66 97.8058C65.9877 97.304 65.9877 96.8183 65.9877 96.3327Z" fill="black"/>
</svg>
