<svg width="52" height="32" viewBox="0 0 52 32" fill="none" xmlns="http://www.w3.org/2000/svg">
<path d="M12 25.9097L11.4031 25.9097L11.4031 28.3083L10.8025 28.3083L10.8025 28.9089L9.60132 28.9089L9.60132 29.5095L7.80322 29.5095L7.80322 28.9089L6.60205 28.9089L6.60205 28.3083L6.00146 28.3083L6.00146 26.5103L6.60205 26.5103L6.60205 25.9097L7.20264 25.9097L7.20264 24.7085L6.60205 24.7085L6.60205 25.3091L6.00146 25.3091L6.00146 25.9097L5.40088 25.9097L5.40088 28.9089L6.00146 28.9089L6.00146 29.5095L6.60205 29.5095L6.60205 30.1101L7.80322 30.1101L7.80322 30.707L9.60132 30.707L9.60132 30.1101L10.8025 30.1101L10.8025 29.5095L11.4031 29.5095L11.4031 28.9089L12 28.9089L12 25.9097ZM10.8025 24.7085L10.2019 24.7085L10.2019 25.3091L10.8025 25.3091L10.8025 24.7085ZM11.4031 25.3091L10.8025 25.3091L10.8025 25.9097L11.4031 25.9097L11.4031 25.3091ZM12 21.7019L11.4031 21.7019L11.4031 22.3025L0.603515 22.3025L0.603515 22.9031L1.20044 22.9031L1.20044 23.5037L1.80103 23.5037L1.80103 24.1006L2.40161 24.1006L2.40161 23.5037L11.4031 23.5037L11.4031 24.1006L12 24.1006L12 21.7019ZM12 16.0073L11.4031 16.0073L11.4031 15.4067L10.8025 15.4067L10.8025 14.8062L9.60132 14.8062L9.60132 14.2056L7.80322 14.2056L7.80322 14.8062L6.60205 14.8062L6.60205 15.4067L6.00146 15.4067L6.00146 16.0073L5.40088 16.0073L5.40088 19.0066L6.00146 19.0066L6.00146 19.6072L6.60205 19.6072L6.60205 20.2078L7.80322 20.2078L7.80322 20.8047L9.60132 20.8047L9.60132 20.2078L10.8025 20.2078L10.8025 19.6072L11.4031 19.6072L11.4031 19.0066L12 19.0066L12 16.0073ZM11.4031 18.406L10.8025 18.406L10.8025 19.0066L9.60132 19.0066L9.60132 19.6072L7.80322 19.6072L7.80322 19.0066L6.60205 19.0066L6.60205 18.406L6.00146 18.406L6.00146 16.6079L6.60205 16.6079L6.60205 16.0073L7.80322 16.0073L7.80322 15.4067L9.60132 15.4067L9.60132 16.0073L10.8025 16.0073L10.8025 16.6079L11.4031 16.6079L11.4031 18.406ZM7.20264 8.80762L6.00146 8.80762L6.00146 9.4082L5.40088 9.4082L5.40088 12.1072L6.00146 12.1072L6.00146 10.0051L6.60205 10.0051L6.60205 9.4082L7.20264 9.4082L7.20264 8.80762ZM12 9.70483L11.4031 9.70483L11.4031 9.10791L10.8025 9.10791L10.8025 8.50732L9.00073 8.50732L9.00073 9.10791L8.40015 9.10791L8.40015 10.3054L7.80322 10.3054L7.80322 11.5066L7.20264 11.5066L7.20264 12.1072L6.00146 12.1072L6.00146 12.7078L6.60205 12.7078L6.60205 13.3047L7.80322 13.3047L7.80322 12.7078L8.40015 12.7078L8.40015 11.5066L9.00073 11.5066L9.00073 10.3054L9.60132 10.3054L9.60132 9.70483L10.8025 9.70483L10.8025 10.3054L11.4031 10.3054L11.4031 12.1072L10.8025 12.1072L10.8025 12.7078L9.90161 12.7078L9.90161 13.3047L11.4031 13.3047L11.4031 12.7078L12 12.7078L12 9.70483ZM12 2.80908L11.4031 2.80908L11.4031 5.20776L10.8025 5.20776L10.8025 5.80835L9.60132 5.80835L9.60132 6.40894L7.80322 6.40894L7.80322 1.60791L6.60205 1.60791L6.60205 2.2085L6.00146 2.2085L6.00146 2.80908L5.40088 2.80908L5.40088 5.80835L6.00146 5.80835L6.00146 3.40967L6.60205 3.40967L6.60205 2.80908L7.20264 2.80908L7.20264 6.40894L6.60205 6.40894L6.60205 7.00952L7.80322 7.00952L7.80322 7.60644L9.60132 7.60644L9.60132 7.00952L10.8025 7.00952L10.8025 6.40894L11.4031 6.40894L11.4031 5.80835L12 5.80835L12 2.80908ZM6.60205 5.80835L6.00146 5.80835L6.00146 6.40894L6.60205 6.40894L6.60205 5.80835ZM10.8025 1.60791L10.2019 1.60791L10.2019 2.2085L10.8025 2.2085L10.8025 1.60791ZM11.4031 2.2085L10.8025 2.2085L10.8025 2.80908L11.4031 2.80908L11.4031 2.2085Z" fill="#12110C"/>
<path d="M23.8017 30.9931C32.9058 21.889 42.0099 12.7849 51.114 3.68076C51.1963 3.59856 51.3455 3.51151 51.3166 3.40039C51.2877 3.28926 51.0909 3.14379 50.9586 3.01153C50.4529 2.50583 49.9472 2.00014 49.4415 1.49444C49.3248 1.37774 49.2314 1.28437 49.1547 1.42339C49.1188 1.49032 49.0519 1.52614 49.0005 1.57752C39.9093 10.6843 30.8052 19.7884 21.7011 28.8925C22.4013 29.5927 23.1015 30.2929 23.8017 30.9931Z" fill="black"/>
<path d="M22.0001 2.77263C31.0466 11.8192 40.0983 20.8709 49.1449 29.9174C49.4621 30.2347 49.4389 30.2579 50.1889 29.4976C50.5672 29.1091 50.9673 28.7192 51.3507 28.3359C51.5598 28.1267 51.6067 27.9877 51.5313 27.8891C51.4815 27.8161 51.4136 27.7715 51.3522 27.71C42.3057 18.6635 33.254 9.61182 24.2074 0.565257C23.4639 1.30879 22.732 2.04071 22.0001 2.77263Z" fill="black"/>
<path d="M23.8026 30.7721C32.665 21.9098 41.5273 13.0474 50.3897 4.18505C50.4818 4.09295 50.4847 3.88093 50.7808 4.00307C50.831 4.02257 50.8459 3.9147 50.8752 3.86215C50.898 3.79286 50.8976 3.70034 50.9437 3.65429C51.0279 3.5236 51.1237 3.40453 51.2196 3.28545C50.9756 3.04148 50.7251 2.78078 50.4812 2.53681C50.0978 2.15342 49.7028 1.75842 49.3194 1.37503C49.2729 1.32856 49.1558 1.28305 49.1353 1.30352C49.0572 1.35842 48.9855 1.43006 48.919 1.49658C39.852 10.5636 30.785 19.6306 21.7231 28.6925C22.4201 29.3896 23.1056 30.075 23.8026 30.7721Z" fill="black"/>
<path d="M22.0001 2.77263C31.0518 11.8243 40.0983 20.8709 49.15 29.9225C49.4672 30.2398 49.444 30.263 50.194 29.5027C50.5955 29.091 51.0073 28.6895 51.4088 28.2778C51.4552 28.2313 51.5059 28.1193 51.497 28.0872C51.4421 28.0091 51.3705 27.9374 51.304 27.8709C42.2369 18.8039 33.1699 9.73684 24.1029 0.669818C23.3826 1.39012 22.6971 2.07556 22.0001 2.77263Z" fill="black"/>
<path d="M22.0116 2.76109C31.0786 11.8281 40.1457 20.8951 49.2127 29.9622C49.2946 30.044 49.3658 30.2082 49.4997 30.1562C49.6451 30.0926 49.8803 29.8165 50.0662 29.6306C50.4147 29.2821 50.7632 28.9336 51.1118 28.585C51.4951 28.2016 51.5211 28.1347 51.369 27.9593C51.3281 27.9184 51.282 27.8724 51.2411 27.8314C42.1894 18.7797 33.1429 9.73319 24.0912 0.681515C23.3941 1.37858 22.7087 2.06402 22.0116 2.76109Z" fill="black"/>
<path d="M23.9096 30.8791C32.9767 21.8121 42.0437 12.7451 51.1107 3.67804C51.1926 3.59617 51.3567 3.52495 51.2931 3.37946C51.2295 3.23396 50.9483 3.00396 50.7508 2.80646C50.5765 2.63219 50.3414 2.35613 50.2475 2.33386C50.0983 2.29721 50.0308 2.43439 49.9489 2.51626C40.8819 11.5833 31.8149 20.6503 22.7479 29.7173C23.1429 30.1123 23.5262 30.4957 23.9096 30.8791Z" fill="black"/>
<path d="M22.707 2.06591C31.7587 11.1176 40.8053 20.1641 49.857 29.2158C50.1793 29.5382 50.1626 29.5447 50.901 28.796C50.9939 28.7031 51.1036 28.6036 51.1914 28.5056C51.2444 28.4424 51.2885 28.3471 51.2797 28.315C51.2248 28.2369 51.1532 28.1652 51.0866 28.0987C42.0196 19.0317 32.9526 9.96466 23.8856 0.897633C23.4854 1.28752 23.0904 1.68252 22.707 2.06591Z" fill="black"/>
<path d="M23.9199 30.8894C32.9665 21.8428 42.0182 12.7912 51.0647 3.74461C51.4075 3.40179 51.3587 3.40414 50.6449 2.70057C50.2615 2.31719 50.1946 2.29118 50.0309 2.45492C49.9899 2.49586 49.9439 2.54191 49.9029 2.58284C40.8564 11.6294 31.8047 20.6811 22.7581 29.7276C23.1415 30.111 23.5365 30.506 23.9199 30.8894Z" fill="black"/>
<path d="M23.9038 30.8733C32.9709 21.8063 42.0328 12.7444 51.0998 3.67735C51.1817 3.59548 51.3574 3.53588 51.2938 3.39039C51.2469 3.2514 50.9541 3.00978 50.7682 2.82389C50.6753 2.73095 50.5759 2.62127 50.4778 2.53345C50.2584 2.33456 50.1775 2.34576 50.1166 2.49968C50.044 2.64199 49.9974 2.85123 49.8109 2.82854C49.5808 2.80309 49.5352 2.94166 49.438 3.03888C40.5333 11.9203 31.6351 20.8185 22.7421 29.7115C23.1254 30.0949 23.5088 30.4783 23.9038 30.8733Z" fill="black"/>
<path d="M22.7146 2.05366C31.7817 11.1207 40.8487 20.1877 49.9157 29.2547C49.9976 29.3366 50.0688 29.5008 50.2143 29.4371C50.3598 29.3735 50.5898 29.0923 50.7873 28.8948C50.8454 28.8367 50.9035 28.7787 50.9615 28.7206C51.1577 28.5449 51.2752 28.4069 51.1213 28.3459C51.0469 28.318 51.019 28.2436 50.9678 28.1924C41.9008 19.1254 32.8337 10.0584 23.7667 0.991335C23.4117 1.3566 23.0632 1.70513 22.7146 2.05366Z" fill="black"/>
</svg>
