<svg width="59" height="44" viewBox="0 0 59 44" fill="none" xmlns="http://www.w3.org/2000/svg">
<path d="M12 31.9119L11.4031 31.9119L11.4031 32.5125L6.60205 32.5125L6.60205 31.9119L6.00146 31.9119L6.00146 32.5125L4.80029 32.5125L4.80029 33.113L5.40088 33.113L5.40088 33.7136L6.00146 33.7136L6.00146 34.3105L6.60205 34.3105L6.60205 33.7136L11.4031 33.7136L11.4031 34.3105L12 34.3105L12 31.9119ZM12 27.7114L11.4031 27.7114L11.4031 28.312L6.60205 28.312L6.60205 28.9126L6.00146 28.9126L6.00146 29.5132L5.40088 29.5132L5.40088 31.9119L6.00146 31.9119L6.00146 30.1138L6.60205 30.1138L6.60205 29.5132L11.4031 29.5132L11.4031 30.1138L12 30.1138L12 27.7114ZM12 23.511L11.4031 23.511L11.4031 24.1116L6.60205 24.1116L6.60205 24.7122L6.00146 24.7122L6.00146 25.3127L5.40088 25.3127L5.40088 27.7114L6.00146 27.7114L6.00146 25.9133L6.60205 25.9133L6.60205 25.3127L11.4031 25.3127L11.4031 25.9133L12 25.9133L12 23.511ZM6.60205 27.7114L6.00146 27.7114L6.00146 28.312L6.60205 28.312L6.60205 27.7114ZM12 17.8091L11.4031 17.8091L11.4031 20.2078L10.8025 20.2078L10.8025 20.8083L9.60132 20.8083L9.60132 21.4089L7.80322 21.4089L7.80322 16.6079L6.60205 16.6079L6.60205 17.2085L6.00146 17.2085L6.00146 17.8091L5.40088 17.8091L5.40088 20.8083L6.00146 20.8083L6.00146 18.4097L6.60205 18.4097L6.60205 17.8091L7.20264 17.8091L7.20264 21.4089L6.60205 21.4089L6.60205 22.0095L7.80322 22.0095L7.80322 22.6064L9.60132 22.6064L9.60132 22.0095L10.8025 22.0095L10.8025 21.4089L11.4031 21.4089L11.4031 20.8083L12 20.8083L12 17.8091ZM6.60205 20.8083L6.00146 20.8083L6.00146 21.4089L6.60205 21.4089L6.60205 20.8083ZM10.8025 16.6079L10.2019 16.6079L10.2019 17.2085L10.8025 17.2085L10.8025 16.6079ZM11.4031 17.2085L10.8025 17.2085L10.8025 17.8091L11.4031 17.8091L11.4031 17.2085ZM12 13.3083L11.4031 13.3083L11.4031 13.9089L6.60205 13.9089L6.60205 13.3083L6.00146 13.3083L6.00146 13.9089L4.80029 13.9089L4.80029 14.5095L5.40088 14.5095L5.40088 15.1101L6.00146 15.1101L6.00146 15.707L6.60205 15.707L6.60205 15.1101L11.4031 15.1101L11.4031 15.707L12 15.707L12 13.3083ZM12 8.80762L11.4031 8.80762L11.4031 9.4082L6.60205 9.4082L6.60205 10.0088L6.00146 10.0088L6.00146 10.6094L5.40088 10.6094L5.40088 13.3083L6.00146 13.3083L6.00146 11.21L6.60205 11.21L6.60205 10.6094L11.4031 10.6094L11.4031 11.21L12 11.21L12 8.80762ZM12 4.30322L11.4031 4.30322L11.4031 5.80102L10.8025 5.80102L10.8025 6.40161L5.40088 6.40161L5.40088 8.19971L6.00146 8.19971L6.00146 7.60278L10.8025 7.60278L10.8025 7.0022L11.4031 7.0022L11.4031 6.40161L12 6.40161L12 4.30322ZM12 1.30029L11.4031 1.30029L11.4031 1.90088L5.40088 1.90088L5.40088 3.70264L6.00146 3.70264L6.00146 3.10205L10.2019 3.10205L10.2019 3.70264L10.8025 3.70264L10.8025 3.10205L12 3.10205L12 1.30029ZM11.4031 3.70264L10.8025 3.70264L10.8025 4.30322L11.4031 4.30322L11.4031 3.70264Z" fill="#12110C"/>
<path d="M19.1562 38.5819C31.979 38.5819 44.8017 38.5819 57.6244 38.5819C57.7402 38.5819 57.9066 38.6476 57.9645 38.4997C58.0224 38.3519 57.9862 37.9904 57.9862 37.7111C57.9862 36.6431 57.9862 35.5752 57.9862 34.5073C57.9862 34.2608 57.9862 34.0636 57.8342 34.1294C57.7619 34.1622 57.6895 34.1294 57.6171 34.1294C44.8017 34.1458 31.979 34.1458 19.1562 34.1458C19.1562 35.6245 19.1562 37.1032 19.1562 38.5819Z" fill="black"/>
<path d="M19.1562 3.99989C31.95 3.99989 44.751 3.99989 57.5448 3.99989C57.9934 3.99989 57.9934 4.03275 57.9862 2.9648C57.979 2.42261 57.9862 1.864 57.9862 1.32181C57.9862 1.02607 57.9211 0.894627 57.7981 0.878197C57.7112 0.861767 57.6316 0.878197 57.5448 0.878197C44.751 0.878197 31.95 0.878197 19.1562 0.878197C19.1562 1.92971 19.1562 2.9648 19.1562 3.99989Z" fill="black"/>
<path d="M19.1562 32.9933C31.6895 32.9933 44.2228 32.9933 56.756 32.9933C56.8863 32.9933 57.0382 32.8454 57.1613 33.1412C57.183 33.1905 57.2698 33.1247 57.3277 33.1083C57.3928 33.0754 57.4579 33.0097 57.5231 33.0097C57.675 32.9769 57.827 32.9604 57.979 32.944C57.979 32.599 57.9862 32.2375 57.9862 31.8925C57.9862 31.3503 57.9862 30.7917 57.9862 30.2495C57.9862 30.1838 57.9355 30.0688 57.9066 30.0688C57.8125 30.0523 57.7112 30.0523 57.6171 30.0523C44.7944 30.0523 31.9717 30.0523 19.1562 30.0523C19.1562 31.0381 19.1562 32.0075 19.1562 32.9933Z" fill="black"/>
<path d="M19.1562 23.3146C31.9573 23.3146 44.751 23.3146 57.552 23.3146C58.0007 23.3146 58.0007 23.3474 57.9934 22.2795C57.9862 21.7045 57.9934 21.1294 57.9862 20.5544C57.9862 20.4886 57.9428 20.3736 57.9138 20.3572C57.8198 20.3408 57.7185 20.3408 57.6244 20.3408C44.8017 20.3408 31.979 20.3408 19.1562 20.3408C19.1562 21.3594 19.1562 22.3288 19.1562 23.3146Z" fill="black"/>
<path d="M19.1562 13.6396C31.979 13.6396 44.8017 13.6396 57.6244 13.6396C57.7402 13.6396 57.9066 13.7053 57.9645 13.5739C58.0224 13.426 57.9934 13.0645 57.9934 12.8016C57.9934 12.3088 57.9934 11.8159 57.9934 11.323C57.9934 10.7808 57.9645 10.715 57.7329 10.6986C57.675 10.6986 57.6099 10.6986 57.552 10.6986C44.751 10.6986 31.9573 10.6986 19.1562 10.6986C19.1562 11.6844 19.1562 12.6538 19.1562 13.6396Z" fill="black"/>
<path d="M19.1562 43.9854C31.979 43.9854 44.8017 43.9854 57.6244 43.9854C57.7402 43.9854 57.9066 44.0512 57.9645 43.9033C58.0224 43.7554 57.9862 43.394 57.9862 43.1147C57.9862 42.8682 58.0151 42.5068 57.9645 42.4246C57.8849 42.2932 57.7402 42.3425 57.6244 42.3425C44.8017 42.3425 31.979 42.3425 19.1562 42.3425C19.1562 42.9011 19.1562 43.4433 19.1562 43.9854Z" fill="black"/>
<path d="M19.1562 6.91869C31.9573 6.91869 44.751 6.91869 57.552 6.91869C58.0079 6.91869 58.0007 6.93512 57.9934 5.8836C57.9934 5.75216 58.0007 5.60429 57.9934 5.47285C57.9862 5.3907 57.95 5.29212 57.9211 5.27569C57.827 5.25926 57.7257 5.25926 57.6316 5.25926C44.8089 5.25926 31.9862 5.25926 19.1635 5.25926C19.1562 5.81788 19.1562 6.3765 19.1562 6.91869Z" fill="black"/>
<path d="M19.1562 27.4233C31.95 27.4233 44.751 27.4233 57.5448 27.4233C58.0296 27.4233 57.9934 27.3905 57.9862 26.3883C57.9862 25.8461 57.9572 25.7803 57.7257 25.7803C57.6678 25.7803 57.6027 25.7803 57.5448 25.7803C44.751 25.7803 31.95 25.7803 19.1562 25.7803C19.1562 26.3225 19.1562 26.8812 19.1562 27.4233Z" fill="black"/>
<path d="M19.1562 41.207C31.979 41.207 44.7944 41.207 57.6171 41.207C57.7329 41.207 57.8994 41.2891 57.9573 41.1413C58.0224 41.0098 57.9862 40.6319 57.9862 40.3691C57.9862 40.2376 57.9934 40.0897 57.9862 39.9583C57.9717 39.6626 57.9066 39.6133 57.7546 39.679C57.6027 39.7283 57.4218 39.8433 57.306 39.6954C57.1613 39.5147 57.031 39.5804 56.8935 39.5804C44.3168 39.564 31.7329 39.564 19.1562 39.564C19.1562 40.1062 19.1562 40.6484 19.1562 41.207Z" fill="black"/>
<path d="M19.1537 17.7452C31.9764 17.7452 44.7991 17.7452 57.6218 17.7452C57.7376 17.7452 57.9041 17.8109 57.962 17.6631C58.0198 17.5152 57.9837 17.1537 57.9837 16.8744C57.9837 16.7923 57.9837 16.7101 57.9837 16.628C57.9981 16.3651 57.9837 16.1844 57.8317 16.2501C57.7593 16.2829 57.687 16.2501 57.6146 16.2501C44.7919 16.2501 31.9692 16.2501 19.1465 16.2501C19.1537 16.7594 19.1537 17.2523 19.1537 17.7452Z" fill="black"/>
</svg>
