<svg width="1920" height="336" viewBox="0 0 1920 336" fill="none" xmlns="http://www.w3.org/2000/svg">
<g clip-path="url(#clip0_1235_1210)">
<path d="M45.1543 299.444V38.2495H152.691C172.201 38.2495 188.309 40.9656 201.468 46.624C214.626 52.2825 224.382 59.978 231.188 69.9369C237.767 79.8958 241.17 91.4391 241.17 104.567C241.17 114.526 239.128 123.579 234.818 131.275C230.734 138.97 224.835 145.308 217.802 150.287C210.542 155.267 202.148 158.888 192.847 160.925V163.415C203.283 163.867 212.811 166.81 221.886 172.016C230.734 177.221 237.994 184.464 243.439 193.518C248.883 202.798 251.606 213.662 251.606 226.563C251.606 240.596 247.976 253.045 240.943 263.909C233.91 274.773 223.701 283.601 210.089 289.712C196.703 296.049 180.142 299.218 160.858 299.218H45.1543V299.444ZM105.502 146.439H142.708C149.741 146.439 156.094 145.308 161.765 142.818C167.437 140.328 171.748 136.933 174.924 132.406C178.1 127.88 179.688 122.448 179.688 116.11C179.688 107.056 176.512 100.04 170.16 94.6078C163.807 89.4021 154.959 86.686 143.843 86.686H105.502V146.439ZM105.502 250.555H146.792C161.085 250.555 171.521 247.839 178.327 242.407C185.133 236.975 188.309 229.506 188.309 219.999C188.309 213.209 186.721 207.325 183.318 202.119C180.142 196.913 175.378 193.065 169.252 190.123C163.127 187.18 156.094 185.822 147.699 185.822H105.502V250.555Z" fill="black"/>
<path d="M341 235.845H277V299.845H341V235.845Z" fill="black"/>
</g>
<defs>
<clipPath id="clip0_1235_1210">
<rect width="1920" height="336" fill="white"/>
</clipPath>
</defs>
</svg>
