<svg width="370" height="336" viewBox="0 0 370 336" fill="none" xmlns="http://www.w3.org/2000/svg">
<g clip-path="url(#clip0_4577_17631)">
<path d="M45.1543 299.445V38.25H152.691C172.201 38.25 188.309 40.9661 201.468 46.6245C214.626 52.283 224.382 59.9785 231.188 69.9374C237.767 79.8963 241.17 91.4396 241.17 104.567C241.17 114.526 239.128 123.58 234.818 131.275C230.734 138.971 224.835 145.308 217.802 150.288C210.542 155.267 202.148 158.889 192.847 160.926V163.415C203.283 163.868 212.811 166.81 221.886 172.016C230.734 177.222 237.994 184.465 243.439 193.518C248.883 202.798 251.606 213.662 251.606 226.564C251.606 240.597 247.976 253.045 240.943 263.91C233.91 274.774 223.701 283.601 210.089 289.712C196.703 296.05 180.142 299.219 160.858 299.219H45.1543V299.445ZM105.502 146.44H142.708C149.741 146.44 156.094 145.308 161.765 142.818C167.437 140.329 171.748 136.934 174.924 132.407C178.1 127.88 179.688 122.448 179.688 116.111C179.688 107.057 176.512 100.04 170.16 94.6083C163.807 89.4025 154.959 86.6865 143.843 86.6865H105.502V146.44ZM105.502 250.556H146.792C161.085 250.556 171.521 247.84 178.327 242.407C185.133 236.975 188.309 229.506 188.309 220C188.309 213.21 186.721 207.325 183.318 202.119C180.142 196.913 175.378 193.066 169.252 190.123C163.127 187.181 156.094 185.823 147.699 185.823H105.502V250.556Z" fill="black"/>
<path d="M337.475 235.846H273.475V299.846H337.475V235.846Z" fill="black"/>
</g>
<defs>
<clipPath id="clip0_4577_17631">
<rect width="370" height="336" fill="white"/>
</clipPath>
</defs>
</svg>
