<svg width="207" height="262" viewBox="0 0 207 262" fill="none" xmlns="http://www.w3.org/2000/svg">
<path d="M0.154297 261.444V0.249512H107.691C127.201 0.249512 143.309 2.96558 156.468 8.62405C169.626 14.2825 179.382 21.978 186.188 31.9369C192.767 41.8958 196.17 53.4391 196.17 66.5667C196.17 76.5257 194.128 85.5792 189.818 93.2747C185.734 100.97 179.835 107.308 172.802 112.287C165.542 117.267 157.148 120.888 147.847 122.925V125.415C158.283 125.867 167.811 128.81 176.886 134.016C185.734 139.221 192.994 146.464 198.439 155.518C203.883 164.798 206.606 175.662 206.606 188.563C206.606 202.596 202.976 215.045 195.943 225.909C188.91 236.773 178.701 245.601 165.089 251.712C151.703 258.049 135.142 261.218 115.858 261.218H0.154297V261.444ZM60.5017 108.439H97.7084C104.741 108.439 111.094 107.308 116.765 104.818C122.437 102.328 126.748 98.9332 129.924 94.4064C133.1 89.8796 134.688 84.4475 134.688 78.11C134.688 69.0565 131.512 62.04 125.16 56.6078C118.807 51.4021 109.959 48.686 98.8427 48.686H60.5017V108.439ZM60.5017 212.555H101.792C116.085 212.555 126.521 209.839 133.327 204.407C140.133 198.975 143.309 191.506 143.309 181.999C143.309 175.209 141.721 169.325 138.318 164.119C135.142 158.913 130.378 155.065 124.252 152.123C118.127 149.18 111.094 147.822 102.699 147.822H60.5017V212.555Z" fill="black"/>
</svg>
