<svg width="1920" height="336" viewBox="0 0 1920 336" fill="none" xmlns="http://www.w3.org/2000/svg">
<path d="M262.743 301.352V105.569H320.595V140.652H322.637C326.267 127.977 332.165 118.471 340.333 112.133C348.5 105.796 358.029 102.627 368.918 102.627C371.641 102.627 374.59 102.853 377.766 103.08C380.942 103.532 383.665 103.985 386.16 104.664V156.722C383.438 155.817 379.581 155.138 374.817 154.459C370.053 154.006 365.742 153.553 362.112 153.553C354.625 153.553 347.819 155.138 341.694 158.533C335.568 161.928 330.804 166.454 327.401 172.339C323.998 178.224 322.183 185.241 322.183 192.936V300.9H262.743V301.352Z" fill="black"/>
<path d="M447.619 304.746C435.141 304.746 424.024 302.709 414.269 298.408C404.514 294.108 396.8 287.77 391.355 279.169C385.91 270.568 382.961 259.931 382.961 247.029C382.961 236.165 385.003 226.885 388.86 219.642C392.716 212.173 398.161 206.062 404.74 201.535C411.547 197.008 419.26 193.387 428.108 191.124C436.956 188.634 446.258 187.05 456.013 186.37C467.357 185.239 476.431 184.107 483.237 182.975C490.044 181.844 495.035 180.259 498.211 177.996C501.387 175.733 502.975 172.79 502.975 168.716V168.037C502.975 160.794 500.706 155.362 495.942 151.514C491.178 147.667 484.826 145.63 476.658 145.63C467.81 145.63 460.777 147.667 455.332 151.514C450.114 155.362 446.711 160.568 445.123 166.679L389.994 163.963C392.036 151.967 396.573 141.555 403.833 132.502C411.093 123.448 420.848 116.206 433.099 111C445.35 105.794 459.87 103.304 476.885 103.304C488.909 103.304 500.026 104.662 510.462 107.605C520.898 110.321 529.973 114.621 537.686 120.053C545.4 125.485 551.525 132.276 556.063 140.424C560.373 148.572 562.642 158.078 562.642 168.942V301.577H506.378V274.19H504.79C501.387 280.754 497.076 286.186 491.632 290.939C486.414 295.466 480.061 299.087 472.575 301.351C465.315 303.614 456.921 304.746 447.619 304.746ZM465.768 265.136C473.028 265.136 479.381 263.778 485.052 260.836C490.724 257.894 495.262 254.046 498.438 249.066C501.841 244.087 503.429 238.202 503.429 231.638V212.173C501.614 213.078 499.572 213.984 496.85 214.889C494.127 215.795 491.178 216.474 488.002 217.153C484.826 217.832 481.422 218.511 478.246 218.963C474.843 219.416 471.894 220.095 468.945 220.321C462.819 221.227 457.601 222.585 453.291 224.622C448.98 226.659 445.577 229.148 443.308 232.544C441.04 235.712 439.905 239.786 439.905 244.313C439.905 251.103 442.401 256.309 447.392 259.704C451.703 263.326 458.055 265.136 465.768 265.136Z" fill="black"/>
<path d="M567.654 301.351L595.559 105.568H655.226L627.321 301.351H567.654Z" fill="black"/>
<path d="M597.81 87.6874L605.523 36.9875H665.19L657.476 87.6874H597.81Z" fill="black"/>
<path d="M722.596 189.087L713.067 301.351H653.4L669.735 105.568H726.453L723.73 140.877H725.999C731.217 129.107 739.384 119.827 750.274 113.037C761.164 106.247 774.095 102.852 788.615 102.852C802.227 102.852 814.024 105.794 823.78 111.905C833.535 118.016 840.795 126.617 845.332 137.482C850.097 148.572 851.685 161.474 850.323 176.412L839.887 301.125H780.221L789.749 187.729C790.657 176.638 788.615 167.811 783.397 161.474C778.179 155.136 770.465 151.741 760.029 151.741C753.223 151.741 747.325 153.099 741.88 156.041C736.435 158.984 732.124 163.284 728.721 168.716C725.318 174.601 723.276 181.165 722.596 189.087Z" fill="black"/>
<path d="M1042.47 163.963L988.477 166C988.477 161.7 987.57 158.078 985.528 154.683C983.486 151.515 980.764 148.799 976.907 146.988C973.05 145.177 968.74 144.272 963.295 144.272C954.901 144.272 947.414 146.082 940.835 149.93C934.255 153.778 930.625 158.531 929.718 164.416C929.037 167.811 929.945 170.753 932.44 173.243C934.936 175.733 940.381 177.77 948.775 179.581L984.621 186.823C1003.45 190.671 1017.06 197.009 1025.46 206.289C1033.85 215.568 1036.8 227.564 1034.31 242.503C1032.26 255.178 1026.59 266.268 1017.52 275.775C1008.44 285.281 996.871 292.524 983.032 297.503C969.193 302.709 953.766 305.199 936.751 305.199C908.619 305.199 887.52 299.54 873.227 288.223C858.935 276.906 852.128 261.742 852.809 242.729L910.888 240.918C911.115 248.388 913.61 253.82 918.601 257.667C923.366 261.515 930.172 263.552 938.339 263.552C947.641 263.779 955.808 261.742 962.387 257.667C968.967 253.593 972.823 248.614 973.504 242.955C974.185 238.881 972.823 235.713 969.874 233.449C966.698 231.186 961.253 229.149 953.086 227.564L920.189 221.001C901.359 217.379 887.747 210.589 879.353 200.404C870.959 190.219 868.236 177.544 870.732 161.926C872.774 149.478 877.992 138.84 886.159 130.012C894.326 121.185 904.989 114.621 918.148 109.868C931.306 105.342 946.28 102.852 963.295 102.852C989.839 102.852 1010.03 108.284 1023.64 119.148C1037.48 130.012 1043.61 144.951 1042.47 163.963Z" fill="black"/>
<path d="M1175.65 105.57L1168.85 149.706H1047.02L1053.83 105.57H1175.65ZM1086.95 58.4917H1146.62L1119.62 240.242C1118.94 244.542 1119.16 247.937 1120.07 250.201C1120.98 252.69 1122.79 254.501 1125.06 255.406C1127.56 256.538 1130.28 256.991 1133.68 256.991C1136.18 256.991 1138.67 256.764 1141.4 256.085C1144.12 255.633 1146.16 255.18 1147.75 254.954L1150.47 298.411C1147.3 299.316 1143.21 300.448 1137.77 301.579C1132.32 302.711 1125.97 303.39 1118.48 303.843C1104.19 304.522 1092.39 302.711 1082.64 298.637C1073.11 294.563 1066.08 288.225 1061.99 279.625C1057.91 271.024 1056.77 260.159 1059.04 247.258L1086.95 58.4917Z" fill="black"/>
<path d="M1264.14 304.972C1243.94 304.972 1226.47 300.672 1211.73 292.297C1196.98 283.923 1185.64 272.153 1177.7 256.988C1169.76 241.824 1165.9 224.169 1165.9 204.025C1165.9 183.881 1169.76 166.227 1177.7 151.062C1185.64 135.897 1196.98 124.128 1211.73 115.527C1226.47 107.152 1243.94 102.852 1264.14 102.852C1284.55 102.852 1302.02 107.152 1316.77 115.527C1331.52 123.901 1342.63 135.897 1350.57 151.062C1358.51 166.227 1362.37 183.881 1362.37 204.025C1362.37 224.169 1358.51 241.824 1350.57 256.988C1342.63 272.153 1331.29 283.923 1316.77 292.297C1302.02 300.672 1284.55 304.972 1264.14 304.972ZM1264.36 259.704C1272.3 259.704 1279.11 257.215 1284.78 252.462C1290.23 247.709 1294.54 241.145 1297.26 232.544C1300.21 224.169 1301.57 214.437 1301.57 203.346C1301.57 192.256 1300.21 182.523 1297.26 174.148C1294.31 165.774 1290.23 159.21 1284.78 154.231C1279.34 149.478 1272.53 146.988 1264.36 146.988C1256.19 146.988 1249.16 149.478 1243.49 154.231C1237.82 158.984 1233.51 165.548 1230.79 174.148C1227.84 182.523 1226.47 192.256 1226.47 203.346C1226.47 214.21 1227.84 223.943 1230.79 232.544C1233.73 240.918 1238.04 247.709 1243.49 252.462C1249.16 257.441 1256.19 259.704 1264.36 259.704Z" fill="black"/>
<path d="M1375.29 301.353V105.57H1433.14V140.652H1435.18C1438.81 127.977 1444.71 118.471 1452.88 112.133C1461.04 105.796 1470.57 102.627 1481.46 102.627C1484.19 102.627 1487.13 102.854 1490.31 103.08C1493.49 103.533 1496.21 103.985 1498.71 104.664V156.722C1495.98 155.817 1492.13 155.138 1487.36 154.459C1482.6 154.006 1478.29 153.553 1474.66 153.553C1467.17 153.553 1460.36 155.138 1454.24 158.533C1448.11 161.928 1443.35 166.455 1439.95 172.34C1436.54 178.224 1434.73 185.241 1434.73 192.936V300.9H1375.29V301.353Z" fill="black"/>
<path d="M1504.61 301.353V105.57H1561.33V141.105H1563.6C1567.68 129.335 1574.49 120.055 1584.24 113.265C1594 106.475 1605.57 103.08 1618.95 103.08C1632.56 103.08 1644.13 106.475 1653.66 113.492C1663.19 120.282 1669.54 129.562 1672.27 141.105H1674.31C1678.16 129.562 1685.42 120.508 1695.86 113.492C1706.52 106.475 1719 103.08 1733.29 103.08C1751.67 103.08 1766.87 108.965 1778.44 120.734C1790.01 132.504 1795.91 148.8 1795.91 169.624V301.353H1736.24V182.525C1736.24 172.34 1733.52 164.644 1728.3 159.438C1723.09 154.233 1716.28 151.517 1707.88 151.517C1698.81 151.517 1691.78 154.459 1686.56 160.344C1681.34 166.229 1678.85 173.924 1678.85 183.657V301.579H1621.45V181.62C1621.45 172.34 1618.95 164.871 1613.73 159.438C1608.52 154.006 1601.71 151.29 1593.32 151.29C1587.64 151.29 1582.65 152.648 1578.34 155.364C1574.03 158.08 1570.4 161.928 1567.91 166.908C1565.41 171.887 1564.05 177.772 1564.05 184.562V300.9H1504.61V301.353Z" fill="black"/>
<path d="M45.1543 301.945V40.7502H152.691C172.201 40.7502 188.309 43.4663 201.468 49.1248C214.626 54.7832 224.382 62.4788 231.188 72.4377C237.767 82.3966 241.17 93.9398 241.17 107.067C241.17 117.026 239.128 126.08 234.818 133.775C230.734 141.471 224.835 147.808 217.802 152.788C210.542 157.767 202.148 161.389 192.847 163.426V165.916C203.283 166.368 212.811 169.311 221.886 174.516C230.734 179.722 237.994 186.965 243.439 196.019C248.883 205.298 251.606 216.163 251.606 229.064C251.606 243.097 247.976 255.546 240.943 266.41C233.91 277.274 223.701 286.101 210.089 292.213C196.703 298.55 180.142 301.719 160.858 301.719H45.1543V301.945ZM105.502 148.94H142.708C149.741 148.94 156.094 147.808 161.765 145.319C167.437 142.829 171.748 139.434 174.924 134.907C178.1 130.38 179.688 124.948 179.688 118.611C179.688 109.557 176.512 102.541 170.16 97.1086C163.807 91.9028 154.959 89.1867 143.843 89.1867H105.502V148.94ZM105.502 253.056H146.792C161.085 253.056 171.521 250.34 178.327 244.908C185.133 239.476 188.309 232.006 188.309 222.5C188.309 215.71 186.721 209.825 183.318 204.619C180.142 199.414 175.378 195.566 169.252 192.623C163.127 189.681 156.094 188.323 147.699 188.323H105.502V253.056Z" fill="black"/>
<rect x="1811" y="237" width="64" height="64" fill="black"/>
</svg>
