<svg width="1534" height="269" viewBox="0 0 1534 269" fill="none" xmlns="http://www.w3.org/2000/svg">
<path d="M0.744141 264.946V69.1635H58.596V104.246H60.6378C64.2677 91.5711 70.1663 82.0648 78.3336 75.7274C86.501 69.3899 96.0295 66.2211 106.919 66.2211C109.642 66.2211 112.591 66.4475 115.767 66.6738C118.943 67.1265 121.666 67.5792 124.161 68.2582V120.316C121.439 119.411 117.582 118.732 112.818 118.053C108.054 117.6 103.743 117.147 100.113 117.147C92.6265 117.147 85.8204 118.732 79.6949 122.127C73.5694 125.522 68.8051 130.049 65.4021 135.933C61.999 141.818 60.1841 148.835 60.1841 156.53V264.494H0.744141V264.946Z" fill="black"/>
<path d="M185.619 268.34C173.141 268.34 162.024 266.303 152.269 262.002C142.514 257.702 134.8 251.364 129.355 242.763C123.91 234.162 120.961 223.525 120.961 210.623C120.961 199.759 123.003 190.479 126.86 183.236C130.716 175.767 136.161 169.656 142.74 165.129C149.547 160.602 157.26 156.981 166.108 154.718C174.956 152.228 184.258 150.643 194.013 149.964C205.357 148.833 214.431 147.701 221.237 146.569C228.044 145.438 233.035 143.853 236.211 141.59C239.387 139.327 240.975 136.384 240.975 132.31V131.631C240.975 124.388 238.706 118.956 233.942 115.108C229.178 111.261 222.826 109.224 214.658 109.224C205.81 109.224 198.777 111.261 193.332 115.108C188.114 118.956 184.711 124.162 183.123 130.273L127.994 127.557C130.036 115.561 134.573 105.149 141.833 96.0959C149.093 87.0423 158.848 79.7995 171.099 74.5937C183.35 69.3879 197.87 66.8982 214.885 66.8982C226.909 66.8982 238.026 68.2562 248.462 71.1986C258.898 73.9147 267.973 78.2151 275.686 83.6473C283.4 89.0794 289.525 95.8695 294.063 104.018C298.373 112.166 300.642 121.672 300.642 132.536V265.171H244.378V237.784H242.79C239.387 244.348 235.076 249.78 229.632 254.533C224.414 259.06 218.061 262.681 210.575 264.945C203.315 267.208 194.921 268.34 185.619 268.34ZM203.768 228.73C211.028 228.73 217.381 227.372 223.052 224.43C228.724 221.488 233.262 217.64 236.438 212.66C239.841 207.681 241.429 201.796 241.429 195.232V175.767C239.614 176.672 237.572 177.578 234.85 178.483C232.127 179.388 229.178 180.068 226.002 180.747C222.826 181.426 219.422 182.105 216.246 182.557C212.843 183.01 209.894 183.689 206.945 183.915C200.819 184.821 195.601 186.179 191.291 188.216C186.98 190.253 183.577 192.742 181.308 196.138C179.04 199.306 177.905 203.38 177.905 207.907C177.905 214.697 180.401 219.903 185.392 223.298C189.703 226.92 196.055 228.73 203.768 228.73Z" fill="black"/>
<path d="M305.656 264.945L333.561 69.1624H393.228L365.323 264.945H305.656Z" fill="black"/>
<path d="M335.809 51.2814L343.522 0.581543H403.189L395.475 51.2814H335.809Z" fill="black"/>
<path d="M460.594 152.681L451.065 264.945H391.398L407.733 69.1619H464.451L461.728 104.471H463.997C469.215 92.7011 477.382 83.4212 488.272 76.631C499.162 69.8409 512.093 66.4458 526.613 66.4458C540.225 66.4458 552.022 69.3882 561.778 75.4993C571.533 81.6105 578.793 90.2114 583.33 101.076C588.095 112.166 589.683 125.068 588.321 140.006L577.886 264.718H518.219L527.747 151.323C528.655 140.232 526.613 131.405 521.395 125.068C516.177 118.73 508.463 115.335 498.027 115.335C491.221 115.335 485.323 116.693 479.878 119.635C474.433 122.578 470.122 126.878 466.719 132.31C463.316 138.195 461.274 144.759 460.594 152.681Z" fill="black"/>
<path d="M780.471 127.557L726.476 129.594C726.476 125.294 725.569 121.672 723.527 118.277C721.485 115.109 718.763 112.393 714.906 110.582C711.049 108.771 706.739 107.866 701.294 107.866C692.9 107.866 685.413 109.676 678.834 113.524C672.254 117.372 668.624 122.125 667.717 128.01C667.036 131.405 667.944 134.347 670.439 136.837C672.935 139.327 678.38 141.364 686.774 143.175L722.62 150.417C741.45 154.265 755.062 160.603 763.456 169.883C771.85 179.162 774.8 191.158 772.304 206.097C770.262 218.772 764.59 229.862 755.516 239.369C746.441 248.875 734.871 256.118 721.031 261.097C707.192 266.303 691.765 268.793 674.75 268.793C646.618 268.793 625.519 263.134 611.226 251.817C596.934 240.5 590.128 225.336 590.808 206.323L648.887 204.512C649.114 211.982 651.609 217.414 656.6 221.261C661.365 225.109 668.171 227.146 676.338 227.146C685.64 227.373 693.807 225.336 700.386 221.261C706.966 217.187 710.822 212.208 711.503 206.549C712.184 202.475 710.822 199.307 707.873 197.043C704.697 194.78 699.252 192.743 691.085 191.158L658.189 184.595C639.358 180.973 625.746 174.183 617.352 163.998C608.958 153.813 606.235 141.138 608.731 125.52C610.773 113.072 615.991 102.434 624.158 93.6064C632.325 84.7792 642.988 78.2154 656.147 73.4623C669.305 68.9355 684.279 66.4458 701.294 66.4458C727.838 66.4458 748.029 71.8779 761.641 82.7422C775.48 93.6064 781.606 108.545 780.471 127.557Z" fill="black"/>
<path d="M913.657 69.1641L906.851 113.3H785.021L791.828 69.1641H913.657ZM824.951 22.0856H884.617L857.62 203.836C856.939 208.136 857.166 211.531 858.074 213.794C858.981 216.284 860.796 218.095 863.065 219C865.56 220.132 868.283 220.585 871.686 220.585C874.181 220.585 876.677 220.358 879.399 219.679C882.122 219.227 884.164 218.774 885.752 218.548L888.474 262.005C885.298 262.91 881.214 264.042 875.769 265.173C870.325 266.305 863.972 266.984 856.486 267.437C842.193 268.116 830.395 266.305 820.64 262.231C811.112 258.157 804.079 251.819 799.995 243.219C795.911 234.618 794.777 223.753 797.046 210.852L824.951 22.0856Z" fill="black"/>
<path d="M1002.14 268.566C981.946 268.566 964.477 264.266 949.73 255.891C934.983 247.517 923.64 235.747 915.699 220.582C907.759 205.418 903.902 187.763 903.902 167.619C903.902 147.475 907.759 129.821 915.699 114.656C923.64 99.4912 934.983 87.7216 949.73 79.1208C964.477 70.7462 981.946 66.4458 1002.14 66.4458C1022.56 66.4458 1040.02 70.7462 1054.77 79.1208C1069.52 87.4953 1080.63 99.4912 1088.57 114.656C1096.51 129.821 1100.37 147.475 1100.37 167.619C1100.37 187.763 1096.51 205.418 1088.57 220.582C1080.63 235.747 1069.29 247.517 1054.77 255.891C1040.02 264.266 1022.56 268.566 1002.14 268.566ZM1002.36 223.298C1010.3 223.298 1017.11 220.809 1022.78 216.056C1028.23 211.303 1032.54 204.739 1035.26 196.138C1038.21 187.763 1039.57 178.031 1039.57 166.94C1039.57 155.85 1038.21 146.117 1035.26 137.742C1032.31 129.368 1028.23 122.804 1022.78 117.825C1017.34 113.072 1010.53 110.582 1002.36 110.582C994.196 110.582 987.163 113.072 981.492 117.825C975.82 122.578 971.51 129.142 968.787 137.742C965.838 146.117 964.477 155.85 964.477 166.94C964.477 177.804 965.838 187.537 968.787 196.138C971.736 204.512 976.047 211.303 981.492 216.056C987.163 221.035 994.196 223.298 1002.36 223.298Z" fill="black"/>
<path d="M1113.29 264.946V69.1635H1171.14V104.246H1173.18C1176.81 91.571 1182.71 82.0648 1190.88 75.7273C1199.05 69.3898 1208.57 66.2211 1219.46 66.2211C1222.19 66.2211 1225.14 66.4474 1228.31 66.6737C1231.49 67.1264 1234.21 67.5791 1236.71 68.2581V120.316C1233.98 119.411 1230.13 118.732 1225.36 118.053C1220.6 117.6 1216.29 117.147 1212.66 117.147C1205.17 117.147 1198.37 118.732 1192.24 122.127C1186.11 125.522 1181.35 130.049 1177.95 135.933C1174.54 141.818 1172.73 148.835 1172.73 156.53V264.494H1113.29V264.946Z" fill="black"/>
<path d="M1242.61 264.947V69.1637H1299.33V104.699H1301.6C1305.68 92.9293 1312.49 83.6494 1322.24 76.8593C1332 70.0691 1343.57 66.674 1356.95 66.674C1370.57 66.674 1382.14 70.0691 1391.66 77.0856C1401.19 83.8757 1407.55 93.1556 1410.27 104.699H1412.31C1416.17 93.1556 1423.43 84.1021 1433.86 77.0856C1444.53 70.0691 1457 66.674 1471.3 66.674C1489.67 66.674 1504.87 72.5588 1516.44 84.3284C1528.01 96.098 1533.91 112.394 1533.91 133.218V264.947H1474.25V146.119C1474.25 135.934 1471.52 128.238 1466.3 123.032C1461.09 117.827 1454.28 115.11 1445.89 115.11C1436.81 115.11 1429.78 118.053 1424.56 123.938C1419.34 129.822 1416.85 137.518 1416.85 147.251V265.173H1359.45V145.214C1359.45 135.934 1356.95 128.464 1351.74 123.032C1346.52 117.6 1339.71 114.884 1331.32 114.884C1325.65 114.884 1320.65 116.242 1316.34 118.958C1312.03 121.674 1308.4 125.522 1305.91 130.502C1303.41 135.481 1302.05 141.366 1302.05 148.156V264.494H1242.61V264.947Z" fill="black"/>
</svg>
