<svg width="103" height="16" viewBox="0 0 103 16" fill="none" xmlns="http://www.w3.org/2000/svg">
<path d="M0 14.8989V0.261475H6.02635C7.11974 0.261475 8.02242 0.413683 8.75982 0.730785C9.49722 1.04789 10.0439 1.47914 10.4253 2.03724C10.794 2.59534 10.9847 3.24223 10.9847 3.9779C10.9847 4.536 10.8703 5.04336 10.6288 5.47462C10.3999 5.90588 10.0693 6.26103 9.67522 6.54008C9.26838 6.81913 8.79796 7.02207 8.2767 7.13623V7.27575C8.86153 7.30112 9.39551 7.46602 9.90407 7.75775C10.3999 8.04948 10.8067 8.45537 11.1119 8.96273C11.417 9.48278 11.5696 10.0916 11.5696 10.8146C11.5696 11.601 11.3662 12.2986 10.972 12.9075C10.5779 13.5163 10.0058 14.011 9.24295 14.3535C8.49283 14.7086 7.56472 14.8862 6.48405 14.8862H0V14.8989ZM3.38188 6.32445H5.46694C5.86107 6.32445 6.21706 6.26103 6.5349 6.12151C6.85275 5.98198 7.09431 5.79172 7.27231 5.53804C7.4503 5.28436 7.5393 4.97994 7.5393 4.62479C7.5393 4.11743 7.3613 3.72422 7.00532 3.4198C6.64933 3.12807 6.15349 2.97586 5.53051 2.97586H3.38188V6.32445ZM3.38188 12.1591H5.69579C6.49676 12.1591 7.0816 12.0069 7.46301 11.7025C7.84443 11.3981 8.02242 10.9795 8.02242 10.4468C8.02242 10.0662 7.93342 9.73646 7.74272 9.44473C7.56472 9.153 7.29773 8.93737 6.95446 8.77247C6.61119 8.60758 6.21706 8.53148 5.74665 8.53148H3.38188V12.1591Z" fill="white"/>
<path d="M12.1953 14.8151V3.84336H15.4373V5.80939H15.5518C15.7552 5.09908 16.0857 4.56635 16.5434 4.2112C17.0011 3.85604 17.5351 3.67847 18.1454 3.67847C18.2979 3.67847 18.4632 3.69115 18.6412 3.70383C18.8192 3.7292 18.9718 3.75457 19.1116 3.79262V6.70995C18.9591 6.65922 18.7429 6.62117 18.4759 6.58311C18.209 6.55775 17.9674 6.53238 17.764 6.53238C17.3444 6.53238 16.963 6.62117 16.6197 6.81143C16.2765 7.00169 16.0095 7.25537 15.8188 7.58515C15.628 7.91494 15.5263 8.30814 15.5263 8.7394V14.7897H12.1953V14.8151Z" fill="white"/>
<path d="M22.5531 15.0054C21.8539 15.0054 21.2309 14.8912 20.6842 14.6502C20.1375 14.4092 19.7052 14.0541 19.4001 13.5721C19.095 13.0901 18.9297 12.4939 18.9297 11.7709C18.9297 11.1621 19.0441 10.642 19.2602 10.2362C19.4764 9.81758 19.7815 9.47511 20.1502 9.22143C20.5316 8.96775 20.9639 8.7648 21.4597 8.63796C21.9556 8.49844 22.4768 8.40965 23.0235 8.3716C23.6592 8.30818 24.1678 8.24476 24.5492 8.18134C24.9306 8.11792 25.2103 8.02913 25.3883 7.90229C25.5663 7.77545 25.6553 7.61056 25.6553 7.38224V7.34419C25.6553 6.9383 25.5282 6.63388 25.2612 6.41826C24.9942 6.20263 24.6382 6.08847 24.1805 6.08847C23.6847 6.08847 23.2905 6.20263 22.9854 6.41826C22.693 6.63388 22.5023 6.92562 22.4133 7.26809L19.3238 7.11588C19.4382 6.44362 19.6925 5.86016 20.0994 5.3528C20.5062 4.84543 21.0529 4.43954 21.7394 4.14781C22.426 3.85608 23.2397 3.71655 24.1932 3.71655C24.867 3.71655 25.49 3.79266 26.0749 3.95755C26.6597 4.10976 27.1682 4.35076 27.6005 4.65517C28.0328 4.95959 28.3761 5.34011 28.6303 5.79674C28.8719 6.25336 28.999 6.78609 28.999 7.39493V14.8278H25.846V13.293H25.757C25.5663 13.6608 25.3247 13.9653 25.0196 14.2316C24.7272 14.4853 24.3712 14.6883 23.9516 14.8151C23.5448 14.9419 23.0744 15.0054 22.5531 15.0054ZM23.5702 12.7856C23.9771 12.7856 24.3331 12.7095 24.6509 12.5447C24.9688 12.3798 25.223 12.1641 25.401 11.8851C25.5917 11.606 25.6807 11.2762 25.6807 10.9084V9.81758C25.579 9.86832 25.4646 9.91905 25.312 9.96979C25.1595 10.0205 24.9942 10.0586 24.8162 10.0966C24.6382 10.1347 24.4475 10.1727 24.2695 10.1981C24.0788 10.2235 23.9135 10.2615 23.7482 10.2742C23.405 10.3249 23.1125 10.401 22.871 10.5152C22.6294 10.6294 22.4387 10.7689 22.3116 10.9591C22.1844 11.1367 22.1209 11.365 22.1209 11.6187C22.1209 11.9992 22.2607 12.291 22.5404 12.4812C22.782 12.6842 23.138 12.7856 23.5702 12.7856Z" fill="white"/>
<path d="M29.2891 14.815L30.8529 3.84326H34.1966L32.6328 14.815H29.2891Z" fill="white"/>
<path d="M30.9766 2.84123L31.4088 0H34.7526L34.3203 2.84123H30.9766Z" fill="white"/>
<path d="M37.9637 8.52379L37.4297 14.8151H34.0859L35.0013 3.84337H38.1798L38.0272 5.82208H38.1544C38.4468 5.16251 38.9045 4.64247 39.5147 4.26194C40.125 3.88142 40.8497 3.69116 41.6634 3.69116C42.4262 3.69116 43.0873 3.85605 43.634 4.19852C44.1807 4.54099 44.5876 5.02299 44.8418 5.63182C45.1088 6.25334 45.1978 6.97633 45.1215 7.81348L44.5367 14.8024H41.193L41.7269 8.44768C41.7778 7.82616 41.6634 7.33149 41.371 6.97633C41.0785 6.62118 40.6463 6.43092 40.0614 6.43092C39.68 6.43092 39.3495 6.50702 39.0443 6.67191C38.7392 6.83681 38.4976 7.0778 38.3069 7.38222C38.1162 7.71201 38.0018 8.07984 37.9637 8.52379Z" fill="white"/>
<path d="M55.8892 7.11586L52.8633 7.23001C52.8633 6.98902 52.8124 6.78607 52.698 6.59581C52.5836 6.41823 52.431 6.26602 52.2149 6.16455C51.9987 6.06308 51.7572 6.01234 51.452 6.01234C50.9816 6.01234 50.5621 6.11382 50.1934 6.32944C49.8247 6.54507 49.6213 6.81144 49.5704 7.14122C49.5323 7.33149 49.5831 7.49638 49.723 7.6359C49.8628 7.77543 50.168 7.88958 50.6384 7.99106L52.6471 8.39694C53.7024 8.61257 54.4652 8.96773 54.9356 9.48777C55.406 10.0078 55.5713 10.6801 55.4315 11.5172C55.317 12.2275 54.9992 12.849 54.4906 13.3818C53.9821 13.9145 53.3337 14.3204 52.5581 14.5994C51.7826 14.8912 50.9181 15.0307 49.9645 15.0307C48.388 15.0307 47.2056 14.7136 46.4047 14.0794C45.6037 13.4452 45.2223 12.5954 45.2604 11.5299L48.5152 11.4284C48.5279 11.847 48.6677 12.1514 48.9474 12.3671C49.2144 12.5827 49.5958 12.6968 50.0535 12.6968C50.5748 12.7095 51.0325 12.5954 51.4012 12.3671C51.7699 12.1387 51.986 11.8597 52.0242 11.5426C52.0623 11.3143 51.986 11.1367 51.8207 11.0099C51.6428 10.883 51.3376 10.7689 50.8799 10.6801L49.0364 10.3122C47.9812 10.1093 47.2183 9.72877 46.7479 9.15799C46.2775 8.58721 46.125 7.8769 46.2648 7.0017C46.3792 6.30408 46.6716 5.70793 47.1293 5.21325C47.587 4.71857 48.1846 4.35073 48.922 4.08437C49.6594 3.83069 50.4985 3.69116 51.452 3.69116C52.9396 3.69116 54.0711 3.99558 54.8339 4.60441C55.6095 5.21325 55.9527 6.0504 55.8892 7.11586Z" fill="white"/>
<path d="M63.3572 3.84336L62.9758 6.31675H56.1484L56.5299 3.84336H63.3572ZM58.3861 1.20508H61.7298L60.2169 11.3904C60.1787 11.6314 60.1914 11.8216 60.2423 11.9485C60.2931 12.088 60.3949 12.1895 60.522 12.2402C60.6618 12.3036 60.8144 12.329 61.0051 12.329C61.145 12.329 61.2848 12.3163 61.4374 12.2783C61.59 12.2529 61.7044 12.2275 61.7934 12.2148L61.9459 14.6502C61.7679 14.7009 61.5391 14.7643 61.234 14.8277C60.9288 14.8912 60.5728 14.9292 60.1533 14.9546C59.3523 14.9926 58.6912 14.8912 58.1445 14.6629C57.6105 14.4345 57.2164 14.0794 56.9876 13.5974C56.7587 13.1154 56.6951 12.5066 56.8223 11.7836L58.3861 1.20508Z" fill="white"/>
<path d="M68.3098 15.018C67.1782 15.018 66.1993 14.777 65.3729 14.3077C64.5465 13.8384 63.9108 13.1788 63.4658 12.329C63.0208 11.4792 62.8047 10.4898 62.8047 9.36093C62.8047 8.23205 63.0208 7.2427 63.4658 6.39287C63.9108 5.54303 64.5465 4.88346 65.3729 4.40147C66.1993 3.93216 67.1782 3.69116 68.3098 3.69116C69.454 3.69116 70.433 3.93216 71.2594 4.40147C72.0858 4.87078 72.7087 5.54303 73.1537 6.39287C73.5987 7.2427 73.8149 8.23205 73.8149 9.36093C73.8149 10.4898 73.5987 11.4792 73.1537 12.329C72.7087 13.1788 72.0731 13.8384 71.2594 14.3077C70.433 14.777 69.454 15.018 68.3098 15.018ZM68.3225 12.4812C68.7675 12.4812 69.1489 12.3417 69.4667 12.0753C69.7719 11.809 70.0134 11.4411 70.166 10.9591C70.3313 10.4898 70.4076 9.9444 70.4076 9.32288C70.4076 8.70136 70.3313 8.15595 70.166 7.68664C70.0007 7.21733 69.7719 6.84949 69.4667 6.57044C69.1616 6.30408 68.7802 6.16455 68.3225 6.16455C67.8648 6.16455 67.4707 6.30408 67.1528 6.57044C66.835 6.83681 66.5934 7.20464 66.4408 7.68664C66.2756 8.15595 66.1993 8.70136 66.1993 9.32288C66.1993 9.93172 66.2756 10.4771 66.4408 10.9591C66.6061 11.4284 66.8477 11.809 67.1528 12.0753C67.4707 12.3544 67.8648 12.4812 68.3225 12.4812Z" fill="white"/>
<path d="M74.5391 14.8151V3.84336H77.7811V5.80939H77.8955C78.0989 5.09908 78.4295 4.56635 78.8872 4.2112C79.3449 3.85604 79.8789 3.67847 80.4891 3.67847C80.6417 3.67847 80.807 3.69115 80.985 3.70383C81.163 3.7292 81.3155 3.75457 81.4554 3.79262V6.70995C81.3028 6.65922 81.0867 6.62117 80.8197 6.58311C80.5527 6.55775 80.3111 6.53238 80.1077 6.53238C79.6882 6.53238 79.3067 6.62117 78.9635 6.81143C78.6202 7.00169 78.3532 7.25537 78.1625 7.58515C77.9718 7.91494 77.8701 8.30814 77.8701 8.7394V14.7897H74.5391V14.8151Z" fill="white"/>
<path d="M81.7812 14.8151V3.84338H84.9597V5.83478H85.0868C85.3157 5.17521 85.6971 4.65516 86.2438 4.27464C86.7905 3.89412 87.4389 3.70386 88.189 3.70386C88.9518 3.70386 89.6003 3.89412 90.1342 4.28732C90.6682 4.66784 91.0242 5.18789 91.1768 5.83478H91.2912C91.5073 5.18789 91.9142 4.68053 92.499 4.28732C93.0965 3.89412 93.7958 3.70386 94.5968 3.70386C95.6266 3.70386 96.4784 4.03364 97.1268 4.69321C97.7752 5.35278 98.1058 6.26604 98.1058 7.43297V14.8151H94.7621V8.15596C94.7621 7.58518 94.6095 7.15392 94.3171 6.86219C94.0247 6.57045 93.6432 6.41824 93.1728 6.41824C92.6643 6.41824 92.2702 6.58314 91.9777 6.91292C91.6853 7.24271 91.5455 7.67396 91.5455 8.21938V14.8278H88.3289V8.10522C88.3289 7.58518 88.189 7.1666 87.8966 6.86219C87.6042 6.55777 87.2228 6.40556 86.7524 6.40556C86.4345 6.40556 86.1548 6.48166 85.9132 6.63387C85.6717 6.78608 85.4683 7.00171 85.3284 7.28076C85.1885 7.55981 85.1123 7.88959 85.1123 8.27011V14.7897H81.7812V14.8151Z" fill="white"/>
<path d="M103 11.335H99.4531V14.8738H103V11.335Z" fill="white"/>
</svg>
