<svg width="186" height="28" viewBox="0 0 186 28" fill="none" xmlns="http://www.w3.org/2000/svg">
<path d="M0 26.8797V0.472107H10.8829C12.8574 0.472107 14.4875 0.74671 15.8192 1.3188C17.1509 1.89089 18.1381 2.66893 18.8269 3.67581C19.4927 4.68268 19.8371 5.84974 19.8371 7.17699C19.8371 8.18387 19.6305 9.09921 19.1943 9.87725C18.781 10.6553 18.184 11.296 17.4723 11.7995C16.7376 12.3029 15.8881 12.669 14.9467 12.875V13.1267C16.0029 13.1725 16.9672 13.47 17.8856 13.9963C18.781 14.5226 19.5157 15.2549 20.0667 16.1702C20.6178 17.1085 20.8933 18.2069 20.8933 19.5112C20.8933 20.93 20.5259 22.1886 19.8142 23.287C19.1024 24.3854 18.0692 25.2779 16.6917 25.8957C15.337 26.5365 13.661 26.8569 11.7094 26.8569H0V26.8797ZM6.10727 11.4104H9.87265C10.5844 11.4104 11.2273 11.296 11.8013 11.0443C12.3752 10.7926 12.8115 10.4493 13.1329 9.99167C13.4544 9.534 13.6151 8.98479 13.6151 8.34405C13.6151 7.42871 13.2936 6.71932 12.6508 6.17011C12.0079 5.64379 11.1125 5.36919 9.98744 5.36919H6.10727V11.4104ZM6.10727 21.9369H10.2859C11.7324 21.9369 12.7885 21.6623 13.4773 21.1131C14.1661 20.5639 14.4875 19.8087 14.4875 18.8476C14.4875 18.1611 14.3268 17.5661 13.9824 17.0398C13.661 16.5135 13.1788 16.1245 12.5589 15.827C11.939 15.5295 11.2273 15.3922 10.3778 15.3922H6.10727V21.9369Z" fill="black"/>
<path d="M22.0625 26.7282V6.93396H27.9172V10.4809H28.1238C28.4912 9.19943 29.0882 8.23832 29.9147 7.59758C30.7412 6.95684 31.7056 6.63647 32.8076 6.63647C33.0831 6.63647 33.3816 6.65936 33.703 6.68224C34.0245 6.72801 34.3 6.77378 34.5525 6.84243V12.1056C34.277 12.0141 33.8867 11.9455 33.4046 11.8768C32.9224 11.831 32.4862 11.7853 32.1188 11.7853C31.3612 11.7853 30.6724 11.9455 30.0525 12.2887C29.4325 12.632 28.9504 13.0896 28.606 13.6846C28.2616 14.2796 28.0779 14.989 28.0779 15.767V26.6825H22.0625V26.7282Z" fill="black"/>
<path d="M40.7701 27.0712C39.5073 27.0712 38.3823 26.8653 37.395 26.4305C36.4077 25.9957 35.6271 25.3549 35.0761 24.4854C34.525 23.6158 34.2266 22.5403 34.2266 21.2359C34.2266 20.1375 34.4332 19.1993 34.8235 18.467C35.2138 17.7118 35.7649 17.094 36.4307 16.6363C37.1195 16.1786 37.9001 15.8125 38.7955 15.5837C39.691 15.3319 40.6323 15.1718 41.6196 15.1031C42.7675 14.9887 43.6859 14.8743 44.3747 14.7598C45.0635 14.6454 45.5686 14.4852 45.8901 14.2564C46.2115 14.0276 46.3722 13.7301 46.3722 13.3182V13.2495C46.3722 12.5173 46.1426 11.9681 45.6605 11.579C45.1783 11.19 44.5354 10.9841 43.7089 10.9841C42.8135 10.9841 42.1017 11.19 41.5507 11.579C41.0226 11.9681 40.6782 12.4944 40.5175 13.1122L34.9383 12.8376C35.1449 11.6248 35.6041 10.5722 36.3388 9.65681C37.0736 8.74147 38.0608 8.0092 39.3006 7.48288C40.5405 6.95655 42.0099 6.70483 43.7319 6.70483C44.9487 6.70483 46.0737 6.84214 47.1299 7.13962C48.186 7.41422 49.1044 7.84901 49.885 8.39822C50.6657 8.94742 51.2856 9.63393 51.7448 10.4577C52.181 11.2815 52.4106 12.2427 52.4106 13.3411V26.7508H46.7166V23.9819H46.5559C46.2115 24.6455 45.7753 25.1947 45.2242 25.6753C44.6962 26.133 44.0533 26.4991 43.2956 26.7279C42.5609 26.9568 41.7114 27.0712 40.7701 27.0712ZM42.6068 23.0666C43.3415 23.0666 43.9844 22.9293 44.5584 22.6318C45.1324 22.3343 45.5916 21.9453 45.913 21.4418C46.2574 20.9384 46.4181 20.3434 46.4181 19.6798V17.7118C46.2345 17.8034 46.0278 17.8949 45.7523 17.9864C45.4768 18.078 45.1783 18.1466 44.8569 18.2153C44.5354 18.2839 44.191 18.3526 43.8696 18.3983C43.5252 18.4441 43.2267 18.5128 42.9283 18.5356C42.3084 18.6272 41.7803 18.7645 41.3441 18.9704C40.9078 19.1764 40.5634 19.4281 40.3338 19.7713C40.1042 20.0917 39.9894 20.5036 39.9894 20.9613C39.9894 21.6478 40.242 22.1741 40.7471 22.5174C41.1833 22.8835 41.8262 23.0666 42.6068 23.0666Z" fill="black"/>
<path d="M52.9219 26.7282L55.7459 6.9339H61.7843L58.9603 26.7282H52.9219Z" fill="black"/>
<path d="M55.9727 5.12592L56.7533 0H62.7917L62.011 5.12592H55.9727Z" fill="black"/>
<path d="M68.6082 15.3778L67.6439 26.7281H61.6055L63.2586 6.93378H68.9985L68.723 10.5036H68.9526C69.4806 9.31367 70.3072 8.37545 71.4092 7.68894C72.5113 7.00243 73.82 6.65918 75.2894 6.65918C76.667 6.65918 77.8609 6.95667 78.8482 7.57452C79.8354 8.19238 80.5701 9.06195 81.0293 10.1604C81.5115 11.2817 81.6722 12.586 81.5344 14.0963L80.4783 26.7052H74.4399L75.4042 15.2405C75.4961 14.1192 75.2894 13.2268 74.7613 12.586C74.2333 11.9453 73.4526 11.602 72.3965 11.602C71.7077 11.602 71.1108 11.7393 70.5597 12.0368C70.0087 12.3343 69.5725 12.7691 69.2281 13.3183C68.8837 13.9133 68.677 14.5769 68.6082 15.3778Z" fill="black"/>
<path d="M100.98 12.8377L95.5158 13.0437C95.5158 12.6089 95.424 12.2428 95.2173 11.8995C95.0107 11.5791 94.7352 11.3045 94.3449 11.1215C93.9546 10.9384 93.5183 10.8469 92.9673 10.8469C92.1178 10.8469 91.3601 11.0299 90.6943 11.419C90.0285 11.808 89.6611 12.2885 89.5693 12.8835C89.5004 13.2268 89.5922 13.5242 89.8448 13.776C90.0973 14.0277 90.6484 14.2336 91.4979 14.4167L95.1255 15.149C97.0311 15.538 98.4087 16.1787 99.2582 17.117C100.108 18.0552 100.406 19.268 100.154 20.7783C99.947 22.0598 99.373 23.1811 98.4546 24.1422C97.5363 25.1033 96.3653 25.8356 94.9648 26.339C93.5642 26.8654 92.003 27.1171 90.281 27.1171C87.434 27.1171 85.2988 26.545 83.8523 25.4008C82.4059 24.2566 81.7171 22.7234 81.7859 20.8012L87.6636 20.6182C87.6866 21.3733 87.9391 21.9225 88.4442 22.3115C88.9264 22.7006 89.6152 22.9065 90.4417 22.9065C91.3831 22.9294 92.2096 22.7234 92.8755 22.3115C93.5413 21.8996 93.9316 21.3962 94.0005 20.8241C94.0694 20.4122 93.9316 20.0918 93.6331 19.863C93.3117 19.6342 92.7607 19.4282 91.9341 19.268L88.605 18.6044C86.6993 18.2383 85.3217 17.5518 84.4722 16.522C83.6227 15.4922 83.3472 14.2108 83.5998 12.6318C83.8064 11.3732 84.3345 10.2977 85.161 9.40521C85.9876 8.51275 87.0667 7.84913 88.3983 7.36857C89.73 6.9109 91.2453 6.65918 92.9673 6.65918C95.6536 6.65918 97.697 7.20839 99.0746 8.3068C100.475 9.40521 101.095 10.9155 100.98 12.8377Z" fill="black"/>
<path d="M114.456 6.93398L113.767 11.3963H101.438L102.126 6.93398H114.456ZM105.478 2.17419H111.517L108.785 20.5497C108.716 20.9845 108.739 21.3277 108.831 21.5566C108.922 21.8083 109.106 21.9914 109.336 22.0829C109.588 22.1973 109.864 22.2431 110.208 22.2431C110.461 22.2431 110.713 22.2202 110.989 22.1516C111.264 22.1058 111.471 22.06 111.632 22.0371L111.907 26.4308C111.586 26.5223 111.172 26.6367 110.621 26.7511C110.07 26.8656 109.427 26.9342 108.67 26.98C107.223 27.0486 106.029 26.8656 105.042 26.4537C104.078 26.0418 103.366 25.401 102.953 24.5314C102.54 23.6619 102.425 22.5635 102.654 21.2591L105.478 2.17419Z" fill="black"/>
<path d="M123.395 27.0942C121.351 27.0942 119.583 26.6594 118.091 25.8127C116.599 24.966 115.451 23.7761 114.647 22.2429C113.843 20.7097 113.453 18.9248 113.453 16.8881C113.453 14.8515 113.843 13.0666 114.647 11.5334C115.451 10.0002 116.599 8.81024 118.091 7.94066C119.583 7.09397 121.351 6.65918 123.395 6.65918C125.461 6.65918 127.229 7.09397 128.721 7.94066C130.214 8.78735 131.339 10.0002 132.142 11.5334C132.946 13.0666 133.336 14.8515 133.336 16.8881C133.336 18.9248 132.946 20.7097 132.142 22.2429C131.339 23.7761 130.191 24.966 128.721 25.8127C127.229 26.6594 125.461 27.0942 123.395 27.0942ZM123.418 22.5175C124.221 22.5175 124.91 22.2658 125.484 21.7852C126.035 21.3047 126.471 20.641 126.747 19.7715C127.045 18.9248 127.183 17.9408 127.183 16.8195C127.183 15.6982 127.045 14.7142 126.747 13.8675C126.448 13.0208 126.035 12.3572 125.484 11.8537C124.933 11.3732 124.244 11.1215 123.418 11.1215C122.591 11.1215 121.879 11.3732 121.305 11.8537C120.731 12.3343 120.295 12.9979 120.02 13.8675C119.721 14.7142 119.583 15.6982 119.583 16.8195C119.583 17.9179 119.721 18.9019 120.02 19.7715C120.318 20.6182 120.754 21.3047 121.305 21.7852C121.879 22.2887 122.591 22.5175 123.418 22.5175Z" fill="black"/>
<path d="M134.672 26.7281V6.93384H140.527V10.4808H140.733C141.101 9.19931 141.698 8.2382 142.524 7.59746C143.351 6.95672 144.315 6.63635 145.417 6.63635C145.692 6.63635 145.991 6.65924 146.312 6.68212C146.634 6.72789 146.909 6.77365 147.162 6.8423V12.1055C146.886 12.014 146.496 11.9453 146.014 11.8767C145.532 11.8309 145.096 11.7852 144.728 11.7852C143.971 11.7852 143.282 11.9453 142.662 12.2886C142.042 12.6318 141.56 13.0895 141.215 13.6845C140.871 14.2795 140.687 14.9888 140.687 15.7669V26.6823H134.672V26.7281Z" fill="black"/>
<path d="M147.75 26.7281V6.93385H153.49V10.5266H153.72C154.133 9.33662 154.822 8.3984 155.809 7.71189C156.796 7.02538 157.967 6.68213 159.322 6.68213C160.699 6.68213 161.87 7.02538 162.834 7.73477C163.799 8.42128 164.442 9.35951 164.717 10.5266H164.924C165.314 9.35951 166.049 8.44416 167.105 7.73477C168.184 7.02538 169.447 6.68213 170.893 6.68213C172.753 6.68213 174.291 7.2771 175.462 8.46705C176.633 9.65699 177.23 11.3046 177.23 13.4099V26.7281H171.192V14.7143C171.192 13.6845 170.916 12.9065 170.388 12.3801C169.86 11.8538 169.171 11.5792 168.322 11.5792C167.403 11.5792 166.692 11.8767 166.164 12.4717C165.636 13.0666 165.383 13.8447 165.383 14.8287V26.751H159.574V14.6227C159.574 13.6845 159.322 12.9293 158.794 12.3801C158.266 11.8309 157.577 11.5563 156.727 11.5563C156.153 11.5563 155.648 11.6936 155.212 11.9682C154.776 12.2428 154.408 12.6319 154.156 13.1353C153.903 13.6387 153.765 14.2337 153.765 14.9202V26.6824H147.75V26.7281Z" fill="black"/>
<path d="M185.999 20.4494H179.594V26.8339H185.999V20.4494Z" fill="black"/>
</svg>
