<svg width="1920" height="1080" viewBox="0 0 1920 1080" fill="none" xmlns="http://www.w3.org/2000/svg">
<line x1="287.345" y1="157" x2="287.345" y2="296.608" stroke="#373737" stroke-width="1.08223"/>
<line x1="356.608" y1="227.345" x2="217" y2="227.345" stroke="#373737" stroke-width="1.08223"/>
<line x1="287.345" y1="455.696" x2="287.345" y2="595.304" stroke="#373737" stroke-width="1.08223"/>
<line x1="356.608" y1="526.041" x2="217" y2="526.041" stroke="#373737" stroke-width="1.08223"/>
<line x1="287.345" y1="783.392" x2="287.345" y2="923" stroke="#373737" stroke-width="1.08223"/>
<line x1="356.608" y1="853.737" x2="217" y2="853.737" stroke="#373737" stroke-width="1.08223"/>
<line x1="623.952" y1="157" x2="623.952" y2="296.608" stroke="#373737" stroke-width="1.08223"/>
<line x1="693.216" y1="227.345" x2="553.608" y2="227.345" stroke="#373737" stroke-width="1.08223"/>
<line x1="623.953" y1="455.696" x2="623.953" y2="595.304" stroke="#373737" stroke-width="1.08223"/>
<line x1="693.217" y1="526.041" x2="553.609" y2="526.041" stroke="#373737" stroke-width="1.08223"/>
<line x1="623.952" y1="783.392" x2="623.952" y2="923" stroke="#373737" stroke-width="1.08223"/>
<line x1="693.216" y1="853.737" x2="553.608" y2="853.737" stroke="#373737" stroke-width="1.08223"/>
<line x1="960.562" y1="157" x2="960.562" y2="296.608" stroke="#373737" stroke-width="1.08223"/>
<line x1="1029.83" y1="227.345" x2="890.217" y2="227.345" stroke="#373737" stroke-width="1.08223"/>
<line x1="960.562" y1="455.696" x2="960.562" y2="595.304" stroke="#373737" stroke-width="1.08223"/>
<line x1="1029.83" y1="526.041" x2="890.217" y2="526.041" stroke="#373737" stroke-width="1.08223"/>
<line x1="960.562" y1="783.392" x2="960.562" y2="923" stroke="#373737" stroke-width="1.08223"/>
<line x1="1029.83" y1="853.737" x2="890.217" y2="853.737" stroke="#373737" stroke-width="1.08223"/>
<line x1="1297.17" y1="157" x2="1297.17" y2="296.608" stroke="#373737" stroke-width="1.08223"/>
<line x1="1366.43" y1="227.345" x2="1226.82" y2="227.345" stroke="#373737" stroke-width="1.08223"/>
<line x1="1297.17" y1="455.696" x2="1297.17" y2="595.304" stroke="#373737" stroke-width="1.08223"/>
<line x1="1366.43" y1="526.041" x2="1226.82" y2="526.041" stroke="#373737" stroke-width="1.08223"/>
<line x1="1297.17" y1="783.392" x2="1297.17" y2="923" stroke="#373737" stroke-width="1.08223"/>
<line x1="1366.43" y1="853.737" x2="1226.82" y2="853.737" stroke="#373737" stroke-width="1.08223"/>
<line x1="1633.78" y1="157" x2="1633.78" y2="296.608" stroke="#373737" stroke-width="1.08223"/>
<line x1="1703.04" y1="227.345" x2="1563.43" y2="227.345" stroke="#373737" stroke-width="1.08223"/>
<line x1="1633.78" y1="455.696" x2="1633.78" y2="595.304" stroke="#373737" stroke-width="1.08223"/>
<line x1="1703.04" y1="526.041" x2="1563.43" y2="526.041" stroke="#373737" stroke-width="1.08223"/>
<line x1="1633.78" y1="783.392" x2="1633.78" y2="923" stroke="#373737" stroke-width="1.08223"/>
<line x1="1703.04" y1="853.737" x2="1563.43" y2="853.737" stroke="#373737" stroke-width="1.08223"/>
</svg>
