<svg width="1920" height="1080" viewBox="0 0 1920 1080" fill="none" xmlns="http://www.w3.org/2000/svg">
<line x1="288.541" y1="160" x2="288.541" y2="299.608" stroke="#EAEAEA" stroke-width="1.08223"/>
<line x1="357.803" y1="230.345" x2="218.195" y2="230.345" stroke="#EAEAEA" stroke-width="1.08223"/>
<line x1="288.541" y1="470.196" x2="288.541" y2="609.804" stroke="#EAEAEA" stroke-width="1.08223"/>
<line x1="357.803" y1="540.541" x2="218.195" y2="540.541" stroke="#EAEAEA" stroke-width="1.08223"/>
<line x1="288.541" y1="780.392" x2="288.541" y2="920" stroke="#EAEAEA" stroke-width="1.08223"/>
<line x1="357.803" y1="850.737" x2="218.195" y2="850.737" stroke="#EAEAEA" stroke-width="1.08223"/>
<line x1="624.541" y1="160" x2="624.541" y2="299.608" stroke="#EAEAEA" stroke-width="1.08223"/>
<line x1="693.803" y1="230.345" x2="554.195" y2="230.345" stroke="#EAEAEA" stroke-width="1.08223"/>
<line x1="624.541" y1="470.196" x2="624.541" y2="609.804" stroke="#EAEAEA" stroke-width="1.08223"/>
<line x1="693.803" y1="540.541" x2="554.195" y2="540.541" stroke="#EAEAEA" stroke-width="1.08223"/>
<line x1="624.541" y1="780.392" x2="624.541" y2="920" stroke="#EAEAEA" stroke-width="1.08223"/>
<line x1="693.803" y1="850.737" x2="554.195" y2="850.737" stroke="#EAEAEA" stroke-width="1.08223"/>
<line x1="960.541" y1="160" x2="960.541" y2="299.608" stroke="#EAEAEA" stroke-width="1.08223"/>
<line x1="1029.8" y1="230.345" x2="890.195" y2="230.345" stroke="#EAEAEA" stroke-width="1.08223"/>
<line x1="960.541" y1="470.196" x2="960.541" y2="609.804" stroke="#EAEAEA" stroke-width="1.08223"/>
<line x1="1029.8" y1="540.541" x2="890.195" y2="540.541" stroke="#EAEAEA" stroke-width="1.08223"/>
<line x1="960.541" y1="780.392" x2="960.541" y2="920" stroke="#EAEAEA" stroke-width="1.08223"/>
<line x1="1029.8" y1="850.737" x2="890.195" y2="850.737" stroke="#EAEAEA" stroke-width="1.08223"/>
<line x1="1296.54" y1="160" x2="1296.54" y2="299.608" stroke="#EAEAEA" stroke-width="1.08223"/>
<line x1="1365.8" y1="230.345" x2="1226.19" y2="230.345" stroke="#EAEAEA" stroke-width="1.08223"/>
<line x1="1296.54" y1="470.196" x2="1296.54" y2="609.804" stroke="#EAEAEA" stroke-width="1.08223"/>
<line x1="1365.8" y1="540.541" x2="1226.19" y2="540.541" stroke="#EAEAEA" stroke-width="1.08223"/>
<line x1="1296.54" y1="780.392" x2="1296.54" y2="920" stroke="#EAEAEA" stroke-width="1.08223"/>
<line x1="1365.8" y1="850.737" x2="1226.19" y2="850.737" stroke="#EAEAEA" stroke-width="1.08223"/>
<line x1="1632.54" y1="160" x2="1632.54" y2="299.608" stroke="#EAEAEA" stroke-width="1.08223"/>
<line x1="1701.8" y1="230.345" x2="1562.19" y2="230.345" stroke="#EAEAEA" stroke-width="1.08223"/>
<line x1="1632.54" y1="470.196" x2="1632.54" y2="609.804" stroke="#EAEAEA" stroke-width="1.08223"/>
<line x1="1701.8" y1="540.541" x2="1562.19" y2="540.541" stroke="#EAEAEA" stroke-width="1.08223"/>
<line x1="1632.54" y1="780.392" x2="1632.54" y2="920" stroke="#EAEAEA" stroke-width="1.08223"/>
<line x1="1701.8" y1="850.737" x2="1562.19" y2="850.737" stroke="#EAEAEA" stroke-width="1.08223"/>
</svg>
