<svg width="1440" height="870" viewBox="0 0 1440 870" fill="none" xmlns="http://www.w3.org/2000/svg">
<line x1="240.643" y1="160" x2="240.643" y2="299.608" stroke="#373737" stroke-width="1.08223"/>
<line x1="309.904" y1="230.345" x2="170.296" y2="230.345" stroke="#373737" stroke-width="1.08223"/>
<line x1="240.643" y1="365.196" x2="240.643" y2="504.804" stroke="#373737" stroke-width="1.08223"/>
<line x1="309.904" y1="435.541" x2="170.296" y2="435.541" stroke="#373737" stroke-width="1.08223"/>
<line x1="240.643" y1="570.392" x2="240.643" y2="710" stroke="#373737" stroke-width="1.08223"/>
<line x1="309.904" y1="640.737" x2="170.296" y2="640.737" stroke="#373737" stroke-width="1.08223"/>
<line x1="480.842" y1="160" x2="480.842" y2="299.608" stroke="#373737" stroke-width="1.08223"/>
<line x1="550.104" y1="230.345" x2="410.496" y2="230.345" stroke="#373737" stroke-width="1.08223"/>
<line x1="480.842" y1="365.196" x2="480.842" y2="504.804" stroke="#373737" stroke-width="1.08223"/>
<line x1="550.104" y1="435.541" x2="410.496" y2="435.541" stroke="#373737" stroke-width="1.08223"/>
<line x1="480.842" y1="570.392" x2="480.842" y2="710" stroke="#373737" stroke-width="1.08223"/>
<line x1="550.104" y1="640.737" x2="410.496" y2="640.737" stroke="#373737" stroke-width="1.08223"/>
<line x1="721.043" y1="160" x2="721.043" y2="299.608" stroke="#373737" stroke-width="1.08223"/>
<line x1="790.305" y1="230.345" x2="650.697" y2="230.345" stroke="#373737" stroke-width="1.08223"/>
<line x1="721.043" y1="365.196" x2="721.043" y2="504.804" stroke="#373737" stroke-width="1.08223"/>
<line x1="790.305" y1="435.541" x2="650.697" y2="435.541" stroke="#373737" stroke-width="1.08223"/>
<line x1="721.043" y1="570.392" x2="721.043" y2="710" stroke="#373737" stroke-width="1.08223"/>
<line x1="790.305" y1="640.737" x2="650.697" y2="640.737" stroke="#373737" stroke-width="1.08223"/>
<line x1="961.242" y1="160" x2="961.242" y2="299.608" stroke="#373737" stroke-width="1.08223"/>
<line x1="1030.5" y1="230.345" x2="890.896" y2="230.345" stroke="#373737" stroke-width="1.08223"/>
<line x1="961.242" y1="365.196" x2="961.242" y2="504.804" stroke="#373737" stroke-width="1.08223"/>
<line x1="1030.5" y1="435.541" x2="890.896" y2="435.541" stroke="#373737" stroke-width="1.08223"/>
<line x1="961.242" y1="570.392" x2="961.242" y2="710" stroke="#373737" stroke-width="1.08223"/>
<line x1="1030.5" y1="640.737" x2="890.896" y2="640.737" stroke="#373737" stroke-width="1.08223"/>
<line x1="1201.44" y1="160" x2="1201.44" y2="299.608" stroke="#373737" stroke-width="1.08223"/>
<line x1="1270.71" y1="230.345" x2="1131.1" y2="230.345" stroke="#373737" stroke-width="1.08223"/>
<line x1="1201.44" y1="365.196" x2="1201.44" y2="504.804" stroke="#373737" stroke-width="1.08223"/>
<line x1="1270.71" y1="435.541" x2="1131.1" y2="435.541" stroke="#373737" stroke-width="1.08223"/>
<line x1="1201.44" y1="570.392" x2="1201.44" y2="710" stroke="#373737" stroke-width="1.08223"/>
<line x1="1270.71" y1="640.737" x2="1131.1" y2="640.737" stroke="#373737" stroke-width="1.08223"/>
</svg>
