<svg width="72" height="73" viewBox="0 0 72 73" fill="none" xmlns="http://www.w3.org/2000/svg">
<g clip-path="url(#clip0_12327_10544)">
<rect width="72" height="72" transform="matrix(-1 -8.74228e-08 -8.74228e-08 1 72 0.5)" fill="#945FFF"/>
<path d="M89.0002 35.5035L147.034 79.2549L130.816 100.772L112.997 87.3372L91.7615 102.71L76.339 89.1504L57.6459 100.83L37.3907 75.8304L24.2968 77.4217L4.81228 57.1037L24.2557 38.4508L34.6049 49.2412L54.6665 34.2198L71.6113 49.1166L89.0002 35.5035Z" fill="#4D308E"/>
<path d="M92.0627 18.4038L150.096 62.1553L133.878 83.6722L116.059 70.2376L94.824 85.6102L79.4015 72.0508L60.7084 83.7306L40.4532 58.7308L27.3593 60.3221L7.87478 40.0041L27.3182 21.3512L37.6674 32.1416L57.729 17.1202L74.6738 32.0169L92.0627 18.4038Z" fill="#FFF7F0"/>
</g>
<defs>
<clipPath id="clip0_12327_10544">
<rect y="0.5" width="72" height="72" rx="36" fill="white"/>
</clipPath>
</defs>
</svg>
