<svg width="462" height="990" viewBox="0 0 462 990" fill="none" xmlns="http://www.w3.org/2000/svg">
<g clip-path="url(#clip0_9108_13814)">
<rect x="232.598" y="2230.07" width="2230.07" height="266.17" transform="rotate(-90 232.598 2230.07)" fill="white"/>
<line x1="349.27" y1="-0.318848" x2="349.27" y2="2230.07" stroke="#EAEAEA" stroke-width="1.54"/>
<line x1="487.898" y1="469.762" x2="232.333" y2="469.762" stroke="#EAEAEA" stroke-width="1.54"/>
<line x1="487.898" y1="821.744" x2="232.333" y2="821.744" stroke="#EAEAEA" stroke-width="1.54"/>
<line x1="487.898" y1="233.943" x2="232.333" y2="233.943" stroke="#EAEAEA" stroke-width="1.54"/>
<line x1="487.898" y1="939.073" x2="232.333" y2="939.073" stroke="#EAEAEA" stroke-width="1.54"/>
<line x1="487.898" y1="352.434" x2="232.333" y2="352.434" stroke="#EAEAEA" stroke-width="1.54"/>
<line x1="487.898" y1="587.09" x2="232.333" y2="587.09" stroke="#EAEAEA" stroke-width="1.54"/>
<line x1="487.898" y1="703.255" x2="232.333" y2="703.255" stroke="#EAEAEA" stroke-width="1.54"/>
<line x1="487.898" y1="116.617" x2="232.333" y2="116.617" stroke="#EAEAEA" stroke-width="1.54"/>
<rect x="232.598" y="2230.07" width="2230.07" height="266.17" transform="rotate(-90 232.598 2230.07)" stroke="#EAEAEA" stroke-width="1.54"/>
<path d="M0.800781 2230.39L0.800808 -0.000488281L233.133 -0.000485511L233.133 2230.39L0.800781 2230.39Z" fill="white"/>
<line x1="117.735" y1="0.000976572" x2="117.735" y2="2230.39" stroke="#EAEAEA" stroke-width="1.54"/>
<line x1="256.363" y1="470.081" x2="0.797897" y2="470.081" stroke="#EAEAEA" stroke-width="1.54"/>
<line x1="256.363" y1="822.063" x2="0.797897" y2="822.063" stroke="#EAEAEA" stroke-width="1.54"/>
<line x1="256.363" y1="234.263" x2="0.797897" y2="234.263" stroke="#EAEAEA" stroke-width="1.54"/>
<line x1="256.363" y1="939.393" x2="0.797897" y2="939.393" stroke="#EAEAEA" stroke-width="1.54"/>
<line x1="256.363" y1="352.754" x2="0.797897" y2="352.754" stroke="#EAEAEA" stroke-width="1.54"/>
<line x1="256.363" y1="587.41" x2="0.797897" y2="587.41" stroke="#EAEAEA" stroke-width="1.54"/>
<line x1="256.363" y1="703.575" x2="0.797897" y2="703.575" stroke="#EAEAEA" stroke-width="1.54"/>
<line x1="256.363" y1="116.936" x2="0.797897" y2="116.936" stroke="#EAEAEA" stroke-width="1.54"/>
<path d="M232.363 -0.00048552L232.363 2230.39L233.903 2230.39L233.903 -0.000485502L232.363 -0.00048552Z" fill="#EAEAEA"/>
</g>
<path d="M1.54 990V0H-1.54V990H1.54Z" fill="#EAEAEA" mask="url(#path-1-inside-1_9108_13814)"/>
<defs>
<clipPath id="clip0_9108_13814">
<path d="M0 0H462V990H0V0Z" fill="white"/>
</clipPath>
</defs>
</svg>
