<svg width="64" height="64" viewBox="0 0 64 64" fill="none" xmlns="http://www.w3.org/2000/svg">
<g filter="url(#filter0_d_12327_10679)">
<path d="M16 16L47.9949 28.3856L32.6664 32.7164L28.3485 48.0908L16 16Z" fill="#FF5E1F"/>
<path d="M16.5574 14.56C15.9878 14.3395 15.3416 14.4755 14.9092 14.907C14.4769 15.3386 14.3395 15.9844 14.5589 16.5545L26.9074 48.6454C27.1463 49.2663 27.7561 49.6644 28.4207 49.6333C29.0853 49.6022 29.6552 49.1489 29.8351 48.5084L33.919 33.967L48.4147 29.8715C49.054 29.6909 49.5061 29.1217 49.5373 28.4581C49.5685 27.7945 49.1718 27.1854 48.5523 26.9456L16.5574 14.56Z" stroke="white" stroke-width="3.08824" stroke-linejoin="round"/>
</g>
<defs>
<filter id="filter0_d_12327_10679" x="0.56112" y="0.558679" width="62.8778" height="62.9735" filterUnits="userSpaceOnUse" color-interpolation-filters="sRGB">
<feFlood flood-opacity="0" result="BackgroundImageFix"/>
<feColorMatrix in="SourceAlpha" type="matrix" values="0 0 0 0 0 0 0 0 0 0 0 0 0 0 0 0 0 0 127 0" result="hardAlpha"/>
<feOffset/>
<feGaussianBlur stdDeviation="6.17647"/>
<feComposite in2="hardAlpha" operator="out"/>
<feColorMatrix type="matrix" values="0 0 0 0 0 0 0 0 0 0 0 0 0 0 0 0 0 0 0.21 0"/>
<feBlend mode="normal" in2="BackgroundImageFix" result="effect1_dropShadow_12327_10679"/>
<feBlend mode="normal" in="SourceGraphic" in2="effect1_dropShadow_12327_10679" result="shape"/>
</filter>
</defs>
</svg>
