<svg width="347" height="250" viewBox="0 0 347 250" fill="none" xmlns="http://www.w3.org/2000/svg">
<g clip-path="url(#clip0_12392_10051)">
<path d="M1.77344 243.366V219.775H7.40125V228.704H7.51622C7.74618 228.165 8.07295 227.651 8.5026 227.148C8.9262 226.652 9.47083 226.24 10.1365 225.92C10.8021 225.599 11.5949 225.441 12.5268 225.441C13.7552 225.441 14.905 225.762 15.9761 226.41C17.0472 227.058 17.9125 228.05 18.5721 229.394C19.2318 230.738 19.5646 232.451 19.5646 234.534C19.5646 236.616 19.2499 238.214 18.6145 239.57C17.9791 240.92 17.1319 241.937 16.0608 242.609C14.9897 243.287 13.8036 243.62 12.4965 243.62C11.607 243.62 10.8324 243.475 10.1788 243.184C9.52529 242.893 8.98067 242.506 8.53891 242.034C8.09716 241.556 7.75828 241.047 7.52228 240.502H7.34679V243.372H1.77344V243.366ZM7.28627 234.522C7.28627 235.472 7.41335 236.301 7.67356 237.009C7.92772 237.718 8.30291 238.263 8.79307 238.65C9.28324 239.037 9.86417 239.231 10.548 239.231C11.2318 239.231 11.8248 239.037 12.3089 238.65C12.7931 238.263 13.1561 237.718 13.4103 237.009C13.6584 236.301 13.7855 235.472 13.7855 234.522C13.7855 233.571 13.6584 232.742 13.4103 232.046C13.1622 231.35 12.7931 230.805 12.315 230.423C11.8369 230.042 11.2439 229.848 10.548 229.848C9.85207 229.848 9.27113 230.036 8.78702 230.411C8.30291 230.787 7.93377 231.325 7.67356 232.021C7.41335 232.718 7.28627 233.553 7.28627 234.522Z" fill="black"/>
<path d="M25.4062 249.998C24.7284 249.998 24.093 249.944 23.4939 249.841C22.8948 249.738 22.3805 249.599 21.9508 249.429L23.1974 245.337C23.7481 245.519 24.2503 245.628 24.6981 245.658C25.1459 245.688 25.5332 245.616 25.86 245.446C26.1868 245.271 26.4349 244.968 26.6164 244.532L26.8343 243.999L20.5469 225.664H26.4409L29.7027 238.291H29.8842L33.1883 225.664H39.1187L32.45 245.053C32.1293 246.021 31.6754 246.875 31.0884 247.613C30.5014 248.352 29.745 248.939 28.8192 249.357C27.8933 249.78 26.7556 249.992 25.4062 249.992V249.998Z" fill="black"/>
<path d="M157.897 62.217L98 43.6028L104.899 21.3928L123.289 27.1072L136.057 8.42635L152.535 14.9398L164.311 0L188.057 14.4011L198.23 9.28594L219.984 20.1094L209.63 40.9332L198.078 35.1885L186.163 53.2458L168.051 46.0847L157.897 62.217Z" fill="#FF5E1F"/>
<path d="M26.8199 207.788C21.4583 207.788 16.484 207.159 11.9092 205.912C7.33431 204.659 3.36458 202.818 0 200.385L8.26018 188.69C11.8366 190.833 15.0862 192.395 18.0211 193.357C20.95 194.326 23.8486 194.804 26.7109 194.804C29.5732 194.804 31.8425 194.392 33.5248 193.569C35.2011 192.746 36.0483 191.656 36.0483 190.294C36.0483 189.223 35.5823 188.345 34.6564 187.667C33.7245 186.989 32.2601 186.505 30.2571 186.22L18.9954 184.501C13.3434 183.641 9.03476 181.765 6.06957 178.865C3.09832 175.966 1.61573 172.194 1.61573 167.545C1.61573 163.683 2.59606 160.372 4.56882 157.618C6.53552 154.863 9.34338 152.757 12.9924 151.286C16.6414 149.821 20.9984 149.088 26.0816 149.088C30.2268 149.088 34.3418 149.663 38.4144 150.808C42.493 151.952 46.2812 153.671 49.785 155.959L41.5248 167.115C38.4507 165.33 35.5157 164.022 32.726 163.199C29.9363 162.376 27.1466 161.964 24.3569 161.964C22.1361 161.964 20.3509 162.339 18.9954 163.09C17.6338 163.841 16.9561 164.827 16.9561 166.044C16.9561 167.188 17.4583 168.102 18.4568 168.78C19.4553 169.458 21.1739 169.979 23.6066 170.336L34.8682 172.055C40.4476 172.842 44.7562 174.682 47.794 177.582C50.8319 180.481 52.3508 184.144 52.3508 188.581C52.3508 192.304 51.2434 195.591 49.0285 198.454C46.8137 201.317 43.788 203.587 39.9635 205.27C36.139 206.947 31.7578 207.794 26.8259 207.794L26.8199 207.788Z" fill="black"/>
<path d="M87.0019 207.791C81.3499 207.791 76.2546 206.501 71.716 203.929C67.1714 201.356 63.5829 197.833 60.9385 193.359C58.294 188.892 56.9688 183.898 56.9688 178.389C56.9688 172.881 58.288 167.802 60.9385 163.365C63.5829 158.928 67.1775 155.411 71.716 152.795C76.2546 150.186 81.3499 148.879 87.0019 148.879C91.6494 148.879 96.0851 149.793 100.303 151.615C104.521 153.437 108.097 156.034 111.032 159.394L100.412 170.447C98.4088 168.159 96.3695 166.494 94.2999 165.459C92.2243 164.424 89.9368 163.903 87.4376 163.903C84.9384 163.903 82.6812 164.533 80.6782 165.78C78.6752 167.033 77.1018 168.752 75.9581 170.931C74.8144 173.117 74.2395 175.599 74.2395 178.389C74.2395 181.18 74.8325 183.559 76.0065 185.738C77.1865 187.923 78.8143 189.637 80.89 190.89C82.9656 192.143 85.2894 192.766 87.8612 192.766C90.2213 192.766 92.3998 192.264 94.4028 191.265C96.4058 190.266 98.3362 188.729 100.194 186.652L110.493 197.385C107.631 200.678 104.127 203.233 99.9822 205.055C95.837 206.877 91.5102 207.791 87.0019 207.791Z" fill="black"/>
<path d="M169.679 160.9C167.748 157.467 165.08 154.786 161.685 152.855C158.29 150.924 154.375 149.955 149.939 149.955C144.075 149.955 138.998 151.602 134.708 154.895V139.216L117.328 142.969V207.789L134.702 204.036V204.054V169.38C135.918 167.946 137.364 166.838 139.047 166.051C140.723 165.264 142.671 164.871 144.892 164.871C148.039 164.871 150.538 165.803 152.402 167.661C154.26 169.52 155.192 172.026 155.192 175.174V207.789L172.565 204.036V172.813C172.565 168.303 171.603 164.332 169.673 160.9H169.679Z" fill="black"/>
<path d="M211.102 207.791C205.311 207.791 200.089 206.489 195.441 203.874C190.794 201.265 187.108 197.742 184.391 193.305C181.674 188.868 180.312 183.898 180.312 178.389C180.312 172.881 181.668 167.893 184.391 163.419C187.108 158.952 190.794 155.411 195.441 152.795C200.089 150.186 205.311 148.879 211.102 148.879C216.893 148.879 222.116 150.186 226.763 152.795C231.411 155.411 235.096 158.952 237.813 163.419C240.53 167.893 241.892 172.881 241.892 178.389C241.892 183.898 240.53 188.868 237.813 193.305C235.096 197.742 231.411 201.265 226.763 203.874C222.116 206.489 216.893 207.791 211.102 207.791ZM211.102 192.766C213.747 192.766 216.107 192.125 218.182 190.835C220.258 189.546 221.898 187.814 223.114 185.629C224.33 183.45 224.936 181.035 224.936 178.389C224.936 175.744 224.33 173.22 223.114 171.04C221.898 168.861 220.234 167.124 218.128 165.835C216.016 164.545 213.674 163.903 211.102 163.903C208.53 163.903 206.182 164.545 204.076 165.835C201.964 167.124 200.306 168.855 199.09 171.04C197.874 173.226 197.269 175.671 197.269 178.389C197.269 181.107 197.874 183.45 199.09 185.629C200.306 187.814 201.971 189.546 204.076 190.835C206.182 192.125 208.53 192.766 211.102 192.766Z" fill="black"/>
<path d="M278.219 207.791C272.428 207.791 267.206 206.489 262.558 203.874C257.911 201.265 254.225 197.742 251.508 193.305C248.791 188.868 247.43 183.898 247.43 178.389C247.43 172.881 248.785 167.893 251.508 163.419C254.225 158.952 257.911 155.411 262.558 152.795C267.206 150.186 272.428 148.879 278.219 148.879C284.01 148.879 289.233 150.186 293.88 152.795C298.528 155.411 302.207 158.952 304.93 163.419C307.647 167.893 309.009 172.881 309.009 178.389C309.009 183.898 307.647 188.868 304.93 193.305C302.213 197.742 298.528 201.265 293.88 203.874C289.233 206.489 284.01 207.791 278.219 207.791ZM278.219 192.766C280.864 192.766 283.224 192.125 285.299 190.835C287.375 189.546 289.015 187.814 290.231 185.629C291.448 183.45 292.053 181.035 292.053 178.389C292.053 175.744 291.448 173.22 290.231 171.04C289.015 168.861 287.351 167.124 285.245 165.835C283.133 164.545 280.791 163.903 278.219 163.903C275.647 163.903 273.299 164.545 271.194 165.835C269.082 167.124 267.417 168.855 266.207 171.04C264.991 173.226 264.386 175.671 264.386 178.389C264.386 181.107 264.991 183.45 266.207 185.629C267.424 187.814 269.088 189.546 271.194 190.835C273.299 192.125 275.647 192.766 278.219 192.766Z" fill="black"/>
<path d="M65.9609 75.0229H98.6749V92.4084H65.9609V75.0229Z" fill="black"/>
<path d="M317.148 207.797V160.689L334.528 146.966V207.797H317.148Z" fill="black"/>
<path d="M317.148 160.688L332.985 139.216L346.97 149.537L334.528 166.408L317.148 160.688Z" fill="black"/>
<path d="M26.8198 133.933C21.4583 133.933 16.484 133.303 11.9092 132.056C7.33431 130.803 3.36458 128.963 0 126.53L8.26017 114.834C11.8366 116.977 15.0862 118.539 18.0211 119.502C20.95 120.47 23.8486 120.948 26.7109 120.948C29.5732 120.948 31.8425 120.537 33.5248 119.713C35.201 118.89 36.0482 117.801 36.0482 116.439C36.0482 115.367 35.5823 114.489 34.6564 113.811C33.7245 113.133 32.2601 112.649 30.257 112.365L18.9954 110.645C13.3434 109.786 9.03475 107.909 6.06956 105.01C3.09832 102.11 1.61573 98.3388 1.61573 93.6898C1.61573 89.8277 2.59605 86.5165 4.56276 83.7622C6.52947 81.0079 9.33733 78.9013 12.9863 77.4303C16.6353 75.9654 20.9923 75.2329 26.0695 75.2329C30.2147 75.2329 34.3296 75.808 38.4022 76.9521C42.4809 78.0962 46.2691 79.8153 49.7728 82.1035L41.5127 93.26C38.4385 91.4742 35.5036 90.1667 32.7139 89.3434C29.9242 88.5202 27.1345 88.1085 24.3448 88.1085C22.13 88.1085 20.3388 88.4838 18.9833 89.2345C17.6217 89.9851 16.9439 90.9718 16.9439 92.1885C16.9439 93.3326 17.4402 94.2467 18.4447 94.9247C19.4432 95.6027 21.1618 96.1233 23.5944 96.4804L34.8561 98.1996C40.4355 98.9865 44.7441 100.827 47.7819 103.726C50.8197 106.626 52.3386 110.288 52.3386 114.725C52.3386 118.448 51.2312 121.735 49.0104 124.599C46.7956 127.462 43.7698 129.732 39.9454 131.415C36.1209 133.091 31.7396 133.939 26.8077 133.939L26.8198 133.933Z" fill="black"/>
<path d="M65.9609 61.8273L83.3406 58.0742V112.476C83.3406 114.982 83.8913 116.75 85.0047 117.785C86.1121 118.82 88.0607 119.341 90.8504 119.341C92.2785 119.341 93.5856 119.25 94.7657 119.074C95.9457 118.899 97.2467 118.59 98.6809 118.16V132.216C97.1075 132.719 95.1045 133.131 92.6719 133.451C90.2392 133.772 88.1999 133.936 86.5599 133.936C79.7642 133.936 74.6326 132.416 71.1652 129.377C67.6977 126.339 65.9609 121.847 65.9609 115.909V61.8273Z" fill="black"/>
<path d="M133.641 133.935C127.85 133.935 122.628 132.633 117.98 130.018C113.333 127.409 109.647 123.886 106.93 119.449C104.213 115.012 102.852 110.042 102.852 104.533C102.852 99.0247 104.207 94.0367 106.93 89.5633C109.647 85.0958 113.327 81.5546 117.98 78.9395C122.628 76.3305 127.85 75.0229 133.641 75.0229C139.432 75.0229 144.655 76.3305 149.302 78.9395C153.95 81.5546 157.635 85.0958 160.352 89.5633C163.069 94.0367 164.431 99.0247 164.431 104.533C164.431 110.042 163.069 115.012 160.352 119.449C157.635 123.886 153.95 127.409 149.302 130.018C144.655 132.633 139.432 133.935 133.641 133.935ZM133.641 118.91C136.286 118.91 138.646 118.269 140.721 116.979C142.797 115.69 144.437 113.959 145.653 111.773C146.87 109.594 147.475 107.179 147.475 104.533C147.475 101.888 146.863 99.3637 145.653 97.1845C144.437 95.0053 142.773 93.2679 140.667 91.9786C138.555 90.6892 136.213 90.0475 133.641 90.0475C131.069 90.0475 128.721 90.6892 126.615 91.9786C124.504 93.2679 122.845 94.9992 121.629 97.1845C120.413 99.3698 119.808 101.815 119.808 104.533C119.808 107.251 120.413 109.594 121.629 111.773C122.845 113.959 124.504 115.69 126.615 116.979C128.721 118.269 131.069 118.91 133.641 118.91Z" fill="black"/>
<path d="M189.95 97.8811V133.935H172.57V77.1724H189.95V97.8811Z" fill="black"/>
<path d="M218.934 133.929V77.1662H236.314V80.8164C240.32 77.6686 245.04 76.0947 250.474 76.0947C254.05 76.0947 257.27 76.7727 260.126 78.1347C262.988 79.4967 265.385 81.4278 267.315 83.9278C269.602 81.4278 272.32 79.4907 275.466 78.1347C278.613 76.7788 282.044 76.0947 285.766 76.0947C290.056 76.0947 293.844 77.0633 297.136 78.9943C300.422 80.9254 303.018 83.607 304.912 87.0393C306.807 90.4716 307.757 94.4426 307.757 98.9524V133.935H290.377V101.313C290.377 98.1655 289.536 95.6654 287.854 93.801C286.171 91.9426 283.938 91.0103 281.149 91.0103C279.218 91.0103 277.463 91.3675 275.89 92.0818C274.317 92.7961 272.955 93.8736 271.811 95.3022C271.884 95.8773 271.938 96.4645 271.975 97.0698C272.011 97.6752 272.029 98.3047 272.029 98.9464V133.929H254.649V101.307C254.649 98.1594 253.808 95.6594 252.126 93.7949C250.444 91.9365 248.211 91.0043 245.421 91.0043C243.491 91.0043 241.754 91.3433 240.217 92.0213C238.68 92.6993 237.373 93.7223 236.302 95.0782V133.923H218.922L218.934 133.929Z" fill="black"/>
<path d="M180.82 104.353L200.875 77.1606L214.859 87.4817L202.418 104.353H180.82Z" fill="black"/>
<path d="M50.4062 243.411V219.645H60.1611C61.9281 219.645 63.3926 219.893 64.5847 220.408C65.7768 220.922 66.6603 221.624 67.2776 222.526C67.8767 223.434 68.1853 224.482 68.1853 225.68C68.1853 226.588 67.9977 227.412 67.6104 228.108C67.2413 228.81 66.7027 229.385 66.0673 229.839C65.4077 230.293 64.6452 230.62 63.8041 230.808V231.031C64.7481 231.074 65.6134 231.34 66.4364 231.812C67.2413 232.285 67.8948 232.944 68.391 233.768C68.8873 234.609 69.1293 235.602 69.1293 236.776C69.1293 238.053 68.8025 239.185 68.1611 240.172C67.5257 241.159 66.5998 241.964 65.3653 242.521C64.149 243.096 62.6483 243.387 60.8994 243.387H50.4062V243.405V243.411ZM55.8767 229.488H59.2534C59.8888 229.488 60.4697 229.385 60.9841 229.161C61.4985 228.937 61.8918 228.628 62.1762 228.211C62.4667 227.799 62.6059 227.303 62.6059 226.728C62.6059 225.904 62.3154 225.263 61.7405 224.772C61.1657 224.3 60.3608 224.052 59.3563 224.052H55.8767V229.488ZM55.8767 238.961H59.6225C60.9175 238.961 61.8676 238.713 62.4849 238.223C63.1021 237.727 63.3926 237.049 63.3926 236.183C63.3926 235.566 63.2473 235.027 62.9387 234.555C62.6483 234.082 62.2186 233.731 61.6619 233.465C61.1051 233.199 60.4697 233.071 59.7073 233.071H55.8828V238.961H55.8767Z" fill="black"/>
<path d="M70.1562 243.405V225.59H75.4028V228.78H75.5904C75.9172 227.624 76.4558 226.764 77.194 226.183C77.9323 225.602 78.7977 225.317 79.784 225.317C80.0321 225.317 80.2984 225.336 80.5889 225.36C80.8793 225.402 81.1214 225.445 81.3514 225.505V230.245C81.1032 230.16 80.7523 230.1 80.3226 230.039C79.893 229.997 79.4996 229.954 79.1729 229.954C78.4951 229.954 77.8778 230.1 77.3211 230.408C76.7644 230.717 76.3347 231.129 76.0261 231.667C75.7175 232.2 75.5541 232.842 75.5541 233.544V243.369H70.1623V243.411L70.1562 243.405Z" fill="black"/>
<path d="M86.9185 243.717C85.7869 243.717 84.7763 243.529 83.8928 243.142C83.0093 242.749 82.3073 242.173 81.8172 241.393C81.3209 240.612 81.0547 239.643 81.0547 238.469C81.0547 237.482 81.2423 236.635 81.5872 235.975C81.9382 235.297 82.4284 234.74 83.0274 234.328C83.6447 233.917 84.3467 233.59 85.1454 233.384C85.9503 233.16 86.7914 233.015 87.6749 232.954C88.7037 232.851 89.5267 232.748 90.1439 232.645C90.7612 232.542 91.215 232.397 91.4994 232.191C91.7899 231.986 91.9291 231.719 91.9291 231.35V231.289C91.9291 230.63 91.7233 230.133 91.2937 229.788C90.864 229.437 90.2831 229.255 89.5448 229.255C88.74 229.255 88.1046 229.443 87.6084 229.788C87.1364 230.139 86.8277 230.611 86.6825 231.168L81.684 230.92C81.8716 229.831 82.2831 228.88 82.9367 228.057C83.5963 227.234 84.4798 226.574 85.5932 226.102C86.7067 225.629 88.0199 225.399 89.563 225.399C90.6522 225.399 91.6628 225.52 92.6068 225.793C93.5508 226.041 94.3738 226.428 95.0758 226.925C95.7778 227.421 96.3284 228.039 96.7399 228.777C97.1333 229.516 97.339 230.381 97.339 231.374V243.445H92.2377V240.951H92.0925C91.7838 241.55 91.3905 242.04 90.9003 242.476C90.4283 242.888 89.8534 243.215 89.1696 243.426C88.51 243.632 87.7475 243.735 86.9064 243.735L86.9185 243.717ZM88.5645 240.115C89.2241 240.115 89.799 239.994 90.3133 239.722C90.8277 239.455 91.2392 239.104 91.5297 238.65C91.8383 238.196 91.9835 237.664 91.9835 237.064V235.291C91.8201 235.375 91.6326 235.454 91.3844 235.539C91.1363 235.624 90.8701 235.684 90.5796 235.745C90.2891 235.805 89.9805 235.866 89.6961 235.908C89.3875 235.951 89.1212 236.011 88.855 236.029C88.2982 236.114 87.8262 236.235 87.4329 236.423C87.0395 236.61 86.7309 236.834 86.5252 237.143C86.3194 237.434 86.2165 237.803 86.2165 238.214C86.2165 238.832 86.4404 239.304 86.8943 239.613C87.2876 239.94 87.8625 240.109 88.5584 240.109L88.5645 240.115Z" fill="black"/>
<path d="M97.7734 243.409L100.303 225.594H105.713L103.183 243.409H97.7734Z" fill="black"/>
<path d="M100.523 223.966L101.225 219.354H106.635L105.933 223.966H100.523Z" fill="black"/>
<path d="M111.83 233.192L110.965 243.404H105.555L107.037 225.589H112.181L111.933 228.803H112.139C112.611 227.732 113.355 226.89 114.341 226.273C115.328 225.655 116.502 225.347 117.821 225.347C119.055 225.347 120.126 225.613 121.01 226.17C121.893 226.727 122.553 227.508 122.965 228.494C123.394 229.505 123.539 230.68 123.418 232.036L122.474 243.386H117.064L117.93 233.065C118.015 232.054 117.827 231.255 117.355 230.674C116.883 230.099 116.181 229.79 115.237 229.79C114.62 229.79 114.087 229.911 113.591 230.183C113.095 230.45 112.707 230.843 112.399 231.34C112.09 231.872 111.903 232.472 111.842 233.192H111.83Z" fill="black"/>
<path d="M140.888 230.906L135.992 231.094C135.992 230.701 135.908 230.374 135.726 230.065C135.538 229.774 135.296 229.532 134.945 229.363C134.594 229.199 134.207 229.115 133.711 229.115C132.948 229.115 132.271 229.278 131.672 229.629C131.073 229.98 130.746 230.41 130.661 230.949C130.601 231.258 130.679 231.524 130.909 231.754C131.133 231.978 131.629 232.166 132.392 232.329L135.641 232.989C137.348 233.34 138.582 233.915 139.345 234.762C140.107 235.604 140.374 236.7 140.15 238.056C139.962 239.212 139.448 240.217 138.625 241.082C137.802 241.948 136.755 242.608 135.496 243.062C134.243 243.534 132.84 243.764 131.296 243.764C128.743 243.764 126.83 243.249 125.535 242.22C124.24 241.191 123.623 239.811 123.684 238.08L128.948 237.916C128.967 238.594 129.197 239.091 129.65 239.442C130.08 239.793 130.697 239.974 131.442 239.974C132.283 239.993 133.027 239.811 133.62 239.442C134.219 239.073 134.564 238.619 134.631 238.104C134.691 237.735 134.57 237.444 134.304 237.238C134.014 237.033 133.523 236.845 132.779 236.706L129.796 236.106C128.089 235.779 126.855 235.156 126.092 234.23C125.33 233.304 125.082 232.147 125.312 230.731C125.499 229.599 125.971 228.63 126.709 227.825C127.448 227.02 128.416 226.427 129.608 225.991C130.8 225.579 132.162 225.355 133.705 225.355C136.113 225.355 137.941 225.852 139.175 226.839C140.428 227.825 140.985 229.187 140.882 230.919L140.888 230.906Z" fill="black"/>
<path d="M152.956 225.596L152.339 229.61H141.289L141.906 225.596H152.956ZM144.914 221.311H150.324L147.873 237.848C147.812 238.242 147.831 238.551 147.915 238.756C148 238.98 148.163 239.15 148.369 239.229C148.593 239.332 148.841 239.374 149.15 239.374C149.374 239.374 149.604 239.356 149.852 239.289C150.1 239.247 150.281 239.204 150.427 239.186L150.675 243.139C150.384 243.224 150.015 243.327 149.525 243.43C149.029 243.533 148.454 243.593 147.776 243.636C146.481 243.696 145.41 243.533 144.527 243.163C143.661 242.794 143.026 242.213 142.657 241.432C142.288 240.651 142.185 239.658 142.39 238.49L144.92 221.317L144.914 221.311Z" fill="black"/>
<path d="M160.947 243.738C159.113 243.738 157.534 243.344 156.196 242.581C154.859 241.819 153.83 240.747 153.11 239.367C152.39 237.987 152.039 236.383 152.039 234.549C152.039 232.714 152.39 231.11 153.11 229.73C153.83 228.35 154.859 227.278 156.196 226.498C157.534 225.735 159.119 225.341 160.947 225.341C162.774 225.341 164.384 225.735 165.721 226.498C167.059 227.26 168.069 228.35 168.789 229.73C169.509 231.11 169.86 232.714 169.86 234.549C169.86 236.383 169.509 237.987 168.789 239.367C168.069 240.747 167.041 241.819 165.721 242.581C164.384 243.344 162.798 243.738 160.947 243.738ZM160.965 239.621C161.685 239.621 162.302 239.397 162.817 238.961C163.313 238.532 163.7 237.932 163.948 237.152C164.215 236.389 164.342 235.505 164.342 234.494C164.342 233.483 164.221 232.599 163.948 231.837C163.682 231.074 163.313 230.475 162.817 230.027C162.32 229.597 161.703 229.367 160.965 229.367C160.227 229.367 159.585 229.591 159.071 230.027C158.556 230.456 158.163 231.056 157.921 231.837C157.655 232.599 157.528 233.483 157.528 234.494C157.528 235.505 157.649 236.371 157.921 237.152C158.187 237.914 158.581 238.532 159.071 238.961C159.585 239.416 160.221 239.621 160.965 239.621Z" fill="black"/>
<path d="M171.047 243.405V225.59H176.293V228.78H176.481C176.808 227.624 177.346 226.764 178.085 226.183C178.823 225.602 179.688 225.317 180.675 225.317C180.923 225.317 181.189 225.336 181.48 225.36C181.77 225.402 182.012 225.445 182.242 225.505V230.245C181.994 230.16 181.643 230.1 181.213 230.039C180.784 229.997 180.39 229.954 180.063 229.954C179.386 229.954 178.768 230.1 178.212 230.408C177.655 230.717 177.225 231.129 176.917 231.667C176.608 232.2 176.445 232.842 176.445 233.544V243.369H171.053V243.411L171.047 243.405Z" fill="black"/>
<path d="M182.789 243.409V225.594H187.933V228.827H188.139C188.508 227.755 189.125 226.914 190.008 226.296C190.892 225.679 191.945 225.37 193.155 225.37C194.365 225.37 195.437 225.679 196.302 226.314C197.167 226.932 197.742 227.779 197.99 228.827H198.178C198.529 227.773 199.188 226.95 200.132 226.314C201.101 225.679 202.232 225.37 203.527 225.37C205.191 225.37 206.571 225.903 207.624 226.974C208.671 228.046 209.21 229.529 209.21 231.424V243.409H203.8V232.598C203.8 231.672 203.551 230.97 203.079 230.497C202.607 230.025 201.99 229.777 201.228 229.777C200.405 229.777 199.769 230.043 199.291 230.582C198.819 231.115 198.589 231.817 198.589 232.701V243.434H193.385V232.519C193.385 231.678 193.161 230.994 192.683 230.503C192.211 230.007 191.594 229.765 190.831 229.765C190.317 229.765 189.863 229.886 189.476 230.134C189.083 230.382 188.756 230.733 188.532 231.187C188.308 231.641 188.181 232.174 188.181 232.792V243.379H182.789V243.421V243.409Z" fill="black"/>
<path d="M216.571 237.625H210.828V243.369H216.571V237.625Z" fill="black"/>
</g>
<defs>
<clipPath id="clip0_12392_10051">
<rect width="347" height="250" fill="white"/>
</clipPath>
</defs>
</svg>
