<svg width="256" height="271" viewBox="0 0 256 271" fill="none" xmlns="http://www.w3.org/2000/svg">
<rect x="52.3477" y="141.893" width="131.287" height="91.4481" transform="rotate(-23.1875 52.3477 141.893)" fill="#15CA68"/>
<path d="M50.1443 141.738L133.192 156.347L174.059 87.3682" stroke="white"/>
<path d="M255 187.041L171.934 270.106" stroke="black" stroke-miterlimit="10"/>
<path d="M109.885 24.9118L26.819 107.978" stroke="black" stroke-miterlimit="10"/>
<path d="M83.8652 187.041L0.799466 270.106" stroke="black" stroke-miterlimit="10"/>
<path d="M254.5 187.541L83.3637 187.541L83.3637 86.9611C83.3637 39.7031 121.674 1.39286 168.932 1.39286C216.19 1.39286 254.5 39.703 254.5 86.961L254.5 187.541Z" stroke="black"/>
<path d="M172.436 269.606L1.29929 269.606L1.29928 169.026C1.29927 121.769 39.6094 83.4583 86.8674 83.4583C134.125 83.4583 172.436 121.768 172.436 169.026L172.436 269.606Z" stroke="black"/>
</svg>
