<svg width="133" height="133" viewBox="0 0 133 133" fill="none" xmlns="http://www.w3.org/2000/svg">
<path d="M49.9635 132.001C77.1736 132.001 99.2318 109.943 99.2318 82.7331C99.2318 55.523 77.1736 33.4648 49.9635 33.4648C22.7535 33.4648 0.695312 55.523 0.695312 82.7331C0.695312 109.943 22.7535 132.001 49.9635 132.001Z" stroke="black" stroke-width="0.6996" stroke-miterlimit="10"/>
<path d="M82.4284 99.5374C109.638 99.5374 131.697 77.4793 131.697 50.2692C131.697 23.0591 109.638 1.00098 82.4284 1.00098C55.2183 1.00098 33.1602 23.0591 33.1602 50.2692C33.1602 77.4793 55.2183 99.5374 82.4284 99.5374Z" stroke="black" stroke-width="0.6996" stroke-miterlimit="10"/>
<path d="M83.3828 119.015L118.52 83.6875" stroke="black" stroke-width="0.6996" stroke-miterlimit="10"/>
<path d="M18.6445 44.7315L47.8617 14.9414" stroke="black" stroke-width="0.6996" stroke-miterlimit="10"/>
</svg>
