<svg width="218" height="182" viewBox="0 0 218 182" fill="none" xmlns="http://www.w3.org/2000/svg">
<path d="M91.0372 181C140.763 181 181.074 140.706 181.074 91C181.074 41.2944 140.763 1 91.0372 1C41.311 1 1 41.2944 1 91C1 140.706 41.311 181 91.0372 181Z" stroke="black" stroke-width="2" stroke-miterlimit="10"/>
<path d="M109.269 169.048C151.594 169.048 185.905 134.751 185.905 92.4435C185.905 50.1359 151.594 15.8389 109.269 15.8389C66.9441 15.8389 32.6328 50.1359 32.6328 92.4435C32.6328 134.751 66.9441 169.048 109.269 169.048Z" stroke="black" stroke-width="2" stroke-miterlimit="10"/>
<path d="M128.402 157.099C163.327 157.099 191.64 128.799 191.64 93.8876C191.64 58.9767 163.327 30.6758 128.402 30.6758C93.4767 30.6758 65.1641 58.9767 65.1641 93.8876C65.1641 128.799 93.4767 157.099 128.402 157.099Z" stroke="black" stroke-width="2" stroke-miterlimit="10"/>
<path d="M148.43 145.15C175.955 145.15 198.269 122.845 198.269 95.3308C198.269 67.8165 175.955 45.5117 148.43 45.5117C120.904 45.5117 98.5898 67.8165 98.5898 95.3308C98.5898 122.845 120.904 145.15 148.43 145.15Z" stroke="black" stroke-width="2" stroke-miterlimit="10"/>
<path d="M170.254 133.2C190.38 133.2 206.695 116.892 206.695 96.7739C206.695 76.6563 190.38 60.3477 170.254 60.3477C150.128 60.3477 133.812 76.6563 133.812 96.7739C133.812 116.892 150.128 133.2 170.254 133.2Z" stroke="black" stroke-width="2" stroke-miterlimit="10"/>
<path d="M192.974 121.248C205.699 121.248 216.014 110.937 216.014 98.2174C216.014 85.4978 205.699 75.1865 192.974 75.1865C180.249 75.1865 169.934 85.4978 169.934 98.2174C169.934 110.937 180.249 121.248 192.974 121.248Z" stroke="black" stroke-width="2" stroke-miterlimit="10"/>
</svg>
