<svg width="208" height="182" viewBox="0 0 208 182" fill="none" xmlns="http://www.w3.org/2000/svg">
<path d="M22.3119 141.347L10.0529 121.098C3.65747 104.579 32.439 89.6591 100.13 84.8633C136.019 85.929 207.904 103.087 199.802 118.434C189.675 137.617 164.091 177.049 109.192 180.779C65.272 183.763 32.972 155.734 22.3119 141.347Z" fill="white"/>
<path d="M103.784 124.922C160.55 124.922 206.568 103.433 206.568 76.9251C206.568 50.4169 160.55 28.9278 103.784 28.9278C47.018 28.9277 0.999996 50.4169 0.999992 76.9251C0.999987 103.433 47.018 124.922 103.784 124.922Z" stroke="black" stroke-width="2" stroke-miterlimit="10"/>
<path d="M206.561 78.0293C206.561 134.578 160.576 180.418 103.849 180.418C47.1213 180.418 1.13671 134.578 1.13672 78.0293" stroke="black" stroke-width="2" stroke-miterlimit="10"/>
<path d="M103.628 112.118C145.625 112.118 179.67 96.1664 179.67 76.4895C179.67 56.8126 145.625 40.8613 103.628 40.8613C61.6312 40.8613 27.5859 56.8126 27.5859 76.4895C27.5859 96.1663 61.6312 112.118 103.628 112.118Z" stroke="black" stroke-width="2" stroke-miterlimit="10"/>
<path d="M103.63 95.9296C126.832 95.9296 145.64 87.1207 145.64 76.2544C145.64 65.388 126.832 56.5791 103.63 56.5791C80.4293 56.5791 61.6211 65.388 61.6211 76.2543C61.6211 87.1207 80.4293 95.9296 103.63 95.9296Z" stroke="black" stroke-width="2" stroke-miterlimit="10"/>
<path d="M104.297 1C76.6202 1 54.1836 23.334 54.1836 50.8845C54.1836 64.0127 57.6464 75.3549 65.975 84.262L140.988 84.8636C149.316 75.9565 154.411 64.0127 154.411 50.8845C154.411 23.334 131.974 1 104.297 1Z" fill="white"/>
<path d="M66.9786 85.8864C58.6499 76.9273 54.1836 64.38 54.1836 51.1753C54.1836 23.4642 76.6202 1 104.297 1C131.974 1 154.411 23.4642 154.411 51.1753C154.411 64.38 149.316 76.3934 140.988 85.3525" stroke="black" stroke-width="2"/>
</svg>
