<svg width="86" height="34" viewBox="0 0 86 34" fill="none" xmlns="http://www.w3.org/2000/svg">
<rect x="53.5" y="1.5" width="31" height="31" stroke="black" stroke-width="3"/>
<rect x="61.5" y="9.5" width="15" height="15" stroke="black" stroke-width="3"/>
<path d="M16.5129 34C7.37867 33.9897 -0.0154662 26.5634 2.42947e-05 17.4277C0.0155148 8.3695 7.46645 0.984531 16.5697 1.00002C25.58 1.01552 33.0206 8.49344 33 17.5052C32.9793 26.5737 25.549 34.0103 16.5129 34ZM4.59038 26.3775C4.62652 26.3723 4.66267 26.3671 4.69365 26.362C4.69365 26.2638 4.72463 26.1502 4.68848 26.0624C4.26508 24.9779 4.02239 23.8573 3.89847 22.7005C3.74873 21.3061 3.80552 19.9221 4.03272 18.5484C4.39416 16.3535 5.18934 14.3136 6.38728 12.4338C8.54562 9.05119 11.5508 7.02678 15.6248 6.7634C15.9294 6.74274 16.2341 6.72208 16.549 6.70143C16.549 5.26058 16.549 3.84556 16.549 2.41505C16.6058 2.43054 16.6472 2.4357 16.6885 2.4512C18.9914 3.34462 21.1291 4.52209 22.9724 6.19016C23.9742 7.09391 24.8313 8.11645 25.3993 9.35588C25.7452 10.0995 25.9208 10.8742 25.7969 11.7005C25.642 12.754 25.1669 13.6732 24.5576 14.5202C23.0964 16.5498 21.1601 17.9958 18.8933 18.9977C18.1446 19.3282 17.3546 19.5606 16.5284 19.8601C16.5284 18.3986 16.5284 17.0249 16.5284 15.6254C16.42 15.6667 16.3477 15.6925 16.2805 15.7286C14.4217 16.5911 12.8158 17.8099 11.3907 19.2714C10.5439 20.1441 9.80551 21.0944 9.25302 22.184C8.77281 23.1394 8.72118 24.1052 9.16008 25.0812C9.32531 25.453 9.50603 25.83 9.72806 26.1709C11.117 28.3606 12.9914 30.0493 15.1859 31.3972C15.6145 31.6606 16.0637 31.8775 16.5594 32.146C16.5594 30.6742 16.5594 29.2695 16.5594 27.8596C17.907 27.8286 19.2031 27.6582 20.4475 27.2089C23.8296 25.9901 26.401 23.7953 28.1721 20.6761C29.6488 18.0732 30.2685 15.2897 29.7521 12.315C29.1118 8.61739 27.1394 5.81316 23.9225 3.89204C22.136 2.82303 20.1945 2.2343 18.1187 2.0742C16.6058 1.95542 15.1033 1.99157 13.6162 2.32209C11.2823 2.84368 9.2272 3.93335 7.41998 5.46716C4.03788 8.32819 2.03444 11.938 1.63685 16.3897C1.51809 17.7324 1.63169 19.0596 1.9415 20.3714C2.31327 21.9413 2.9742 23.3925 3.71258 24.8178C3.99657 25.3394 4.30122 25.8559 4.59038 26.3775Z" fill="black"/>
</svg>
