<svg width="185" height="182" viewBox="0 0 185 182" fill="none" xmlns="http://www.w3.org/2000/svg">
<path d="M105.496 131.179L105.496 79.0628L53.3801 79.0627" stroke="black" stroke-width="2" stroke-miterlimit="10"/>
<path d="M131.555 105.121L105.497 131.179" stroke="black" stroke-width="2" stroke-miterlimit="10"/>
<path d="M79.4414 53.0045L53.3834 79.0625" stroke="black" stroke-width="2" stroke-miterlimit="10"/>
<path d="M105.497 79.0625L131.555 53.0045" stroke="black" stroke-width="2" stroke-miterlimit="10"/>
<path d="M53.7044 79.1741L105.82 79.1741L105.82 27.0582L53.7044 27.0581L53.7044 79.1741Z" fill="white"/>
<path d="M105.82 180.544L105.82 130.221M105.82 79.1741L53.7044 79.1741L53.7044 27.0582L105.82 27.0582L105.82 79.1741Z" stroke="black" stroke-width="2" stroke-miterlimit="10"/>
<path d="M79.7617 0.999638L53.7037 27.0576" stroke="black" stroke-width="2" stroke-miterlimit="10"/>
<path d="M79.7617 1L131.878 1M131.878 1L131.878 53.116M131.878 1L105.82 27.058" stroke="black" stroke-width="2" stroke-miterlimit="10"/>
<path d="M131.883 102.825L131.883 154.941" stroke="black" stroke-width="2" stroke-miterlimit="10"/>
<path d="M105.824 180.999L131.882 154.941" stroke="black" stroke-width="2" stroke-miterlimit="10"/>
<path d="M105.824 180.999L53.7083 180.999L53.7083 128.883" stroke="black" stroke-width="2" stroke-miterlimit="10"/>
<path d="M105.564 131.033L157.68 131.033L157.68 78.9172L105.564 78.9172L105.564 131.033Z" fill="white" stroke="black" stroke-width="2" stroke-miterlimit="10"/>
<path d="M131.621 52.8594L183.737 52.8594M183.737 52.8594L183.737 104.975L157.679 131.033M183.737 52.8594L157.679 78.9173" stroke="black" stroke-width="2" stroke-miterlimit="10"/>
<path d="M53.1172 78.9163L1.00123 78.9163L1.00123 131.032L27.0592 131.032" stroke="black" stroke-width="2" stroke-miterlimit="10"/>
<path d="M27.0586 52.858L1.00061 78.916" stroke="black" stroke-width="2" stroke-miterlimit="10"/>
<path d="M27.0586 52.8584L53.1166 52.8584" stroke="black" stroke-width="2" stroke-miterlimit="10"/>
<path d="M27.3528 157.388L79.4688 157.388L79.4688 105.272L27.3528 105.272L27.3528 157.388Z" fill="white" stroke="black" stroke-width="2" stroke-miterlimit="10"/>
<path d="M53.4102 79.2135L27.3522 105.271" stroke="black" stroke-width="2" stroke-miterlimit="10"/>
<path d="M53.4102 79.2139L105.526 79.2139M105.526 79.2139L79.468 105.272M105.526 79.2139L105.526 105.272V131.33L79.4681 157.388" stroke="black" stroke-width="2" stroke-miterlimit="10"/>
</svg>
