<svg width="206" height="182" viewBox="0 0 206 182" fill="none" xmlns="http://www.w3.org/2000/svg">
<path d="M102.726 15.9094C77.5078 -8.95237 1.91832 -2.95291 1.00626 35.6516C0.0781886 74.8401 102.726 108.325 102.726 108.325C102.726 108.325 205.365 74.8401 204.445 35.6516C203.533 -2.95291 127.935 -8.95237 102.726 15.9094Z" stroke="black" stroke-width="2" stroke-miterlimit="10"/>
<path d="M102.727 181C102.727 181 205.366 147.515 204.446 108.326C203.534 69.7219 127.944 63.7224 102.727 88.5842" stroke="black" stroke-width="2" stroke-miterlimit="10"/>
<path d="M102.725 181C102.725 181 0.0860825 147.515 1.00615 108.326C1.91821 69.7219 77.5077 63.7224 102.725 88.5842" stroke="black" stroke-width="2" stroke-miterlimit="10"/>
<path d="M1.00781 36.1064V111.134" stroke="black" stroke-width="2" stroke-miterlimit="10"/>
<path d="M204.445 35.1035V111.135" stroke="black" stroke-width="2" stroke-miterlimit="10"/>
</svg>
