<svg width="158" height="182" viewBox="0 0 158 182" fill="none" xmlns="http://www.w3.org/2000/svg">
<path d="M78.9393 173.976C122.957 173.976 148.512 150.26 148.512 150.26C148.512 150.26 122.957 127.439 78.9393 127.439C34.9218 127.439 1 137.857 1 150.708C1 163.558 34.9218 173.976 78.9393 173.976Z" stroke="black" stroke-width="2" stroke-miterlimit="10"/>
<path d="M156.414 43.1467C156.414 26.1741 131.956 12.415 100.219 12.415" stroke="black" stroke-width="2" stroke-miterlimit="10"/>
<path d="M78.9393 143.244C122.957 143.244 148.512 119.528 148.512 119.528C148.512 119.528 122.957 96.707 78.9393 96.707C34.9218 96.707 1 107.125 1 119.975C1 132.826 34.9218 143.244 78.9393 143.244Z" stroke="black" stroke-width="2" stroke-miterlimit="10"/>
<path d="M78.9393 112.512C122.957 112.512 148.512 88.7964 148.512 88.7964C148.512 88.7964 122.957 65.9756 78.9393 65.9756C34.9218 65.9756 1 76.3932 1 89.2439C1 102.095 34.9218 112.512 78.9393 112.512Z" stroke="black" stroke-width="2" stroke-miterlimit="10"/>
<path d="M78.9393 81.7807C122.957 81.7807 148.512 58.065 148.512 58.065C148.512 58.065 122.957 35.2441 78.9393 35.2441C34.9218 35.2441 1 45.6617 1 58.5124C1 71.3632 34.9218 81.7807 78.9393 81.7807Z" stroke="black" stroke-width="2" stroke-miterlimit="10"/>
<path d="M148.512 119.536C153.488 123.871 156.414 129.174 156.414 134.902C156.414 140.63 153.488 145.933 148.512 150.268" stroke="black" stroke-width="2" stroke-miterlimit="10"/>
<path d="M148.512 88.8047C153.488 93.1395 156.414 98.4429 156.414 104.171C156.414 109.898 153.488 115.202 148.512 119.536" stroke="black" stroke-width="2" stroke-miterlimit="10"/>
<path d="M148.512 58.0732C153.488 62.408 156.414 67.7115 156.414 73.4391C156.414 79.1667 153.488 84.4702 148.512 88.8049" stroke="black" stroke-width="2" stroke-miterlimit="10"/>
<path d="M148.512 27.3418C153.488 31.6766 156.414 36.98 156.414 42.7076C156.414 48.4353 153.488 53.7387 148.512 58.0735" stroke="black" stroke-width="2" stroke-miterlimit="10"/>
<path d="M148.512 150.269C153.488 154.603 156.414 159.907 156.414 165.634C156.414 171.362 153.488 176.665 148.512 181" stroke="black" stroke-width="2" stroke-miterlimit="10"/>
<path d="M119.096 1L99.3398 12.8537L119.096 26.0244" stroke="black" stroke-width="2" stroke-linecap="round" stroke-linejoin="round"/>
</svg>
