<svg width="33" height="33" viewBox="0 0 33 33" fill="none" xmlns="http://www.w3.org/2000/svg">
<path d="M16.5129 33C7.37867 32.9897 -0.0154662 25.5634 2.42947e-05 16.4277C0.0155148 7.3695 7.46645 -0.0154686 16.5697 2.43325e-05C25.58 0.0155173 33.0206 7.49344 33 16.5052C32.9793 25.5737 25.549 33.0103 16.5129 33ZM4.59038 25.3775C4.62652 25.3723 4.66267 25.3671 4.69365 25.362C4.69365 25.2638 4.72463 25.1502 4.68848 25.0624C4.26508 23.9779 4.02239 22.8573 3.89847 21.7005C3.74873 20.3061 3.80552 18.9221 4.03272 17.5484C4.39416 15.3535 5.18934 13.3136 6.38728 11.4338C8.54562 8.05119 11.5508 6.02678 15.6248 5.7634C15.9294 5.74274 16.2341 5.72208 16.549 5.70143C16.549 4.26058 16.549 2.84556 16.549 1.41505C16.6058 1.43054 16.6472 1.4357 16.6885 1.4512C18.9914 2.34462 21.1291 3.52209 22.9724 5.19016C23.9742 6.09391 24.8313 7.11645 25.3993 8.35588C25.7452 9.09955 25.9208 9.87419 25.7969 10.7005C25.642 11.754 25.1669 12.6732 24.5576 13.5202C23.0964 15.5498 21.1601 16.9958 18.8933 17.9977C18.1446 18.3282 17.3546 18.5606 16.5284 18.8601C16.5284 17.3986 16.5284 16.0249 16.5284 14.6254C16.42 14.6667 16.3477 14.6925 16.2805 14.7286C14.4217 15.5911 12.8158 16.8099 11.3907 18.2714C10.5439 19.1441 9.80551 20.0944 9.25302 21.184C8.77281 22.1394 8.72118 23.1052 9.16008 24.0812C9.32531 24.453 9.50603 24.83 9.72806 25.1709C11.117 27.3606 12.9914 29.0493 15.1859 30.3972C15.6145 30.6606 16.0637 30.8775 16.5594 31.146C16.5594 29.6742 16.5594 28.2695 16.5594 26.8596C17.907 26.8286 19.2031 26.6582 20.4475 26.2089C23.8296 24.9901 26.401 22.7953 28.1721 19.6761C29.6488 17.0732 30.2685 14.2897 29.7521 11.315C29.1118 7.61739 27.1394 4.81316 23.9225 2.89204C22.136 1.82303 20.1945 1.2343 18.1187 1.0742C16.6058 0.955422 15.1033 0.991573 13.6162 1.32209C11.2823 1.84368 9.2272 2.93335 7.41998 4.46716C4.03788 7.32819 2.03444 10.938 1.63685 15.3897C1.51809 16.7324 1.63169 18.0596 1.9415 19.3714C2.31327 20.9413 2.9742 22.3925 3.71258 23.8178C3.99657 24.3394 4.30122 24.8559 4.59038 25.3775Z" fill="black"/>
</svg>
