<svg width="25" height="26" viewBox="0 0 25 26" fill="none" xmlns="http://www.w3.org/2000/svg">
<g clip-path="url(#clip0_1513_417)">
<mask id="mask0_1513_417" style="mask-type:alpha" maskUnits="userSpaceOnUse" x="0" y="0" width="25" height="25">
<path d="M0.5 0.0515137H24.4707V24.6795H0.5V0.0515137Z" fill="white"/>
</mask>
<g mask="url(#mask0_1513_417)">
<path fill-rule="evenodd" clip-rule="evenodd" d="M17.4972 22.8369C18.86 22.8369 20.1463 22.301 21.1192 21.3281C22.0922 20.3552 22.628 19.0688 22.628 17.706V7.02503C22.628 5.66227 22.0922 4.37588 21.1192 3.40298C20.1463 2.43003 18.86 1.89422 17.4972 1.89422H7.47357C6.11076 1.89422 4.82442 2.43003 3.85147 3.40298C2.87852 4.37588 2.34271 5.66227 2.34271 7.02503V17.706C2.34271 19.0688 2.87852 20.3552 3.85147 21.3281C4.82442 22.301 6.11076 22.8369 7.47357 22.8369H17.4972ZM17.4972 24.6795H7.47357C3.63809 24.6795 0.5 21.5414 0.5 17.706V7.02503C0.5 3.1896 3.63809 0.0515137 7.47357 0.0515137H17.4972C21.3327 0.0515137 24.4707 3.1896 24.4707 7.02503V17.706C24.4707 21.5414 21.3327 24.6795 17.4972 24.6795Z" fill="#FEFEFE"/>
</g>
<path fill-rule="evenodd" clip-rule="evenodd" d="M12.4906 7.95343C10.1035 7.95343 8.16838 9.88859 8.16838 12.2757C8.16838 14.6628 10.1035 16.598 12.4906 16.598C14.8777 16.598 16.8129 14.6628 16.8129 12.2757C16.8129 9.88859 14.8777 7.95343 12.4906 7.95343ZM19.1232 12.2704C19.1232 15.916 16.1679 18.8713 12.5224 18.8713C8.87687 18.8713 5.92163 15.916 5.92163 12.2704C5.92163 8.62497 8.87687 5.66968 12.5224 5.66968C16.1679 5.66968 19.1232 8.62497 19.1232 12.2704Z" fill="#FEFEFE"/>
<path fill-rule="evenodd" clip-rule="evenodd" d="M20.7922 5.56701C20.7922 6.43019 20.0924 7.12999 19.2292 7.12999C18.366 7.12999 17.6663 6.43019 17.6663 5.56701C17.6663 4.70383 18.366 4.00403 19.2292 4.00403C20.0924 4.00403 20.7922 4.70383 20.7922 5.56701Z" fill="#FEFEFE"/>
</g>
<defs>
<clipPath id="clip0_1513_417">
<rect width="24" height="26" fill="white" transform="translate(0.5)"/>
</clipPath>
</defs>
</svg>
