<svg width="35" height="26" viewBox="0 0 35 26" fill="none" xmlns="http://www.w3.org/2000/svg">
<mask id="mask0_1513_439" style="mask-type:alpha" maskUnits="userSpaceOnUse" x="0" y="0" width="35" height="26">
<path d="M0.5 0H34.5645V25.4594H0.5V0Z" fill="white"/>
</mask>
<g mask="url(#mask0_1513_439)">
<path fill-rule="evenodd" clip-rule="evenodd" d="M14.0484 18.1027V7.35676L22.9516 12.7299L14.0484 18.1027ZM33.8526 3.97558C33.4609 2.41064 32.3066 1.17832 30.841 0.760088C28.1846 0 17.5323 0 17.5323 0C17.5323 0 6.87994 0 4.22348 0.760088C2.75794 1.17832 1.60361 2.41064 1.21187 3.97558C0.5 6.81184 0.5 12.7297 0.5 12.7297C0.5 12.7297 0.5 18.6474 1.21187 21.4839C1.60361 23.0488 2.75794 24.2811 4.22348 24.6996C6.87994 25.4595 17.5323 25.4595 17.5323 25.4595C17.5323 25.4595 28.1846 25.4595 30.841 24.6996C32.3066 24.2811 33.4609 23.0488 33.8526 21.4839C34.5645 18.6474 34.5645 12.7297 34.5645 12.7297C34.5645 12.7297 34.5645 6.81184 33.8526 3.97558Z" fill="white"/>
</g>
</svg>
